{
.appVersion = "983";
copyright = "Copyright © 2018 by Cadson Demak Co.,Ltd.. All rights reserved.";
customParameters = (
{
name = vendorID;
value = CDK;
},
{
name = description;
value = "Copyright (c) 2018, Cadson Demak (info@cadsondemak.com)";
},
{
name = license;

glyphs = (
{
glyphname = A;
lastChange = "2017-12-18 10:26:13 +0000";
layers = (
{
layerId = "0B1DFD06-3317-40CA-B510-4969A0718C16";
paths = (
{
closed = 1;
nodes = (
"37 0 LINE",
"111 0 LINE",
"196 196 LINE",
"573 196 LINE",
"660 0 LINE",
"734 0 LINE",
"445 648 LINE SMOOTH",
"429 684 OFFCURVE",
"389 701 OFFCURVE",
"348 701 CURVE"
);
},
{
closed = 1;
nodes = (
"385 622 LINE",
"547 255 LINE",
"221 255 LINE"
);
}
);
width = 771;
}
);
note = A;
unicode = 0041;
},
{
glyphname = B;
lastChange = "2017-12-18 10:26:13 +0000";
layers = (
{
layerId = "0B1DFD06-3317-40CA-B510-4969A0718C16";
paths = (
{
closed = 1;
nodes = (
"474 0 LINE SMOOTH",
"573 0 OFFCURVE",
"654 102 OFFCURVE",
"654 199 CURVE SMOOTH",
"654 277 OFFCURVE",
"601 361 OFFCURVE",
"529 388 CURVE",
"563 424 OFFCURVE",
"585 466 OFFCURVE",
"585 516 CURVE SMOOTH",
"585 613 OFFCURVE",
"504 700 OFFCURVE",
"405 700 CURVE SMOOTH",
"65 700 LINE",
"65 65 LINE SMOOTH",
"65 31 OFFCURVE",
"93 0 OFFCURVE",
"127 0 CURVE SMOOTH"
);
},
{
closed = 1;
nodes = (
"131 59 LINE",
"131 336 LINE",
"474 336 LINE SMOOTH",
"535 336 OFFCURVE",
"585 259 OFFCURVE",
"585 199 CURVE SMOOTH",
"585 139 OFFCURVE",
"535 59 OFFCURVE",
"474 59 CURVE SMOOTH"
);
},
{
closed = 1;
nodes = (
"405 641 LINE SMOOTH",
"466 641 OFFCURVE",
"516 576 OFFCURVE",
"516 516 CURVE SMOOTH",
"516 455 OFFCURVE",
"466 395 OFFCURVE",
"405 395 CURVE SMOOTH",
"131 395 LINE",
"131 641 LINE"
);
}
);
width = 698;
}
);
note = B;
unicode = 0042;
},
{
glyphname = C;
lastChange = "2017-12-18 10:26:13 +0000";
layers = (
{
layerId = "0B1DFD06-3317-40CA-B510-4969A0718C16";
paths = (
{
closed = 1;
nodes = (
"637 491 LINE",
"637 619 OFFCURVE",
"536 715 OFFCURVE",
"408 715 CURVE SMOOTH",
"329 715 LINE SMOOTH",
"175 715 OFFCURVE",
"50 578 OFFCURVE",
"50 421 CURVE SMOOTH",
"50 228 LINE SMOOTH",
"50 102 OFFCURVE",
"152 -15 OFFCURVE",
"278 -15 CURVE SMOOTH",
"361 -15 LINE SMOOTH",
"513 -15 OFFCURVE",
"639 93 OFFCURVE",
"639 249 CURVE",
"573 249 LINE",
"573 134 OFFCURVE",
"476 44 OFFCURVE",
"361 44 CURVE SMOOTH",
"278 44 LINE SMOOTH",
"189 44 OFFCURVE",
"116 139 OFFCURVE",
"116 228 CURVE SMOOTH",
"116 421 LINE SMOOTH",
"116 541 OFFCURVE",
"212 656 OFFCURVE",
"329 656 CURVE SMOOTH",
"408 656 LINE SMOOTH",
"500 656 OFFCURVE",
"570 578 OFFCURVE",
"570 491 CURVE"
);
}
);
width = 690;
}
);
note = C;
unicode = 0043;
},
{
glyphname = D;
lastChange = "2017-12-18 10:26:13 +0000";
layers = (
{
layerId = "0B1DFD06-3317-40CA-B510-4969A0718C16";
paths = (
{
closed = 1;
nodes = (
"376 0 LINE SMOOTH",
"528 0 OFFCURVE",
"654 122 OFFCURVE",
"654 280 CURVE SMOOTH",
"654 470 LINE SMOOTH",
"654 598 OFFCURVE",
"553 700 OFFCURVE",
"424 700 CURVE SMOOTH",
"65 700 LINE",
"65 65 LINE SMOOTH",
"65 31 OFFCURVE",
"93 0 OFFCURVE",
"127 0 CURVE SMOOTH"
);
},
{
closed = 1;
nodes = (
"131 641 LINE",
"424 641 LINE SMOOTH",
"516 641 OFFCURVE",
"588 561 OFFCURVE",
"588 470 CURVE SMOOTH",
"588 280 LINE SMOOTH",
"588 159 OFFCURVE",
"491 59 OFFCURVE",
"376 59 CURVE SMOOTH",
"131 59 LINE"
);
}
);
width = 719;
}
);
note = D;
unicode = 0044;
},
{
glyphname = E;
lastChange = "2017-12-18 10:26:13 +0000";
layers = (
{
layerId = "0B1DFD06-3317-40CA-B510-4969A0718C16";
paths = (
{
closed = 1;
nodes = (
"65 65 LINE SMOOTH",
"65 31 OFFCURVE",
"93 0 OFFCURVE",
"127 0 CURVE SMOOTH",
"625 0 LINE",
"625 59 LINE",
"131 59 LINE",
"131 336 LINE",
"553 336 LINE",
"553 395 LINE",
"131 395 LINE",
"131 641 LINE",
"625 641 LINE",
"625 700 LINE",
"65 700 LINE"
);
}
);
width = 690;
}
);
note = E;
unicode = 0045;
},
{
glyphname = F;
lastChange = "2017-12-18 10:26:13 +0000";
layers = (
{
layerId = "0B1DFD06-3317-40CA-B510-4969A0718C16";
paths = (
{
closed = 1;
nodes = (
"553 336 LINE",
"553 395 LINE",
"131 395 LINE",
"131 641 LINE",
"625 641 LINE",
"625 700 LINE",
"65 700 LINE",
"65 0 LINE",
"131 0 LINE",
"131 336 LINE"
);
}
);
width = 690;
}
);
note = F;
unicode = 0046;
},
{
glyphname = G;
lastChange = "2017-12-18 10:26:13 +0000";
layers = (
{
layerId = "0B1DFD06-3317-40CA-B510-4969A0718C16";
paths = (
{
closed = 1;
nodes = (
"639 308 LINE",
"364 308 LINE",
"364 249 LINE",
"573 249 LINE",
"573 134 OFFCURVE",
"476 44 OFFCURVE",
"361 44 CURVE SMOOTH",
"278 44 LINE SMOOTH",
"189 44 OFFCURVE",
"116 139 OFFCURVE",
"116 228 CURVE SMOOTH",
"116 421 LINE SMOOTH",
"116 541 OFFCURVE",
"212 656 OFFCURVE",
"329 656 CURVE SMOOTH",
"408 656 LINE SMOOTH",
"500 656 OFFCURVE",
"570 578 OFFCURVE",
"570 491 CURVE",
"637 491 LINE",
"637 619 OFFCURVE",
"536 715 OFFCURVE",
"408 715 CURVE SMOOTH",
"329 715 LINE SMOOTH",
"175 715 OFFCURVE",
"50 578 OFFCURVE",
"50 421 CURVE SMOOTH",
"50 228 LINE SMOOTH",
"50 102 OFFCURVE",
"152 -15 OFFCURVE",
"278 -15 CURVE SMOOTH",
"361 -15 LINE SMOOTH",
"513 -15 OFFCURVE",
"639 93 OFFCURVE",
"639 249 CURVE SMOOTH"
);
}
);
width = 690;
}
);
note = G;
unicode = 0047;
},
{
glyphname = H;
lastChange = "2017-12-18 10:26:13 +0000";
layers = (
{
layerId = "0B1DFD06-3317-40CA-B510-4969A0718C16";
paths = (
{
closed = 1;
nodes = (
"558 0 LINE",
"625 0 LINE",
"625 700 LINE",
"558 700 LINE",
"558 395 LINE",
"131 395 LINE",
"131 700 LINE",
"65 700 LINE",
"65 0 LINE",
"131 0 LINE",
"131 336 LINE",
"558 336 LINE"
);
}
);
width = 690;
}
);
note = H;
unicode = 0048;
},
{
glyphname = I;
lastChange = "2017-12-18 10:26:13 +0000";
layers = (
{
layerId = "0B1DFD06-3317-40CA-B510-4969A0718C16";
paths = (
{
closed = 1;
nodes = (
"65 0 LINE",
"131 0 LINE",
"131 700 LINE",
"65 700 LINE"
);
}
);
width = 196;
}
);
note = I;
unicode = 0049;
},
{
glyphname = J;
lastChange = "2017-12-18 10:26:13 +0000";
layers = (
{
layerId = "0B1DFD06-3317-40CA-B510-4969A0718C16";
paths = (
{
closed = 1;
nodes = (
"29 228 LINE",
"29 102 OFFCURVE",
"131 -15 OFFCURVE",
"258 -15 CURVE SMOOTH",
"410 -15 OFFCURVE",
"536 93 OFFCURVE",
"536 249 CURVE SMOOTH",
"536 700 LINE",
"470 700 LINE",
"470 249 LINE SMOOTH",
"470 134 OFFCURVE",
"373 52 OFFCURVE",
"258 52 CURVE SMOOTH",
"168 52 OFFCURVE",
"96 139 OFFCURVE",
"96 228 CURVE"
);
}
);
width = 601;
}
);
note = J;
unicode = 004A;
},
{
glyphname = K;
lastChange = "2017-12-18 10:26:13 +0000";
layers = (
{
layerId = "0B1DFD06-3317-40CA-B510-4969A0718C16";
paths = (
{
closed = 1;
nodes = (
"623 0 LINE",
"367 259 OFFCURVE",
"365 262 OFFCURVE",
"362 265 CURVE SMOOTH",
"317 311 OFFCURVE",
"264 364 OFFCURVE",
"199 365 CURVE",
"623 700 LINE",
"523 700 LINE",
"131 398 LINE",
"131 700 LINE",
"65 700 LINE",
"65 0 LINE",
"131 0 LINE",
"131 318 LINE",
"162 318 OFFCURVE",
"222 311 OFFCURVE",
"276 258 CURVE SMOOTH",
"530 0 LINE"
);
}
);
width = 660;
}
);
note = K;
unicode = 004B;
},
{
glyphname = L;
lastChange = "2017-12-18 10:26:13 +0000";
layers = (
{
layerId = "0B1DFD06-3317-40CA-B510-4969A0718C16";
paths = (
{
closed = 1;
nodes = (
"65 65 LINE SMOOTH",
"65 31 OFFCURVE",
"93 0 OFFCURVE",
"127 0 CURVE SMOOTH",
"566 0 LINE",
"566 59 LINE",
"131 59 LINE",
"131 700 LINE",
"65 700 LINE"
);
}
);
width = 603;
}
);
note = L;
unicode = 004C;
},
{
glyphname = M;
lastChange = "2017-12-18 10:26:13 +0000";
layers = (
{
layerId = "0B1DFD06-3317-40CA-B510-4969A0718C16";
paths = (
{
closed = 1;
nodes = (
"796 700 LINE",
"729 700 LINE",
"430 149 LINE",
"131 701 LINE",
"65 701 LINE",
"65 0 LINE",
"131 0 LINE",
"131 553 LINE",
"430 -9 LINE",
"729 553 LINE",
"729 0 LINE",
"796 0 LINE"
);
}
);
width = 861;
}
);
note = M;
unicode = 004D;
},
{
glyphname = N;
lastChange = "2017-12-18 10:26:13 +0000";
layers = (
{
layerId = "0B1DFD06-3317-40CA-B510-4969A0718C16";
paths = (
{
closed = 1;
nodes = (
"131 701 LINE",
"65 701 LINE",
"65 0 LINE",
"131 0 LINE",
"131 589 LINE",
"588 0 LINE",
"654 0 LINE",
"654 701 LINE",
"585 701 LINE",
"585 112 LINE"
);
}
);
width = 719;
}
);
note = N;
unicode = 004E;
},
{
glyphname = O;
lastChange = "2017-12-18 10:26:13 +0000";
layers = (
{
layerId = "0B1DFD06-3317-40CA-B510-4969A0718C16";
paths = (
{
closed = 1;
nodes = (
"641 470 LINE SMOOTH",
"641 598 OFFCURVE",
"539 715 OFFCURVE",
"411 715 CURVE SMOOTH",
"332 715 LINE SMOOTH",
"178 715 OFFCURVE",
"52 578 OFFCURVE",
"52 420 CURVE SMOOTH",
"52 230 LINE SMOOTH",
"52 102 OFFCURVE",
"153 -15 OFFCURVE",
"281 -15 CURVE SMOOTH",
"362 -15 LINE SMOOTH",
"514 -15 OFFCURVE",
"641 122 OFFCURVE",
"641 280 CURVE SMOOTH"
);
},
{
closed = 1;
nodes = (
"575 280 LINE SMOOTH",
"575 159 OFFCURVE",
"477 44 OFFCURVE",
"362 44 CURVE SMOOTH",
"281 44 LINE SMOOTH",
"190 44 OFFCURVE",
"118 139 OFFCURVE",
"118 230 CURVE SMOOTH",
"118 420 LINE SMOOTH",
"118 541 OFFCURVE",
"215 656 OFFCURVE",
"332 656 CURVE SMOOTH",
"411 656 LINE SMOOTH",
"502 656 OFFCURVE",
"575 561 OFFCURVE",
"575 470 CURVE SMOOTH"
);
}
);
width = 691;
}
);
note = O;
unicode = 004F;
},
{
glyphname = P;
lastChange = "2017-12-18 10:26:13 +0000";
layers = (
{
layerId = "0B1DFD06-3317-40CA-B510-4969A0718C16";
paths = (
{
closed = 1;
nodes = (
"65 0 LINE",
"131 0 LINE",
"131 336 LINE",
"441 336 LINE SMOOTH",
"542 336 OFFCURVE",
"625 414 OFFCURVE",
"625 516 CURVE SMOOTH",
"625 617 OFFCURVE",
"542 700 OFFCURVE",
"441 700 CURVE SMOOTH",
"65 700 LINE"
);
},
{
closed = 1;
nodes = (
"441 641 LINE SMOOTH",
"505 641 OFFCURVE",
"558 581 OFFCURVE",
"558 516 CURVE SMOOTH",
"558 451 OFFCURVE",
"505 395 OFFCURVE",
"441 395 CURVE SMOOTH",
"131 395 LINE",
"131 641 LINE"
);
}
);
width = 662;
}
);
note = P;
unicode = 0050;
},
{
glyphname = Q;
lastChange = "2017-12-18 10:26:13 +0000";
layers = (
{
layerId = "0B1DFD06-3317-40CA-B510-4969A0718C16";
paths = (
{
closed = 1;
nodes = (
"600 -13 LINE",
"647 34 LINE",
"582 103 LINE",
"617 153 OFFCURVE",
"639 215 OFFCURVE",
"639 280 CURVE SMOOTH",
"639 470 LINE SMOOTH",
"639 598 OFFCURVE",
"538 715 OFFCURVE",
"410 715 CURVE SMOOTH",
"330 715 LINE SMOOTH",
"177 715 OFFCURVE",
"50 578 OFFCURVE",
"50 420 CURVE SMOOTH",
"50 230 LINE SMOOTH",
"50 102 OFFCURVE",
"152 -15 OFFCURVE",
"280 -15 CURVE SMOOTH",
"361 -15 LINE SMOOTH",
"427 -15 OFFCURVE",
"488 12 OFFCURVE",
"536 55 CURVE"
);
},
{
closed = 1;
nodes = (
"573 280 LINE SMOOTH",
"573 233 OFFCURVE",
"558 189 OFFCURVE",
"535 150 CURVE",
"433 252 LINE",
"386 205 LINE",
"492 99 LINE",
"455 65 OFFCURVE",
"410 44 OFFCURVE",
"361 44 CURVE SMOOTH",
"280 44 LINE SMOOTH",
"189 44 OFFCURVE",
"116 139 OFFCURVE",
"116 230 CURVE SMOOTH",
"116 420 LINE SMOOTH",
"116 541 OFFCURVE",
"214 656 OFFCURVE",
"330 656 CURVE SMOOTH",
"410 656 LINE SMOOTH",
"501 656 OFFCURVE",
"573 561 OFFCURVE",
"573 470 CURVE SMOOTH"
);
}
);
width = 690;
}
);
note = Q;
unicode = 0051;
},
{
glyphname = R;
lastChange = "2017-12-18 10:26:13 +0000";
layers = (
{
layerId = "0B1DFD06-3317-40CA-B510-4969A0718C16";
paths = (
{
closed = 1;
nodes = (
"65 0 LINE",
"131 0 LINE",
"131 336 LINE",
"317 336 LINE SMOOTH",
"340 336 OFFCURVE",
"373 308 OFFCURVE",
"390 281 CURVE SMOOTH",
"575 0 LINE",
"653 0 LINE",
"470 281 LINE SMOOTH",
"449 314 OFFCURVE",
"430 336 OFFCURVE",
"420 336 CURVE",
"441 336 LINE SMOOTH",
"542 336 OFFCURVE",
"625 414 OFFCURVE",
"625 516 CURVE SMOOTH",
"625 617 OFFCURVE",
"542 700 OFFCURVE",
"441 700 CURVE SMOOTH",
"65 700 LINE"
);
},
{
closed = 1;
nodes = (
"441 641 LINE SMOOTH",
"505 641 OFFCURVE",
"558 581 OFFCURVE",
"558 516 CURVE SMOOTH",
"558 451 OFFCURVE",
"505 395 OFFCURVE",
"441 395 CURVE SMOOTH",
"131 395 LINE",
"131 641 LINE"
);
}
);
width = 675;
}
);
note = R;
unicode = 0052;
},
{
glyphname = S;
lastChange = "2017-12-18 10:26:13 +0000";
layers = (
{
layerId = "0B1DFD06-3317-40CA-B510-4969A0718C16";
paths = (
{
closed = 1;
nodes = (
"50 220 LINE",
"50 85 OFFCURVE",
"156 -15 OFFCURVE",
"290 -15 CURVE SMOOTH",
"438 -15 LINE SMOOTH",
"584 -15 OFFCURVE",
"697 80 OFFCURVE",
"697 203 CURVE SMOOTH",
"697 271 OFFCURVE",
"678 379 OFFCURVE",
"529 402 CURVE SMOOTH",
"240 439 LINE SMOOTH",
"147 451 OFFCURVE",
"146 504 OFFCURVE",
"146 532 CURVE SMOOTH",
"146 614 OFFCURVE",
"255 659 OFFCURVE",
"308 659 CURVE SMOOTH",
"457 659 LINE SMOOTH",
"535 659 OFFCURVE",
"601 594 OFFCURVE",
"601 514 CURVE",
"667 514 LINE",
"667 637 OFFCURVE",
"570 716 OFFCURVE",
"457 716 CURVE SMOOTH",
"308 716 LINE SMOOTH",
"233 716 OFFCURVE",
"80 666 OFFCURVE",
"80 532 CURVE SMOOTH",
"80 483 OFFCURVE",
"83 399 OFFCURVE",
"230 373 CURVE",
"522 336 LINE SMOOTH",
"617 324 OFFCURVE",
"631 249 OFFCURVE",
"631 203 CURVE SMOOTH",
"631 119 OFFCURVE",
"547 44 OFFCURVE",
"438 44 CURVE SMOOTH",
"290 44 LINE SMOOTH",
"193 44 OFFCURVE",
"116 125 OFFCURVE",
"116 220 CURVE"
);
}
);
width = 749;
}
);
note = S;
unicode = 0053;
},
{
glyphname = T;
lastChange = "2017-12-18 10:26:13 +0000";
layers = (
{
layerId = "0B1DFD06-3317-40CA-B510-4969A0718C16";
paths = (
{
closed = 1;
nodes = (
"255 0 LINE",
"321 0 LINE",
"321 641 LINE",
"538 641 LINE",
"538 700 LINE",
"37 700 LINE",
"37 641 LINE",
"255 641 LINE"
);
}
);
width = 575;
}
);
note = T;
unicode = 0054;
},
{
glyphname = U;
lastChange = "2017-12-18 10:26:13 +0000";
layers = (
{
layerId = "0B1DFD06-3317-40CA-B510-4969A0718C16";
paths = (
{
closed = 1;
nodes = (
"57 700 LINE",
"57 230 LINE SMOOTH",
"57 102 OFFCURVE",
"159 -15 OFFCURVE",
"287 -15 CURVE SMOOTH",
"368 -15 LINE SMOOTH",
"520 -15 OFFCURVE",
"647 122 OFFCURVE",
"647 280 CURVE SMOOTH",
"647 700 LINE",
"581 700 LINE",
"581 280 LINE SMOOTH",
"581 159 OFFCURVE",
"483 44 OFFCURVE",
"368 44 CURVE SMOOTH",
"287 44 LINE SMOOTH",
"196 44 OFFCURVE",
"124 139 OFFCURVE",
"124 230 CURVE SMOOTH",
"124 700 LINE"
);
}
);
width = 704;
}
);
note = U;
unicode = 0055;
},
{
glyphname = V;
lastChange = "2017-12-18 10:26:13 +0000";
layers = (
{
layerId = "0B1DFD06-3317-40CA-B510-4969A0718C16";
paths = (
{
closed = 1;
nodes = (
"345 74 LINE",
"108 700 LINE",
"37 700 LINE",
"277 66 LINE",
"299 18 OFFCURVE",
"327 -7 OFFCURVE",
"385 -7 CURVE",
"659 700 LINE",
"588 700 LINE"
);
}
);
width = 695;
}
);
note = V;
unicode = 0056;
},
{
glyphname = W;
lastChange = "2017-12-18 10:26:13 +0000";
layers = (
{
layerId = "0B1DFD06-3317-40CA-B510-4969A0718C16";
paths = (
{
closed = 1;
nodes = (
"520 609 LINE",
"682 -7 LINE",
"740 -7 OFFCURVE",
"771 18 OFFCURVE",
"793 66 CURVE",
"1003 700 LINE",
"933 700 LINE",
"725 74 LINE",
"567 659 LINE",
"551 703 OFFCURVE",
"508 707 OFFCURVE",
"485 707 CURVE",
"315 74 LINE",
"108 700 LINE",
"37 700 LINE",
"248 66 LINE",
"270 18 OFFCURVE",
"301 -7 OFFCURVE",
"358 -7 CURVE"
);
}
);
width = 1040;
}
);
note = W;
unicode = 0057;
},
{
glyphname = X;
lastChange = "2017-12-18 10:26:13 +0000";
layers = (
{
layerId = "0B1DFD06-3317-40CA-B510-4969A0718C16";
paths = (
{
closed = 1;
nodes = (
"340 293 LINE",
"560 0 LINE",
"644 0 LINE",
"382 349 LINE",
"644 700 LINE",
"560 700 LINE",
"339 405 LINE",
"121 700 LINE",
"37 700 LINE",
"298 349 LINE",
"37 0 LINE",
"121 0 LINE"
);
}
);
width = 681;
}
);
note = X;
unicode = 0058;
},
{
glyphname = Y;
lastChange = "2017-12-18 10:26:13 +0000";
layers = (
{
layerId = "0B1DFD06-3317-40CA-B510-4969A0718C16";
paths = (
{
closed = 1;
nodes = (
"364 349 LINE",
"626 700 LINE",
"551 700 LINE",
"330 405 LINE",
"112 700 LINE",
"37 700 LINE",
"298 349 LINE",
"298 0 LINE",
"364 0 LINE"
);
}
);
width = 663;
}
);
note = Y;
unicode = 0059;
},
{
glyphname = Z;
lastChange = "2017-12-18 10:26:13 +0000";
layers = (
{
layerId = "0B1DFD06-3317-40CA-B510-4969A0718C16";
paths = (
{
closed = 1;
nodes = (
"517 641 LINE",
"37 0 LINE",
"626 0 LINE",
"626 59 LINE",
"169 59 LINE",
"650 700 LINE",
"60 700 LINE",
"60 641 LINE"
);
}
);
width = 687;
}
);
note = Z;
unicode = 005A;
},
{
glyphname = a;
lastChange = "2017-12-18 10:26:13 +0000";
layers = (
{
layerId = "0B1DFD06-3317-40CA-B510-4969A0718C16";
paths = (
{
closed = 1;
nodes = (
"402 -3 LINE",
"469 -3 LINE",
"469 500 LINE",
"402 500 LINE",
"402 454 LINE",
"379 477 OFFCURVE",
"358 507 OFFCURVE",
"305 507 CURVE SMOOTH",
"246 507 LINE SMOOTH",
"137 507 OFFCURVE",
"47 413 OFFCURVE",
"47 301 CURVE SMOOTH",
"47 164 LINE SMOOTH",
"47 72 OFFCURVE",
"105 -7 OFFCURVE",
"196 -7 CURVE SMOOTH",
"255 -7 LINE SMOOTH",
"305 -7 OFFCURVE",
"376 27 OFFCURVE",
"402 68 CURVE"
);
},
{
closed = 1;
nodes = (
"402 193 LINE",
"399 121 OFFCURVE",
"326 52 OFFCURVE",
"255 52 CURVE SMOOTH",
"196 52 LINE SMOOTH",
"143 52 OFFCURVE",
"113 111 OFFCURVE",
"113 164 CURVE SMOOTH",
"113 301 LINE SMOOTH",
"113 376 OFFCURVE",
"172 448 OFFCURVE",
"246 448 CURVE SMOOTH",
"305 448 LINE SMOOTH",
"355 448 OFFCURVE",
"398 386 OFFCURVE",
"402 336 CURVE"
);
}
);
width = 519;
}
);
note = a;
unicode = 0061;
},
{
glyphname = b;
lastChange = "2017-12-18 10:26:13 +0000";
layers = (
{
layerId = "0B1DFD06-3317-40CA-B510-4969A0718C16";
paths = (
{
closed = 1;
nodes = (
"53 0 LINE",
"119 0 LINE",
"119 40 LINE",
"146 19 OFFCURVE",
"168 -7 OFFCURVE",
"220 -7 CURVE SMOOTH",
"278 -7 LINE SMOOTH",
"388 -7 OFFCURVE",
"473 87 OFFCURVE",
"473 199 CURVE SMOOTH",
"473 336 LINE SMOOTH",
"473 427 OFFCURVE",
"405 507 OFFCURVE",
"314 507 CURVE SMOOTH",
"255 507 LINE SMOOTH",
"193 507 OFFCURVE",
"155 472 OFFCURVE",
"119 439 CURVE",
"119 700 LINE",
"53 700 LINE"
);
},
{
closed = 1;
nodes = (
"407 202 LINE SMOOTH",
"407 127 OFFCURVE",
"352 52 OFFCURVE",
"278 52 CURVE SMOOTH",
"220 52 LINE SMOOTH",
"171 52 OFFCURVE",
"127 105 OFFCURVE",
"119 150 CURVE",
"119 326 LINE",
"130 389 OFFCURVE",
"189 448 OFFCURVE",
"255 448 CURVE SMOOTH",
"314 448 LINE SMOOTH",
"367 448 OFFCURVE",
"407 392 OFFCURVE",
"407 339 CURVE SMOOTH"
);
}
);
width = 520;
}
);
note = b;
unicode = 0062;
},
{
glyphname = c;
lastChange = "2017-12-18 10:26:13 +0000";
layers = (
{
layerId = "0B1DFD06-3317-40CA-B510-4969A0718C16";
paths = (
{
closed = 1;
nodes = (
"467 351 LINE",
"467 442 OFFCURVE",
"395 507 OFFCURVE",
"304 507 CURVE SMOOTH",
"246 507 LINE SMOOTH",
"137 507 OFFCURVE",
"47 413 OFFCURVE",
"47 301 CURVE SMOOTH",
"47 164 LINE SMOOTH",
"47 72 OFFCURVE",
"119 -7 OFFCURVE",
"211 -7 CURVE SMOOTH",
"270 -7 LINE SMOOTH",
"379 -7 OFFCURVE",
"469 66 OFFCURVE",
"469 178 CURVE",
"402 178 LINE",
"402 103 OFFCURVE",
"343 52 OFFCURVE",
"270 52 CURVE SMOOTH",
"211 52 LINE SMOOTH",
"158 52 OFFCURVE",
"113 111 OFFCURVE",
"113 164 CURVE SMOOTH",
"113 301 LINE SMOOTH",
"113 376 OFFCURVE",
"172 448 OFFCURVE",
"246 448 CURVE SMOOTH",
"304 448 LINE SMOOTH",
"357 448 OFFCURVE",
"401 404 OFFCURVE",
"401 351 CURVE"
);
}
);
width = 514;
}
);
note = c;
unicode = 0063;
},
{
glyphname = d;
lastChange = "2017-12-18 10:26:13 +0000";
layers = (
{
layerId = "0B1DFD06-3317-40CA-B510-4969A0718C16";
paths = (
{
closed = 1;
nodes = (
"402 -3 LINE",
"469 -3 LINE",
"469 700 LINE",
"402 700 LINE",
"402 461 LINE",
"382 486 OFFCURVE",
"364 507 OFFCURVE",
"305 507 CURVE SMOOTH",
"246 507 LINE SMOOTH",
"137 507 OFFCURVE",
"47 413 OFFCURVE",
"47 301 CURVE SMOOTH",
"47 164 LINE SMOOTH",
"47 72 OFFCURVE",
"105 -7 OFFCURVE",
"196 -7 CURVE SMOOTH",
"255 -7 LINE SMOOTH",
"326 -7 OFFCURVE",
"392 49 OFFCURVE",
"402 68 CURVE"
);
},
{
closed = 1;
nodes = (
"402 193 LINE",
"399 121 OFFCURVE",
"326 52 OFFCURVE",
"255 52 CURVE SMOOTH",
"196 52 LINE SMOOTH",
"143 52 OFFCURVE",
"113 111 OFFCURVE",
"113 164 CURVE SMOOTH",
"113 301 LINE SMOOTH",
"113 376 OFFCURVE",
"172 448 OFFCURVE",
"246 448 CURVE SMOOTH",
"305 448 LINE SMOOTH",
"355 448 OFFCURVE",
"398 393 OFFCURVE",
"402 343 CURVE"
);
}
);
width = 522;
}
);
note = d;
unicode = 0064;
},
{
glyphname = e;
lastChange = "2017-12-18 10:26:13 +0000";
layers = (
{
layerId = "0B1DFD06-3317-40CA-B510-4969A0718C16";
paths = (
{
closed = 1;
nodes = (
"113 261 LINE",
"469 261 LINE",
"469 336 LINE SMOOTH",
"469 427 OFFCURVE",
"396 507 OFFCURVE",
"305 507 CURVE SMOOTH",
"246 507 LINE SMOOTH",
"137 507 OFFCURVE",
"47 413 OFFCURVE",
"47 301 CURVE SMOOTH",
"47 164 LINE SMOOTH",
"47 72 OFFCURVE",
"119 -7 OFFCURVE",
"211 -7 CURVE SMOOTH",
"270 -7 LINE SMOOTH",
"379 -7 OFFCURVE",
"469 72 OFFCURVE",
"469 184 CURVE",
"402 184 LINE",
"402 109 OFFCURVE",
"343 52 OFFCURVE",
"270 52 CURVE SMOOTH",
"211 52 LINE SMOOTH",
"158 52 OFFCURVE",
"113 111 OFFCURVE",
"113 164 CURVE SMOOTH"
);
},
{
closed = 1;
nodes = (
"305 448 LINE SMOOTH",
"358 448 OFFCURVE",
"402 389 OFFCURVE",
"402 336 CURVE SMOOTH",
"402 312 LINE",
"113 312 LINE",
"113 388 OFFCURVE",
"172 448 OFFCURVE",
"246 448 CURVE SMOOTH"
);
}
);
width = 516;
}
);
note = e;
unicode = 0065;
},
{
glyphname = f;
lastChange = "2017-12-18 10:26:13 +0000";
layers = (
{
layerId = "0B1DFD06-3317-40CA-B510-4969A0718C16";
paths = (
{
closed = 1;
nodes = (
"125 0 LINE",
"192 0 LINE",
"192 448 LINE",
"283 448 LINE",
"283 500 LINE",
"192 500 LINE",
"193 573 OFFCURVE",
"250 632 OFFCURVE",
"324 632 CURVE",
"324 698 LINE",
"215 698 OFFCURVE",
"127 610 OFFCURVE",
"125 500 CURVE",
"29 500 LINE",
"29 448 LINE",
"125 448 LINE"
);
}
);
width = 312;
}
);
note = f;
unicode = 0066;
},
{
glyphname = g;
lastChange = "2017-12-18 10:26:13 +0000";
layers = (
{
layerId = "0B1DFD06-3317-40CA-B510-4969A0718C16";
paths = (
{
closed = 1;
nodes = (
"402 -9 LINE SMOOTH",
"402 -74 OFFCURVE",
"337 -127 OFFCURVE",
"271 -127 CURVE SMOOTH",
"212 -127 LINE SMOOTH",
"178 -127 OFFCURVE",
"149 -102 OFFCURVE",
"131 -74 CURVE",
"53 -74 LINE",
"75 -137 OFFCURVE",
"136 -183 OFFCURVE",
"208 -183 CURVE SMOOTH",
"267 -183 LINE SMOOTH",
"360 -183 OFFCURVE",
"469 -105 OFFCURVE",
"469 -9 CURVE SMOOTH",
"469 500 LINE",
"402 500 LINE",
"402 461 LINE",
"380 485 OFFCURVE",
"351 507 OFFCURVE",
"305 507 CURVE SMOOTH",
"246 507 LINE SMOOTH",
"137 507 OFFCURVE",
"47 413 OFFCURVE",
"47 301 CURVE SMOOTH",
"47 200 LINE SMOOTH",
"47 109 OFFCURVE",
"119 29 OFFCURVE",
"211 29 CURVE SMOOTH",
"270 29 LINE SMOOTH",
"320 29 OFFCURVE",
"367 55 OFFCURVE",
"402 87 CURVE"
);
},
{
closed = 1;
nodes = (
"402 230 LINE",
"399 158 OFFCURVE",
"340 88 OFFCURVE",
"270 88 CURVE SMOOTH",
"211 88 LINE SMOOTH",
"158 88 OFFCURVE",
"113 147 OFFCURVE",
"113 200 CURVE SMOOTH",
"113 301 LINE SMOOTH",
"113 376 OFFCURVE",
"172 446 OFFCURVE",
"246 446 CURVE SMOOTH",
"305 446 LINE SMOOTH",
"355 446 OFFCURVE",
"398 393 OFFCURVE",
"402 343 CURVE"
);
}
);
width = 522;
}
);
note = g;
unicode = 0067;
},
{
glyphname = h;
lastChange = "2017-12-18 10:26:13 +0000";
layers = (
{
layerId = "0B1DFD06-3317-40CA-B510-4969A0718C16";
paths = (
{
closed = 1;
nodes = (
"407 0 LINE",
"473 0 LINE",
"473 336 LINE SMOOTH",
"473 427 OFFCURVE",
"405 507 OFFCURVE",
"314 507 CURVE SMOOTH",
"255 507 LINE SMOOTH",
"202 507 OFFCURVE",
"155 479 OFFCURVE",
"119 446 CURVE",
"119 700 LINE",
"53 700 LINE",
"53 0 LINE",
"119 0 LINE",
"119 326 LINE",
"130 389 OFFCURVE",
"189 448 OFFCURVE",
"255 448 CURVE SMOOTH",
"314 448 LINE SMOOTH",
"367 448 OFFCURVE",
"407 392 OFFCURVE",
"407 339 CURVE SMOOTH"
);
}
);
width = 526;
}
);
note = h;
unicode = 0068;
},
{
glyphname = i;
lastChange = "2017-12-18 10:26:13 +0000";
layers = (
{
layerId = "0B1DFD06-3317-40CA-B510-4969A0718C16";
paths = (
{
closed = 1;
nodes = (
"88 0 LINE",
"155 0 LINE",
"155 500 LINE",
"88 500 LINE"
);
},
{
closed = 1;
nodes = (
"71 609 OFFCURVE",
"93 586 OFFCURVE",
"122 586 CURVE SMOOTH",
"152 586 OFFCURVE",
"174 609 OFFCURVE",
"174 638 CURVE SMOOTH",
"174 667 OFFCURVE",
"152 690 OFFCURVE",
"122 690 CURVE SMOOTH",
"93 690 OFFCURVE",
"71 667 OFFCURVE",
"71 638 CURVE SMOOTH"
);
}
);
width = 243;
}
);
note = i;
unicode = 0069;
},
{
glyphname = j;
lastChange = "2017-12-18 10:26:13 +0000";
layers = (
{
layerId = "0B1DFD06-3317-40CA-B510-4969A0718C16";
paths = (
{
closed = 1;
nodes = (
"88 0 LINE SMOOTH",
"87 -74 OFFCURVE",
"29 -133 OFFCURVE",
"-44 -133 CURVE SMOOTH",
"-103 -133 LINE",
"-103 -199 LINE",
"-44 -199 LINE SMOOTH",
"65 -199 OFFCURVE",
"155 -111 OFFCURVE",
"155 0 CURVE SMOOTH",
"155 500 LINE",
"88 500 LINE"
);
},
{
closed = 1;
nodes = (
"71 609 OFFCURVE",
"93 586 OFFCURVE",
"122 586 CURVE SMOOTH",
"152 586 OFFCURVE",
"174 609 OFFCURVE",
"174 638 CURVE SMOOTH",
"174 667 OFFCURVE",
"152 690 OFFCURVE",
"122 690 CURVE SMOOTH",
"93 690 OFFCURVE",
"71 667 OFFCURVE",
"71 638 CURVE SMOOTH"
);
}
);
width = 243;
}
);
note = j;
unicode = 006A;
},
{
glyphname = k;
lastChange = "2017-12-18 10:26:13 +0000";
layers = (
{
layerId = "0B1DFD06-3317-40CA-B510-4969A0718C16";
paths = (
{
closed = 1;
nodes = (
"458 500 LINE",
"357 500 LINE",
"119 318 LINE",
"119 700 LINE",
"53 700 LINE",
"53 0 LINE",
"119 0 LINE",
"119 250 LINE",
"149 248 OFFCURVE",
"177 234 OFFCURVE",
"199 212 CURVE SMOOTH",
"404 0 LINE",
"494 0 LINE",
"250 255 LINE SMOOTH",
"236 270 OFFCURVE",
"209 292 OFFCURVE",
"192 298 CURVE"
);
}
);
width = 495;
}
);
note = k;
unicode = 006B;
},
{
glyphname = l;
lastChange = "2017-12-18 10:26:13 +0000";
layers = (
{
layerId = "0B1DFD06-3317-40CA-B510-4969A0718C16";
paths = (
{
closed = 1;
nodes = (
"88 0 LINE",
"155 0 LINE",
"155 700 LINE",
"88 700 LINE"
);
}
);
width = 243;
}
);
note = l;
unicode = 006C;
},
{
glyphname = m;
lastChange = "2017-12-18 10:26:13 +0000";
layers = (
{
layerId = "0B1DFD06-3317-40CA-B510-4969A0718C16";
paths = (
{
closed = 1;
nodes = (
"418 0 LINE",
"418 334 LINE SMOOTH",
"418 401 OFFCURVE",
"488 448 OFFCURVE",
"554 448 CURVE SMOOTH",
"607 448 OFFCURVE",
"651 392 OFFCURVE",
"651 339 CURVE SMOOTH",
"651 0 LINE",
"718 0 LINE",
"718 336 LINE SMOOTH",
"718 427 OFFCURVE",
"645 507 OFFCURVE",
"554 507 CURVE SMOOTH",
"489 507 OFFCURVE",
"426 476 OFFCURVE",
"388 432 CURVE",
"358 473 OFFCURVE",
"309 507 OFFCURVE",
"255 507 CURVE SMOOTH",
"202 507 OFFCURVE",
"155 479 OFFCURVE",
"119 446 CURVE",
"119 500 LINE",
"53 500 LINE",
"53 0 LINE",
"119 0 LINE",
"119 326 LINE SMOOTH",
"119 390 OFFCURVE",
"189 448 OFFCURVE",
"255 448 CURVE SMOOTH",
"308 448 OFFCURVE",
"352 389 OFFCURVE",
"352 336 CURVE SMOOTH",
"352 0 LINE"
);
}
);
width = 771;
}
);
note = m;
unicode = 006D;
},
{
glyphname = n;
lastChange = "2017-12-18 10:26:13 +0000";
layers = (
{
layerId = "0B1DFD06-3317-40CA-B510-4969A0718C16";
paths = (
{
closed = 1;
nodes = (
"411 0 LINE",
"477 0 LINE",
"477 336 LINE SMOOTH",
"477 427 OFFCURVE",
"405 507 OFFCURVE",
"314 507 CURVE SMOOTH",
"255 507 LINE SMOOTH",
"202 507 OFFCURVE",
"155 479 OFFCURVE",
"119 446 CURVE",
"119 500 LINE",
"53 500 LINE",
"53 0 LINE",
"119 0 LINE",
"119 326 LINE",
"130 389 OFFCURVE",
"189 448 OFFCURVE",
"255 448 CURVE SMOOTH",
"314 448 LINE SMOOTH",
"367 448 OFFCURVE",
"411 392 OFFCURVE",
"411 339 CURVE SMOOTH"
);
}
);
width = 530;
}
);
note = n;
unicode = 006E;
},
{
glyphname = o;
lastChange = "2017-12-18 10:26:13 +0000";
layers = (
{
layerId = "0B1DFD06-3317-40CA-B510-4969A0718C16";
paths = (
{
closed = 1;
nodes = (
"469 336 LINE SMOOTH",
"469 427 OFFCURVE",
"396 507 OFFCURVE",
"305 507 CURVE SMOOTH",
"246 507 LINE SMOOTH",
"137 507 OFFCURVE",
"47 413 OFFCURVE",
"47 301 CURVE SMOOTH",
"47 164 LINE SMOOTH",
"47 72 OFFCURVE",
"119 -7 OFFCURVE",
"211 -7 CURVE SMOOTH",
"270 -7 LINE SMOOTH",
"379 -7 OFFCURVE",
"469 87 OFFCURVE",
"469 199 CURVE SMOOTH"
);
},
{
closed = 1;
nodes = (
"402 199 LINE SMOOTH",
"402 124 OFFCURVE",
"343 52 OFFCURVE",
"270 52 CURVE SMOOTH",
"211 52 LINE SMOOTH",
"158 52 OFFCURVE",
"113 111 OFFCURVE",
"113 164 CURVE SMOOTH",
"113 301 LINE SMOOTH",
"113 376 OFFCURVE",
"172 448 OFFCURVE",
"246 448 CURVE SMOOTH",
"305 448 LINE SMOOTH",
"358 448 OFFCURVE",
"402 389 OFFCURVE",
"402 336 CURVE SMOOTH"
);
}
);
width = 516;
}
);
note = o;
unicode = 006F;
},
{
glyphname = p;
lastChange = "2017-12-18 10:26:13 +0000";
layers = (
{
layerId = "0B1DFD06-3317-40CA-B510-4969A0718C16";
paths = (
{
closed = 1;
nodes = (
"53 -184 LINE",
"119 -184 LINE",
"119 38 LINE",
"141 16 OFFCURVE",
"172 -7 OFFCURVE",
"217 -7 CURVE SMOOTH",
"276 -7 LINE SMOOTH",
"385 -7 OFFCURVE",
"474 87 OFFCURVE",
"474 199 CURVE SMOOTH",
"474 336 LINE SMOOTH",
"474 427 OFFCURVE",
"402 507 OFFCURVE",
"311 507 CURVE SMOOTH",
"252 507 LINE SMOOTH",
"193 507 OFFCURVE",
"140 473 OFFCURVE",
"119 442 CURVE",
"119 500 LINE",
"53 500 LINE"
);
},
{
closed = 1;
nodes = (
"408 199 LINE SMOOTH",
"408 124 OFFCURVE",
"349 52 OFFCURVE",
"276 52 CURVE SMOOTH",
"217 52 LINE SMOOTH",
"164 52 OFFCURVE",
"119 111 OFFCURVE",
"119 164 CURVE SMOOTH",
"119 306 LINE SMOOTH",
"119 379 OFFCURVE",
"180 448 OFFCURVE",
"252 448 CURVE SMOOTH",
"311 448 LINE SMOOTH",
"364 448 OFFCURVE",
"408 389 OFFCURVE",
"408 336 CURVE SMOOTH"
);
}
);
width = 522;
}
);
note = p;
unicode = 0070;
},
{
glyphname = q;
lastChange = "2017-12-18 10:26:13 +0000";
layers = (
{
layerId = "0B1DFD06-3317-40CA-B510-4969A0718C16";
paths = (
{
closed = 1;
nodes = (
"402 -184 LINE",
"469 -184 LINE",
"469 500 LINE",
"402 500 LINE",
"402 461 LINE",
"379 485 OFFCURVE",
"354 507 OFFCURVE",
"305 507 CURVE SMOOTH",
"246 507 LINE SMOOTH",
"137 507 OFFCURVE",
"47 413 OFFCURVE",
"47 301 CURVE SMOOTH",
"47 164 LINE SMOOTH",
"47 72 OFFCURVE",
"119 -7 OFFCURVE",
"211 -7 CURVE SMOOTH",
"270 -7 LINE SMOOTH",
"320 -7 OFFCURVE",
"373 24 OFFCURVE",
"402 62 CURVE"
);
},
{
closed = 1;
nodes = (
"402 193 LINE",
"399 121 OFFCURVE",
"340 52 OFFCURVE",
"270 52 CURVE SMOOTH",
"211 52 LINE SMOOTH",
"158 52 OFFCURVE",
"113 111 OFFCURVE",
"113 164 CURVE SMOOTH",
"113 301 LINE SMOOTH",
"113 376 OFFCURVE",
"172 446 OFFCURVE",
"246 446 CURVE SMOOTH",
"305 446 LINE SMOOTH",
"355 446 OFFCURVE",
"398 393 OFFCURVE",
"402 343 CURVE"
);
}
);
width = 522;
}
);
note = q;
unicode = 0071;
},
{
glyphname = r;
lastChange = "2017-12-18 10:26:13 +0000";
layers = (
{
layerId = "0B1DFD06-3317-40CA-B510-4969A0718C16";
paths = (
{
closed = 1;
nodes = (
"55 0 LINE",
"121 0 LINE",
"121 301 LINE SMOOTH",
"121 371 OFFCURVE",
"181 448 OFFCURVE",
"253 448 CURVE SMOOTH",
"312 448 LINE",
"312 507 LINE",
"253 507 LINE SMOOTH",
"202 507 OFFCURVE",
"156 479 OFFCURVE",
"121 448 CURVE",
"121 500 LINE",
"55 500 LINE"
);
}
);
width = 342;
}
);
note = r;
unicode = 0072;
},
{
glyphname = s;
lastChange = "2017-12-18 10:26:13 +0000";
layers = (
{
layerId = "0B1DFD06-3317-40CA-B510-4969A0718C16";
paths = (
{
closed = 1;
nodes = (
"395 215 LINE",
"449 206 OFFCURVE",
"460 174 OFFCURVE",
"460 137 CURVE SMOOTH",
"460 83 OFFCURVE",
"385 52 OFFCURVE",
"349 52 CURVE SMOOTH",
"211 52 LINE SMOOTH",
"158 52 OFFCURVE",
"113 96 OFFCURVE",
"113 149 CURVE",
"47 149 LINE",
"47 57 OFFCURVE",
"119 -7 OFFCURVE",
"211 -7 CURVE SMOOTH",
"349 -7 LINE SMOOTH",
"448 -7 OFFCURVE",
"526 55 OFFCURVE",
"526 139 CURVE SMOOTH",
"526 184 OFFCURVE",
"513 258 OFFCURVE",
"411 274 CURVE",
"202 299 LINE",
"139 309 OFFCURVE",
"137 343 OFFCURVE",
"137 362 CURVE SMOOTH",
"137 418 OFFCURVE",
"212 448 OFFCURVE",
"248 448 CURVE SMOOTH",
"349 448 LINE SMOOTH",
"402 448 OFFCURVE",
"446 404 OFFCURVE",
"446 351 CURVE",
"513 351 LINE",
"513 442 OFFCURVE",
"441 507 OFFCURVE",
"349 507 CURVE SMOOTH",
"248 507 LINE SMOOTH",
"169 507 OFFCURVE",
"71 458 OFFCURVE",
"71 361 CURVE SMOOTH",
"71 315 OFFCURVE",
"85 256 OFFCURVE",
"186 240 CURVE"
);
}
);
width = 560;
}
);
note = s;
unicode = 0073;
},
{
glyphname = t;
lastChange = "2017-12-18 10:26:13 +0000";
layers = (
{
layerId = "0B1DFD06-3317-40CA-B510-4969A0718C16";
paths = (
{
closed = 1;
nodes = (
"125 0 LINE",
"192 0 LINE",
"192 448 LINE",
"283 448 LINE",
"283 500 LINE",
"192 500 LINE",
"192 700 LINE",
"125 700 LINE",
"125 500 LINE",
"29 500 LINE",
"29 448 LINE",
"125 448 LINE"
);
}
);
width = 312;
}
);
note = t;
unicode = 0074;
},
{
glyphname = u;
lastChange = "2017-12-18 10:26:13 +0000";
layers = (
{
layerId = "0B1DFD06-3317-40CA-B510-4969A0718C16";
paths = (
{
closed = 1;
nodes = (
"119 500 LINE",
"53 500 LINE",
"53 164 LINE SMOOTH",
"53 72 OFFCURVE",
"121 -7 OFFCURVE",
"212 -7 CURVE SMOOTH",
"271 -7 LINE SMOOTH",
"324 -7 OFFCURVE",
"380 24 OFFCURVE",
"407 63 CURVE",
"407 0 LINE",
"473 0 LINE",
"473 500 LINE",
"407 500 LINE",
"407 174 LINE",
"396 111 OFFCURVE",
"337 52 OFFCURVE",
"271 52 CURVE SMOOTH",
"212 52 LINE SMOOTH",
"159 52 OFFCURVE",
"119 108 OFFCURVE",
"119 161 CURVE SMOOTH"
);
}
);
width = 526;
}
);
note = u;
unicode = 0075;
},
{
glyphname = v;
lastChange = "2017-12-18 10:26:13 +0000";
layers = (
{
layerId = "0B1DFD06-3317-40CA-B510-4969A0718C16";
paths = (
{
closed = 1;
nodes = (
"485 500 LINE",
"416 500 LINE",
"256 71 LINE",
"99 500 LINE",
"29 500 LINE",
"196 46 LINE",
"212 10 OFFCURVE",
"252 -7 OFFCURVE",
"293 -7 CURVE"
);
}
);
width = 514;
}
);
note = v;
unicode = 0076;
},
{
glyphname = w;
lastChange = "2017-12-18 10:26:13 +0000";
layers = (
{
layerId = "0B1DFD06-3317-40CA-B510-4969A0718C16";
paths = (
{
closed = 1;
nodes = (
"557 -7 LINE",
"588 -7 OFFCURVE",
"617 6 OFFCURVE",
"628 34 CURVE SMOOTH",
"797 500 LINE",
"726 500 LINE",
"584 78 LINE",
"457 466 LINE",
"446 494 OFFCURVE",
"417 508 OFFCURVE",
"386 508 CURVE",
"243 78 LINE",
"100 500 LINE",
"29 500 LINE",
"200 34 LINE SMOOTH",
"211 7 OFFCURVE",
"239 -7 OFFCURVE",
"270 -7 CURVE",
"413 413 LINE"
);
}
);
width = 827;
}
);
note = w;
unicode = 0077;
},
{
glyphname = x;
lastChange = "2017-12-18 10:26:13 +0000";
layers = (
{
layerId = "0B1DFD06-3317-40CA-B510-4969A0718C16";
paths = (
{
closed = 1;
nodes = (
"274 314 LINE",
"130 500 LINE",
"47 500 LINE",
"230 264 LINE",
"21 0 LINE",
"105 0 LINE",
"274 214 LINE",
"445 0 LINE",
"529 0 LINE",
"318 264 LINE",
"502 500 LINE",
"420 500 LINE"
);
}
);
width = 550;
}
);
note = x;
unicode = 0078;
},
{
glyphname = y;
lastChange = "2017-12-18 10:26:13 +0000";
layers = (
{
layerId = "0B1DFD06-3317-40CA-B510-4969A0718C16";
paths = (
{
closed = 1;
nodes = (
"57 -74 LINE",
"80 -137 OFFCURVE",
"140 -183 OFFCURVE",
"212 -183 CURVE SMOOTH",
"271 -183 LINE SMOOTH",
"364 -183 OFFCURVE",
"473 -105 OFFCURVE",
"473 -9 CURVE SMOOTH",
"473 500 LINE",
"407 500 LINE",
"407 211 LINE",
"396 147 OFFCURVE",
"337 90 OFFCURVE",
"271 90 CURVE SMOOTH",
"212 90 LINE SMOOTH",
"159 90 OFFCURVE",
"119 144 OFFCURVE",
"119 197 CURVE SMOOTH",
"119 500 LINE",
"53 500 LINE",
"53 200 LINE SMOOTH",
"53 109 OFFCURVE",
"121 29 OFFCURVE",
"212 29 CURVE SMOOTH",
"271 29 LINE SMOOTH",
"324 29 OFFCURVE",
"371 57 OFFCURVE",
"407 90 CURVE",
"407 -9 LINE SMOOTH",
"407 -74 OFFCURVE",
"342 -127 OFFCURVE",
"276 -127 CURVE SMOOTH",
"217 -127 LINE SMOOTH",
"183 -127 OFFCURVE",
"153 -102 OFFCURVE",
"136 -74 CURVE"
);
}
);
width = 528;
}
);
note = y;
unicode = 0079;
},
{
glyphname = z;
lastChange = "2017-12-18 10:26:13 +0000";
layers = (
{
layerId = "0B1DFD06-3317-40CA-B510-4969A0718C16";
paths = (
{
closed = 1;
nodes = (
"495 52 LINE",
"172 52 LINE",
"505 500 LINE",
"62 500 LINE",
"62 448 LINE",
"379 448 LINE",
"47 0 LINE",
"495 0 LINE"
);
}
);
width = 553;
}
);
note = z;
unicode = 007A;
},
{
glyphname = AE;
lastChange = "2017-12-19 03:42:34 +0000";
layers = (
{
layerId = "0B1DFD06-3317-40CA-B510-4969A0718C16";
paths = (
{
closed = 1;
nodes = (
"25 0 LINE",
"99 0 LINE",
"184 196 LINE",
"452 196 LINE",
"497 0 LINE",
"905 0 LINE",
"905 59 LINE",
"550 59 LINE",
"488 336 LINE",
"833 336 LINE",
"833 395 LINE",
"474 395 LINE",
"418 641 LINE",
"771 641 LINE",
"771 700 LINE",
"365 700 LINE SMOOTH",
"358 700 OFFCURVE",
"348 701 OFFCURVE",
"336 701 CURVE"
);
},
{
closed = 1;
nodes = (
"357 619 LINE",
"439 255 LINE",
"209 255 LINE"
);
}
);
width = 934;
}
);
note = AE;
unicode = 00C6;
},
{
glyphname = Eth;
lastChange = "2017-12-19 03:42:34 +0000";
layers = (
{
layerId = "0B1DFD06-3317-40CA-B510-4969A0718C16";
paths = (
{
closed = 1;
nodes = (
"197 641 LINE",
"491 641 LINE SMOOTH",
"582 641 OFFCURVE",
"654 561 OFFCURVE",
"654 470 CURVE SMOOTH",
"654 280 LINE SMOOTH",
"654 159 OFFCURVE",
"557 59 OFFCURVE",
"442 59 CURVE SMOOTH",
"197 59 LINE",
"197 327 LINE",
"445 327 LINE",
"445 389 LINE",
"197 389 LINE"
);
},
{
closed = 1;
nodes = (
"131 65 LINE SMOOTH",
"131 31 OFFCURVE",
"159 0 OFFCURVE",
"193 0 CURVE SMOOTH",
"442 0 LINE SMOOTH",
"594 0 OFFCURVE",
"721 122 OFFCURVE",
"721 280 CURVE SMOOTH",
"721 470 LINE SMOOTH",
"721 598 OFFCURVE",
"619 700 OFFCURVE",
"491 700 CURVE SMOOTH",
"131 700 LINE",
"131 389 LINE",
"65 389 LINE",
"65 327 LINE",
"131 327 LINE"
);
}
);
width = 785;
}
);
note = Eth;
unicode = 00D0;
},
{
glyphname = Dcroat;
lastChange = "2017-12-19 03:42:34 +0000";
layers = (
{
layerId = "0B1DFD06-3317-40CA-B510-4969A0718C16";
paths = (
{
closed = 1;
nodes = (
"197 641 LINE",
"491 641 LINE SMOOTH",
"582 641 OFFCURVE",
"654 561 OFFCURVE",
"654 470 CURVE SMOOTH",
"654 280 LINE SMOOTH",
"654 159 OFFCURVE",
"557 59 OFFCURVE",
"442 59 CURVE SMOOTH",
"197 59 LINE",
"197 327 LINE",
"445 327 LINE",
"445 389 LINE",
"197 389 LINE"
);
},
{
closed = 1;
nodes = (
"131 65 LINE SMOOTH",
"131 31 OFFCURVE",
"159 0 OFFCURVE",
"193 0 CURVE SMOOTH",
"442 0 LINE SMOOTH",
"594 0 OFFCURVE",
"721 122 OFFCURVE",
"721 280 CURVE SMOOTH",
"721 470 LINE SMOOTH",
"721 598 OFFCURVE",
"619 700 OFFCURVE",
"491 700 CURVE SMOOTH",
"131 700 LINE",
"131 389 LINE",
"65 389 LINE",
"65 327 LINE",
"131 327 LINE"
);
}
);
width = 785;
}
);
note = Dcroat;
rightKerningGroup = D;
unicode = 0110;
},
{
glyphname = Eacute;
lastChange = "2017-12-19 03:42:34 +0000";
layers = (
{
background = {
paths = (
{
closed = 1;
nodes = (
"554 0 LINE",
"571 179 LINE",
"544 179 LINE",
"538 124 OFFCURVE",
"520 40 OFFCURVE",
"456 40 CURVE SMOOTH",
"201 40 LINE",
"201 659 LINE",
"441 659 LINE SMOOTH",
"516 659 OFFCURVE",
"525 567 OFFCURVE",
"528 527 CURVE",
"555 527 LINE",
"555 700 LINE",
"16 700 LINE",
"16 673 LINE",
"44 673 LINE SMOOTH",
"83 673 OFFCURVE",
"103 662 OFFCURVE",
"103 637 CURVE SMOOTH",
"103 62 LINE SMOOTH",
"103 37 OFFCURVE",
"83 26 OFFCURVE",
"44 26 CURVE SMOOTH",
"16 26 LINE",
"16 0 LINE"
);
},
{
closed = 1;
nodes = (
"455 251 LINE",
"455 485 LINE",
"431 485 LINE",
"427 436 OFFCURVE",
"424 388 OFFCURVE",
"379 388 CURVE SMOOTH",
"162 388 LINE",
"162 348 LINE",
"379 348 LINE SMOOTH",
"424 348 OFFCURVE",
"427 300 OFFCURVE",
"431 251 CURVE"
);
},
{
closed = 1;
nodes = (
"398 865 LINE SMOOTH",
"420 877 OFFCURVE",
"432 890 OFFCURVE",
"432 907 CURVE SMOOTH",
"432 922 OFFCURVE",
"420 937 OFFCURVE",
"398 937 CURVE SMOOTH",
"377 937 OFFCURVE",
"362 921 OFFCURVE",
"354 914 CURVE SMOOTH",
"239 807 LINE",
"256 782 LINE"
);
}
);
};
components = (
{
name = E;
},
{
name = acute;
transform = "{1, 0, 0, 1, 56, 230}";
}
);
layerId = "0B1DFD06-3317-40CA-B510-4969A0718C16";
width = 607;
}
);
note = Eacute;
unicode = 00C9;
},
{
glyphname = Ebreve;
lastChange = "2017-12-19 03:42:34 +0000";
layers = (
{
background = {
paths = (
{
closed = 1;
nodes = (
"554 0 LINE",
"571 179 LINE",
"544 179 LINE",
"538 124 OFFCURVE",
"520 40 OFFCURVE",
"456 40 CURVE SMOOTH",
"201 40 LINE",
"201 659 LINE",
"441 659 LINE SMOOTH",
"516 659 OFFCURVE",
"525 567 OFFCURVE",
"528 527 CURVE",
"555 527 LINE",
"555 700 LINE",
"16 700 LINE",
"16 673 LINE",
"44 673 LINE SMOOTH",
"83 673 OFFCURVE",
"103 662 OFFCURVE",
"103 637 CURVE SMOOTH",
"103 62 LINE SMOOTH",
"103 37 OFFCURVE",
"83 26 OFFCURVE",
"44 26 CURVE SMOOTH",
"16 26 LINE",
"16 0 LINE"
);
},
{
closed = 1;
nodes = (
"455 251 LINE",
"455 485 LINE",
"431 485 LINE",
"427 436 OFFCURVE",
"424 388 OFFCURVE",
"379 388 CURVE SMOOTH",
"162 388 LINE",
"162 348 LINE",
"379 348 LINE SMOOTH",
"424 348 OFFCURVE",
"427 300 OFFCURVE",
"431 251 CURVE"
);
},
{
closed = 1;
nodes = (
"432 776 OFFCURVE",
"474 832 OFFCURVE",
"478 907 CURVE",
"445 907 LINE",
"439 848 OFFCURVE",
"397 822 OFFCURVE",
"333 822 CURVE SMOOTH",
"269 822 OFFCURVE",
"226 848 OFFCURVE",
"219 907 CURVE",
"186 907 LINE",
"190 829 OFFCURVE",
"232 776 OFFCURVE",
"333 776 CURVE SMOOTH"
);
}
);
};
components = (
{
name = E;
},
{
name = breve;
transform = "{1, 0, 0, 1, 68, 230}";
}
);
layerId = "0B1DFD06-3317-40CA-B510-4969A0718C16";
width = 607;
}
);
note = Ebreve;
unicode = 0114;
},
{
glyphname = Ecaron;
lastChange = "2017-12-19 03:42:34 +0000";
layers = (
{
background = {
paths = (
{
closed = 1;
nodes = (
"554 0 LINE",
"571 179 LINE",
"544 179 LINE",
"538 124 OFFCURVE",
"520 40 OFFCURVE",
"456 40 CURVE SMOOTH",
"201 40 LINE",
"201 659 LINE",
"441 659 LINE SMOOTH",
"516 659 OFFCURVE",
"525 567 OFFCURVE",
"528 527 CURVE",
"555 527 LINE",
"555 700 LINE",
"16 700 LINE",
"16 673 LINE",
"44 673 LINE SMOOTH",
"83 673 OFFCURVE",
"103 662 OFFCURVE",
"103 637 CURVE SMOOTH",
"103 62 LINE SMOOTH",
"103 37 OFFCURVE",
"83 26 OFFCURVE",
"44 26 CURVE SMOOTH",
"16 26 LINE",
"16 0 LINE"
);
},
{
closed = 1;
nodes = (
"455 251 LINE",
"455 485 LINE",
"431 485 LINE",
"427 436 OFFCURVE",
"424 388 OFFCURVE",
"379 388 CURVE SMOOTH",
"162 388 LINE",
"162 348 LINE",
"379 348 LINE SMOOTH",
"424 348 OFFCURVE",
"427 300 OFFCURVE",
"431 251 CURVE"
);
},
{
closed = 1;
nodes = (
"357 782 LINE",
"481 911 LINE",
"462 932 LINE",
"354 847 LINE",
"346 840 OFFCURVE",
"337 836 OFFCURVE",
"331 836 CURVE SMOOTH",
"325 836 OFFCURVE",
"317 840 OFFCURVE",
"307 847 CURVE",
"199 932 LINE",
"180 911 LINE",
"304 782 LINE"
);
}
);
};
components = (
{
name = E;
},
{
name = caron;
transform = "{1, 0, 0, 1, 68, 230}";
}
);
layerId = "0B1DFD06-3317-40CA-B510-4969A0718C16";
width = 607;
}
);
note = Ecaron;
unicode = 011A;
},
{
glyphname = Ecircumflex;
lastChange = "2017-12-19 03:42:34 +0000";
layers = (
{
background = {
paths = (
{
closed = 1;
nodes = (
"554 0 LINE",
"571 179 LINE",
"544 179 LINE",
"538 124 OFFCURVE",
"520 40 OFFCURVE",
"456 40 CURVE SMOOTH",
"201 40 LINE",
"201 659 LINE",
"441 659 LINE SMOOTH",
"516 659 OFFCURVE",
"525 567 OFFCURVE",
"528 527 CURVE",
"555 527 LINE",
"555 700 LINE",
"16 700 LINE",
"16 673 LINE",
"44 673 LINE SMOOTH",
"83 673 OFFCURVE",
"103 662 OFFCURVE",
"103 637 CURVE SMOOTH",
"103 62 LINE SMOOTH",
"103 37 OFFCURVE",
"83 26 OFFCURVE",
"44 26 CURVE SMOOTH",
"16 26 LINE",
"16 0 LINE"
);
},
{
closed = 1;
nodes = (
"455 251 LINE",
"455 485 LINE",
"431 485 LINE",
"427 436 OFFCURVE",
"424 388 OFFCURVE",
"379 388 CURVE SMOOTH",
"162 388 LINE",
"162 348 LINE",
"379 348 LINE SMOOTH",
"424 348 OFFCURVE",
"427 300 OFFCURVE",
"431 251 CURVE"
);
},
{
closed = 1;
nodes = (
"304 868 LINE SMOOTH",
"312 874 OFFCURVE",
"322 879 OFFCURVE",
"328 879 CURVE SMOOTH",
"334 879 OFFCURVE",
"342 874 OFFCURVE",
"351 868 CURVE",
"459 782 LINE",
"478 803 LINE",
"354 932 LINE",
"301 932 LINE",
"177 803 LINE",
"196 782 LINE"
);
}
);
};
components = (
{
name = E;
},
{
name = circumflex;
transform = "{1, 0, 0, 1, 68, 230}";
}
);
layerId = "0B1DFD06-3317-40CA-B510-4969A0718C16";
width = 607;
}
);
note = Ecircumflex;
unicode = 00CA;
},
{
glyphname = Ecircumflexacute;
lastChange = "2017-12-19 03:42:34 +0000";
layers = (
{
background = {
paths = (
{
closed = 1;
nodes = (
"554 0 LINE",
"571 179 LINE",
"544 179 LINE",
"538 124 OFFCURVE",
"520 40 OFFCURVE",
"456 40 CURVE SMOOTH",
"201 40 LINE",
"201 659 LINE",
"441 659 LINE SMOOTH",
"516 659 OFFCURVE",
"525 567 OFFCURVE",
"528 527 CURVE",
"555 527 LINE",
"555 700 LINE",
"16 700 LINE",
"16 673 LINE",
"44 673 LINE SMOOTH",
"83 673 OFFCURVE",
"103 662 OFFCURVE",
"103 637 CURVE SMOOTH",
"103 62 LINE SMOOTH",
"103 37 OFFCURVE",
"83 26 OFFCURVE",
"44 26 CURVE SMOOTH",
"16 26 LINE",
"16 0 LINE"
);
},
{
closed = 1;
nodes = (
"455 251 LINE",
"455 485 LINE",
"431 485 LINE",
"427 436 OFFCURVE",
"424 388 OFFCURVE",
"379 388 CURVE SMOOTH",
"162 388 LINE",
"162 348 LINE",
"379 348 LINE SMOOTH",
"424 348 OFFCURVE",
"427 300 OFFCURVE",
"431 251 CURVE"
);
},
{
closed = 1;
nodes = (
"290 862 LINE SMOOTH",
"300 870 OFFCURVE",
"310 878 OFFCURVE",
"318 878 CURVE SMOOTH",
"324 878 OFFCURVE",
"332 873 OFFCURVE",
"341 867 CURVE",
"447 781 LINE",
"466 803 LINE",
"344 932 LINE",
"293 932 LINE",
"171 803 LINE",
"189 781 LINE"
);
},
{
closed = 1;
nodes = (
"555 960 LINE SMOOTH",
"578 972 OFFCURVE",
"591 988 OFFCURVE",
"591 1003 CURVE SMOOTH",
"591 1017 OFFCURVE",
"580 1034 OFFCURVE",
"557 1034 CURVE SMOOTH",
"538 1034 OFFCURVE",
"521 1018 OFFCURVE",
"511 1008 CURVE SMOOTH",
"415 915 LINE",
"433 893 LINE"
);
}
);
};
components = (
{
name = E;
},
{
name = circumflexacute;
transform = "{1, 0, 0, 1, 564, 230}";
}
);
layerId = "0B1DFD06-3317-40CA-B510-4969A0718C16";
width = 607;
}
);
note = Ecircumflexacute;
unicode = 1EBE;
},
{
glyphname = Ecircumflexdotbelow;
lastChange = "2017-12-19 03:42:34 +0000";
layers = (
{
background = {
paths = (
{
closed = 1;
nodes = (
"554 0 LINE",
"571 179 LINE",
"544 179 LINE",
"538 124 OFFCURVE",
"520 40 OFFCURVE",
"456 40 CURVE SMOOTH",
"201 40 LINE",
"201 659 LINE",
"441 659 LINE SMOOTH",
"516 659 OFFCURVE",
"525 567 OFFCURVE",
"528 527 CURVE",
"555 527 LINE",
"555 700 LINE",
"16 700 LINE",
"16 673 LINE",
"44 673 LINE SMOOTH",
"83 673 OFFCURVE",
"103 662 OFFCURVE",
"103 637 CURVE SMOOTH",
"103 62 LINE SMOOTH",
"103 37 OFFCURVE",
"83 26 OFFCURVE",
"44 26 CURVE SMOOTH",
"16 26 LINE",
"16 0 LINE"
);
},
{
closed = 1;
nodes = (
"350 -159 OFFCURVE",
"368 -140 OFFCURVE",
"368 -112 CURVE SMOOTH",
"368 -84 OFFCURVE",
"350 -64 OFFCURVE",
"322 -64 CURVE SMOOTH",
"294 -64 OFFCURVE",
"275 -84 OFFCURVE",
"275 -112 CURVE SMOOTH",
"275 -140 OFFCURVE",
"294 -159 OFFCURVE",
"322 -159 CURVE SMOOTH"
);
},
{
closed = 1;
nodes = (
"455 251 LINE",
"455 485 LINE",
"431 485 LINE",
"427 436 OFFCURVE",
"424 388 OFFCURVE",
"379 388 CURVE SMOOTH",
"162 388 LINE",
"162 348 LINE",
"379 348 LINE SMOOTH",
"424 348 OFFCURVE",
"427 300 OFFCURVE",
"431 251 CURVE"
);
},
{
closed = 1;
nodes = (
"294 868 LINE SMOOTH",
"302 874 OFFCURVE",
"312 879 OFFCURVE",
"318 879 CURVE SMOOTH",
"324 879 OFFCURVE",
"332 874 OFFCURVE",
"341 868 CURVE",
"449 782 LINE",
"468 803 LINE",
"344 932 LINE",
"291 932 LINE",
"167 803 LINE",
"186 782 LINE"
);
}
);
};
components = (
{
name = E;
},
{
name = dotbelowcomb;
transform = "{1, 0, 0, 1, 565, 0}";
},
{
name = circumflex;
transform = "{1, 0, 0, 1, 68, 230}";
}
);
layerId = "0B1DFD06-3317-40CA-B510-4969A0718C16";
width = 607;
}
);
note = Ecircumflexdotbelow;
unicode = 1EC6;
},
{
glyphname = Ecircumflexgrave;
lastChange = "2017-12-19 03:42:34 +0000";
layers = (
{
background = {
paths = (
{
closed = 1;
nodes = (
"554 0 LINE",
"571 179 LINE",
"544 179 LINE",
"538 124 OFFCURVE",
"520 40 OFFCURVE",
"456 40 CURVE SMOOTH",
"201 40 LINE",
"201 659 LINE",
"441 659 LINE SMOOTH",
"516 659 OFFCURVE",
"525 567 OFFCURVE",
"528 527 CURVE",
"555 527 LINE",
"555 700 LINE",
"16 700 LINE",
"16 673 LINE",
"44 673 LINE SMOOTH",
"83 673 OFFCURVE",
"103 662 OFFCURVE",
"103 637 CURVE SMOOTH",
"103 62 LINE SMOOTH",
"103 37 OFFCURVE",
"83 26 OFFCURVE",
"44 26 CURVE SMOOTH",
"16 26 LINE",
"16 0 LINE"
);
},
{
closed = 1;
nodes = (
"455 251 LINE",
"455 485 LINE",
"431 485 LINE",
"427 436 OFFCURVE",
"424 388 OFFCURVE",
"379 388 CURVE SMOOTH",
"162 388 LINE",
"162 348 LINE",
"379 348 LINE SMOOTH",
"424 348 OFFCURVE",
"427 300 OFFCURVE",
"431 251 CURVE"
);
},
{
closed = 1;
nodes = (
"227 915 LINE",
"132 1008 LINE SMOOTH",
"122 1018 OFFCURVE",
"105 1034 OFFCURVE",
"85 1034 CURVE SMOOTH",
"63 1034 OFFCURVE",
"52 1017 OFFCURVE",
"52 1003 CURVE SMOOTH",
"52 988 OFFCURVE",
"65 972 OFFCURVE",
"88 960 CURVE SMOOTH",
"210 893 LINE"
);
},
{
closed = 1;
nodes = (
"290 862 LINE SMOOTH",
"300 870 OFFCURVE",
"310 878 OFFCURVE",
"318 878 CURVE SMOOTH",
"324 878 OFFCURVE",
"332 873 OFFCURVE",
"341 867 CURVE",
"447 781 LINE",
"466 803 LINE",
"344 932 LINE",
"293 932 LINE",
"171 803 LINE",
"189 781 LINE"
);
}
);
};
components = (
{
name = E;
},
{
name = circumflexgrave;
transform = "{1, 0, 0, 1, 564, 230}";
}
);
layerId = "0B1DFD06-3317-40CA-B510-4969A0718C16";
width = 607;
}
);
note = Ecircumflexgrave;
unicode = 1EC0;
},
{
glyphname = Ecircumflexhookabove;
lastChange = "2017-12-19 03:42:34 +0000";
layers = (
{
background = {
paths = (
{
closed = 1;
nodes = (
"554 0 LINE",
"571 179 LINE",
"544 179 LINE",
"538 124 OFFCURVE",
"520 40 OFFCURVE",
"456 40 CURVE SMOOTH",
"201 40 LINE",
"201 659 LINE",
"441 659 LINE SMOOTH",
"516 659 OFFCURVE",
"525 567 OFFCURVE",
"528 527 CURVE",
"555 527 LINE",
"555 700 LINE",
"16 700 LINE",
"16 673 LINE",
"44 673 LINE SMOOTH",
"83 673 OFFCURVE",
"103 662 OFFCURVE",
"103 637 CURVE SMOOTH",
"103 62 LINE SMOOTH",
"103 37 OFFCURVE",
"83 26 OFFCURVE",
"44 26 CURVE SMOOTH",
"16 26 LINE",
"16 0 LINE"
);
},
{
closed = 1;
nodes = (
"455 251 LINE",
"455 485 LINE",
"431 485 LINE",
"427 436 OFFCURVE",
"424 388 OFFCURVE",
"379 388 CURVE SMOOTH",
"162 388 LINE",
"162 348 LINE",
"379 348 LINE SMOOTH",
"424 348 OFFCURVE",
"427 300 OFFCURVE",
"431 251 CURVE"
);
},
{
closed = 1;
nodes = (
"286 858 LINE",
"297 868 OFFCURVE",
"309 878 OFFCURVE",
"318 878 CURVE SMOOTH",
"324 878 OFFCURVE",
"332 873 OFFCURVE",
"341 867 CURVE",
"447 781 LINE",
"466 803 LINE",
"344 932 LINE",
"293 932 LINE",
"171 803 LINE",
"189 781 LINE"
);
},
{
closed = 1;
nodes = (
"493 898 LINE",
"474 905 OFFCURVE",
"464 912 OFFCURVE",
"464 926 CURVE SMOOTH",
"464 954 OFFCURVE",
"544 965 OFFCURVE",
"544 1010 CURVE SMOOTH",
"544 1047 OFFCURVE",
"502 1063 OFFCURVE",
"460 1063 CURVE SMOOTH",
"429 1063 OFFCURVE",
"384 1053 OFFCURVE",
"384 1022 CURVE SMOOTH",
"384 1010 OFFCURVE",
"395 1001 OFFCURVE",
"405 1001 CURVE SMOOTH",
"434 1001 OFFCURVE",
"421 1040 OFFCURVE",
"464 1040 CURVE SMOOTH",
"483 1040 OFFCURVE",
"494 1028 OFFCURVE",
"494 1013 CURVE SMOOTH",
"494 973 OFFCURVE",
"421 965 OFFCURVE",
"421 925 CURVE SMOOTH",
"421 901 OFFCURVE",
"437 880 OFFCURVE",
"484 880 CURVE"
);
}
);
};
components = (
{
name = E;
},
{
name = circumflexhookabove;
transform = "{1, 0, 0, 1, 564, 230}";
}
);
layerId = "0B1DFD06-3317-40CA-B510-4969A0718C16";
width = 607;
}
);
note = Ecircumflexhookabove;
unicode = 1EC2;
},
{
glyphname = Ecircumflextilde;
lastChange = "2017-12-19 03:42:34 +0000";
layers = (
{
background = {
paths = (
{
closed = 1;
nodes = (
"554 0 LINE",
"571 179 LINE",
"544 179 LINE",
"538 124 OFFCURVE",
"520 40 OFFCURVE",
"456 40 CURVE SMOOTH",
"201 40 LINE",
"201 659 LINE",
"441 659 LINE SMOOTH",
"516 659 OFFCURVE",
"525 567 OFFCURVE",
"528 527 CURVE",
"555 527 LINE",
"555 700 LINE",
"16 700 LINE",
"16 673 LINE",
"44 673 LINE SMOOTH",
"83 673 OFFCURVE",
"103 662 OFFCURVE",
"103 637 CURVE SMOOTH",
"103 62 LINE SMOOTH",
"103 37 OFFCURVE",
"83 26 OFFCURVE",
"44 26 CURVE SMOOTH",
"16 26 LINE",
"16 0 LINE"
);
},
{
closed = 1;
nodes = (
"455 251 LINE",
"455 485 LINE",
"431 485 LINE",
"427 436 OFFCURVE",
"424 388 OFFCURVE",
"379 388 CURVE SMOOTH",
"162 388 LINE",
"162 348 LINE",
"379 348 LINE SMOOTH",
"424 348 OFFCURVE",
"427 300 OFFCURVE",
"431 251 CURVE"
);
},
{
closed = 1;
nodes = (
"290 862 LINE SMOOTH",
"300 870 OFFCURVE",
"310 878 OFFCURVE",
"318 878 CURVE SMOOTH",
"324 878 OFFCURVE",
"332 873 OFFCURVE",
"341 867 CURVE",
"447 781 LINE",
"466 803 LINE",
"344 932 LINE",
"293 932 LINE",
"171 803 LINE",
"189 781 LINE"
);
},
{
closed = 1;
nodes = (
"193 997 OFFCURVE",
"211 1018 OFFCURVE",
"242 1018 CURVE SMOOTH",
"291 1018 OFFCURVE",
"338 964 OFFCURVE",
"387 964 CURVE SMOOTH",
"440 964 OFFCURVE",
"469 1012 OFFCURVE",
"481 1063 CURVE",
"460 1075 LINE",
"447 1035 OFFCURVE",
"431 1012 OFFCURVE",
"398 1012 CURVE SMOOTH",
"351 1012 OFFCURVE",
"302 1065 OFFCURVE",
"253 1065 CURVE SMOOTH",
"202 1065 OFFCURVE",
"170 1021 OFFCURVE",
"160 970 CURVE",
"180 958 LINE"
);
}
);
};
components = (
{
name = E;
},
{
name = circumflextilde;
transform = "{1, 0, 0, 1, 564, 230}";
}
);
layerId = "0B1DFD06-3317-40CA-B510-4969A0718C16";
width = 607;
}
);
note = Ecircumflextilde;
unicode = 1EC4;
},
{
glyphname = Edieresis;
lastChange = "2017-12-19 03:42:34 +0000";
layers = (
{
background = {
paths = (
{
closed = 1;
nodes = (
"554 0 LINE",
"571 179 LINE",
"544 179 LINE",
"538 124 OFFCURVE",
"520 40 OFFCURVE",
"456 40 CURVE SMOOTH",
"201 40 LINE",
"201 659 LINE",
"441 659 LINE SMOOTH",
"516 659 OFFCURVE",
"525 567 OFFCURVE",
"528 527 CURVE",
"555 527 LINE",
"555 700 LINE",
"16 700 LINE",
"16 673 LINE",
"44 673 LINE SMOOTH",
"83 673 OFFCURVE",
"103 662 OFFCURVE",
"103 637 CURVE SMOOTH",
"103 62 LINE SMOOTH",
"103 37 OFFCURVE",
"83 26 OFFCURVE",
"44 26 CURVE SMOOTH",
"16 26 LINE",
"16 0 LINE"
);
},
{
closed = 1;
nodes = (
"455 251 LINE",
"455 485 LINE",
"431 485 LINE",
"427 436 OFFCURVE",
"424 388 OFFCURVE",
"379 388 CURVE SMOOTH",
"162 388 LINE",
"162 348 LINE",
"379 348 LINE SMOOTH",
"424 348 OFFCURVE",
"427 300 OFFCURVE",
"431 251 CURVE"
);
},
{
closed = 1;
nodes = (
"254 781 OFFCURVE",
"272 800 OFFCURVE",
"272 827 CURVE SMOOTH",
"272 855 OFFCURVE",
"254 875 OFFCURVE",
"225 875 CURVE SMOOTH",
"197 875 OFFCURVE",
"179 855 OFFCURVE",
"179 827 CURVE SMOOTH",
"179 800 OFFCURVE",
"197 781 OFFCURVE",
"225 781 CURVE SMOOTH"
);
},
{
closed = 1;
nodes = (
"470 781 OFFCURVE",
"488 800 OFFCURVE",
"488 827 CURVE SMOOTH",
"488 855 OFFCURVE",
"470 875 OFFCURVE",
"441 875 CURVE SMOOTH",
"412 875 OFFCURVE",
"394 855 OFFCURVE",
"394 827 CURVE SMOOTH",
"394 800 OFFCURVE",
"412 781 OFFCURVE",
"441 781 CURVE SMOOTH"
);
}
);
};
components = (
{
name = E;
},
{
name = dieresis;
transform = "{1, 0, 0, 1, 68, 230}";
}
);
layerId = "0B1DFD06-3317-40CA-B510-4969A0718C16";
width = 607;
}
);
note = Edieresis;
unicode = 00CB;
},
{
glyphname = Edotaccent;
lastChange = "2017-12-19 03:42:34 +0000";
layers = (
{
background = {
paths = (
{
closed = 1;
nodes = (
"554 0 LINE",
"571 179 LINE",
"544 179 LINE",
"538 124 OFFCURVE",
"520 40 OFFCURVE",
"456 40 CURVE SMOOTH",
"201 40 LINE",
"201 659 LINE",
"441 659 LINE SMOOTH",
"516 659 OFFCURVE",
"525 567 OFFCURVE",
"528 527 CURVE",
"555 527 LINE",
"555 700 LINE",
"16 700 LINE",
"16 673 LINE",
"44 673 LINE SMOOTH",
"83 673 OFFCURVE",
"103 662 OFFCURVE",
"103 637 CURVE SMOOTH",
"103 62 LINE SMOOTH",
"103 37 OFFCURVE",
"83 26 OFFCURVE",
"44 26 CURVE SMOOTH",
"16 26 LINE",
"16 0 LINE"
);
},
{
closed = 1;
nodes = (
"455 251 LINE",
"455 485 LINE",
"431 485 LINE",
"427 436 OFFCURVE",
"424 388 OFFCURVE",
"379 388 CURVE SMOOTH",
"162 388 LINE",
"162 348 LINE",
"379 348 LINE SMOOTH",
"424 348 OFFCURVE",
"427 300 OFFCURVE",
"431 251 CURVE"
);
},
{
closed = 1;
nodes = (
"362 765 OFFCURVE",
"380 784 OFFCURVE",
"380 811 CURVE SMOOTH",
"380 839 OFFCURVE",
"362 858 OFFCURVE",
"334 858 CURVE SMOOTH",
"305 858 OFFCURVE",
"287 839 OFFCURVE",
"287 811 CURVE SMOOTH",
"287 784 OFFCURVE",
"305 765 OFFCURVE",
"334 765 CURVE SMOOTH"
);
}
);
};
components = (
{
name = E;
},
{
name = dotaccent;
transform = "{1, 0, 0, 1, 68, 230}";
}
);
layerId = "0B1DFD06-3317-40CA-B510-4969A0718C16";
width = 607;
}
);
note = Edotaccent;
unicode = 0116;
},
{
glyphname = Edotbelow;
lastChange = "2017-12-19 03:42:34 +0000";
layers = (
{
background = {
paths = (
{
closed = 1;
nodes = (
"554 0 LINE",
"571 179 LINE",
"544 179 LINE",
"538 124 OFFCURVE",
"520 40 OFFCURVE",
"456 40 CURVE SMOOTH",
"201 40 LINE",
"201 659 LINE",
"441 659 LINE SMOOTH",
"516 659 OFFCURVE",
"525 567 OFFCURVE",
"528 527 CURVE",
"555 527 LINE",
"555 700 LINE",
"16 700 LINE",
"16 673 LINE",
"44 673 LINE SMOOTH",
"83 673 OFFCURVE",
"103 662 OFFCURVE",
"103 637 CURVE SMOOTH",
"103 62 LINE SMOOTH",
"103 37 OFFCURVE",
"83 26 OFFCURVE",
"44 26 CURVE SMOOTH",
"16 26 LINE",
"16 0 LINE"
);
},
{
closed = 1;
nodes = (
"343 -159 OFFCURVE",
"361 -140 OFFCURVE",
"361 -112 CURVE SMOOTH",
"361 -84 OFFCURVE",
"343 -64 OFFCURVE",
"315 -64 CURVE SMOOTH",
"287 -64 OFFCURVE",
"268 -84 OFFCURVE",
"268 -112 CURVE SMOOTH",
"268 -140 OFFCURVE",
"287 -159 OFFCURVE",
"315 -159 CURVE SMOOTH"
);
},
{
closed = 1;
nodes = (
"455 251 LINE",
"455 485 LINE",
"431 485 LINE",
"427 436 OFFCURVE",
"424 388 OFFCURVE",
"379 388 CURVE SMOOTH",
"162 388 LINE",
"162 348 LINE",
"379 348 LINE SMOOTH",
"424 348 OFFCURVE",
"427 300 OFFCURVE",
"431 251 CURVE"
);
}
);
};
components = (
{
name = E;
},
{
name = dotbelowcomb;
transform = "{1, 0, 0, 1, 565, 0}";
}
);
layerId = "0B1DFD06-3317-40CA-B510-4969A0718C16";
width = 607;
}
);
note = Edotbelow;
unicode = 1EB8;
},
{
glyphname = Egrave;
lastChange = "2017-12-19 03:42:34 +0000";
layers = (
{
background = {
paths = (
{
closed = 1;
nodes = (
"554 0 LINE",
"571 179 LINE",
"544 179 LINE",
"538 124 OFFCURVE",
"520 40 OFFCURVE",
"456 40 CURVE SMOOTH",
"201 40 LINE",
"201 659 LINE",
"441 659 LINE SMOOTH",
"516 659 OFFCURVE",
"525 567 OFFCURVE",
"528 527 CURVE",
"555 527 LINE",
"555 700 LINE",
"16 700 LINE",
"16 673 LINE",
"44 673 LINE SMOOTH",
"83 673 OFFCURVE",
"103 662 OFFCURVE",
"103 637 CURVE SMOOTH",
"103 62 LINE SMOOTH",
"103 37 OFFCURVE",
"83 26 OFFCURVE",
"44 26 CURVE SMOOTH",
"16 26 LINE",
"16 0 LINE"
);
},
{
closed = 1;
nodes = (
"455 251 LINE",
"455 485 LINE",
"431 485 LINE",
"427 436 OFFCURVE",
"424 388 OFFCURVE",
"379 388 CURVE SMOOTH",
"162 388 LINE",
"162 348 LINE",
"379 348 LINE SMOOTH",
"424 348 OFFCURVE",
"427 300 OFFCURVE",
"431 251 CURVE"
);
},
{
closed = 1;
nodes = (
"425 807 LINE",
"310 913 LINE",
"301 922 OFFCURVE",
"285 937 OFFCURVE",
"265 937 CURVE SMOOTH",
"245 937 OFFCURVE",
"233 924 OFFCURVE",
"233 908 CURVE SMOOTH",
"233 890 OFFCURVE",
"245 876 OFFCURVE",
"264 865 CURVE SMOOTH",
"407 782 LINE"
);
}
);
};
components = (
{
name = E;
},
{
name = grave;
transform = "{1, 0, 0, 1, 68, 230}";
}
);
layerId = "0B1DFD06-3317-40CA-B510-4969A0718C16";
width = 607;
}
);
note = Egrave;
unicode = 00C8;
},
{
glyphname = Ehookabove;
lastChange = "2017-12-19 03:42:34 +0000";
layers = (
{
background = {
paths = (
{
closed = 1;
nodes = (
"554 0 LINE",
"571 179 LINE",
"544 179 LINE",
"538 124 OFFCURVE",
"520 40 OFFCURVE",
"456 40 CURVE SMOOTH",
"201 40 LINE",
"201 659 LINE",
"441 659 LINE SMOOTH",
"516 659 OFFCURVE",
"525 567 OFFCURVE",
"528 527 CURVE",
"555 527 LINE",
"555 700 LINE",
"16 700 LINE",
"16 673 LINE",
"44 673 LINE SMOOTH",
"83 673 OFFCURVE",
"103 662 OFFCURVE",
"103 637 CURVE SMOOTH",
"103 62 LINE SMOOTH",
"103 37 OFFCURVE",
"83 26 OFFCURVE",
"44 26 CURVE SMOOTH",
"16 26 LINE",
"16 0 LINE"
);
},
{
closed = 1;
nodes = (
"455 251 LINE",
"455 485 LINE",
"431 485 LINE",
"427 436 OFFCURVE",
"424 388 OFFCURVE",
"379 388 CURVE SMOOTH",
"162 388 LINE",
"162 348 LINE",
"379 348 LINE SMOOTH",
"424 348 OFFCURVE",
"427 300 OFFCURVE",
"431 251 CURVE"
);
},
{
closed = 1;
nodes = (
"367 798 LINE",
"348 805 OFFCURVE",
"336 811 OFFCURVE",
"336 828 CURVE SMOOTH",
"336 861 OFFCURVE",
"425 876 OFFCURVE",
"425 927 CURVE SMOOTH",
"425 969 OFFCURVE",
"389 991 OFFCURVE",
"336 991 CURVE SMOOTH",
"289 991 OFFCURVE",
"248 974 OFFCURVE",
"248 940 CURVE SMOOTH",
"248 923 OFFCURVE",
"256 915 OFFCURVE",
"271 915 CURVE SMOOTH",
"294 915 OFFCURVE",
"296 934 OFFCURVE",
"299 942 CURVE SMOOTH",
"304 956 OFFCURVE",
"321 962 OFFCURVE",
"337 962 CURVE SMOOTH",
"358 962 OFFCURVE",
"371 947 OFFCURVE",
"371 930 CURVE SMOOTH",
"371 885 OFFCURVE",
"289 874 OFFCURVE",
"289 828 CURVE SMOOTH",
"289 801 OFFCURVE",
"307 778 OFFCURVE",
"358 778 CURVE"
);
}
);
};
components = (
{
name = E;
},
{
name = hookabovecomb;
transform = "{1, 0, 0, 1, 565, 230}";
}
);
layerId = "0B1DFD06-3317-40CA-B510-4969A0718C16";
width = 607;
}
);
note = Ehookabove;
unicode = 1EBA;
},
{
glyphname = Emacron;
lastChange = "2017-12-19 03:42:34 +0000";
layers = (
{
background = {
paths = (
{
closed = 1;
nodes = (
"554 0 LINE",
"571 179 LINE",
"544 179 LINE",
"538 124 OFFCURVE",
"520 40 OFFCURVE",
"456 40 CURVE SMOOTH",
"201 40 LINE",
"201 659 LINE",
"441 659 LINE SMOOTH",
"516 659 OFFCURVE",
"525 567 OFFCURVE",
"528 527 CURVE",
"555 527 LINE",
"555 700 LINE",
"16 700 LINE",
"16 673 LINE",
"44 673 LINE SMOOTH",
"83 673 OFFCURVE",
"103 662 OFFCURVE",
"103 637 CURVE SMOOTH",
"103 62 LINE SMOOTH",
"103 37 OFFCURVE",
"83 26 OFFCURVE",
"44 26 CURVE SMOOTH",
"16 26 LINE",
"16 0 LINE"
);
},
{
closed = 1;
nodes = (
"455 251 LINE",
"455 485 LINE",
"431 485 LINE",
"427 436 OFFCURVE",
"424 388 OFFCURVE",
"379 388 CURVE SMOOTH",
"162 388 LINE",
"162 348 LINE",
"379 348 LINE SMOOTH",
"424 348 OFFCURVE",
"427 300 OFFCURVE",
"431 251 CURVE"
);
},
{
closed = 1;
nodes = (
"495 782 LINE",
"495 824 LINE",
"162 824 LINE",
"162 782 LINE"
);
}
);
};
components = (
{
name = E;
},
{
name = macron;
transform = "{1, 0, 0, 1, 68, 230}";
}
);
layerId = "0B1DFD06-3317-40CA-B510-4969A0718C16";
width = 607;
}
);
note = Emacron;
unicode = 0112;
},
{
glyphname = Eogonek;
lastChange = "2017-12-19 03:42:34 +0000";
layers = (
{
background = {
paths = (
{
closed = 1;
nodes = (
"554 0 LINE",
"571 179 LINE",
"544 179 LINE",
"538 124 OFFCURVE",
"520 40 OFFCURVE",
"456 40 CURVE SMOOTH",
"201 40 LINE",
"201 659 LINE",
"441 659 LINE SMOOTH",
"516 659 OFFCURVE",
"525 567 OFFCURVE",
"528 527 CURVE",
"555 527 LINE",
"555 700 LINE",
"16 700 LINE",
"16 673 LINE",
"44 673 LINE SMOOTH",
"83 673 OFFCURVE",
"103 662 OFFCURVE",
"103 637 CURVE SMOOTH",
"103 62 LINE SMOOTH",
"103 37 OFFCURVE",
"83 26 OFFCURVE",
"44 26 CURVE SMOOTH",
"16 26 LINE",
"16 0 LINE"
);
},
{
closed = 1;
nodes = (
"496 -196 OFFCURVE",
"524 -189 OFFCURVE",
"549 -172 CURVE",
"543 -152 LINE",
"527 -158 OFFCURVE",
"510 -162 OFFCURVE",
"497 -162 CURVE SMOOTH",
"464 -162 OFFCURVE",
"437 -146 OFFCURVE",
"437 -106 CURVE SMOOTH",
"437 -66 OFFCURVE",
"464 -26 OFFCURVE",
"510 4 CURVE",
"469 4 LINE",
"416 -22 OFFCURVE",
"376 -64 OFFCURVE",
"376 -114 CURVE SMOOTH",
"376 -147 OFFCURVE",
"395 -196 OFFCURVE",
"470 -196 CURVE SMOOTH"
);
},
{
closed = 1;
nodes = (
"455 251 LINE",
"455 485 LINE",
"431 485 LINE",
"427 436 OFFCURVE",
"424 388 OFFCURVE",
"379 388 CURVE SMOOTH",
"162 388 LINE",
"162 348 LINE",
"379 348 LINE SMOOTH",
"424 348 OFFCURVE",
"427 300 OFFCURVE",
"431 251 CURVE"
);
}
);
};
components = (
{
name = E;
},
{
name = ogonek;
transform = "{1, 0, 0, 1, 256, 0}";
}
);
layerId = "0B1DFD06-3317-40CA-B510-4969A0718C16";
width = 607;
}
);
note = Eogonek;
unicode = 0118;
},
{
glyphname = Etilde;
lastChange = "2017-12-19 03:42:34 +0000";
layers = (
{
background = {
paths = (
{
closed = 1;
nodes = (
"554 0 LINE",
"571 179 LINE",
"544 179 LINE",
"538 124 OFFCURVE",
"520 40 OFFCURVE",
"456 40 CURVE SMOOTH",
"201 40 LINE",
"201 659 LINE",
"441 659 LINE SMOOTH",
"516 659 OFFCURVE",
"525 567 OFFCURVE",
"528 527 CURVE",
"555 527 LINE",
"555 700 LINE",
"16 700 LINE",
"16 673 LINE",
"44 673 LINE SMOOTH",
"83 673 OFFCURVE",
"103 662 OFFCURVE",
"103 637 CURVE SMOOTH",
"103 62 LINE SMOOTH",
"103 37 OFFCURVE",
"83 26 OFFCURVE",
"44 26 CURVE SMOOTH",
"16 26 LINE",
"16 0 LINE"
);
},
{
closed = 1;
nodes = (
"455 251 LINE",
"455 485 LINE",
"431 485 LINE",
"427 436 OFFCURVE",
"424 388 OFFCURVE",
"379 388 CURVE SMOOTH",
"162 388 LINE",
"162 348 LINE",
"379 348 LINE SMOOTH",
"424 348 OFFCURVE",
"427 300 OFFCURVE",
"431 251 CURVE"
);
},
{
closed = 1;
nodes = (
"190 817 OFFCURVE",
"208 838 OFFCURVE",
"241 838 CURVE SMOOTH",
"292 838 OFFCURVE",
"341 784 OFFCURVE",
"392 784 CURVE SMOOTH",
"450 784 OFFCURVE",
"480 832 OFFCURVE",
"492 884 CURVE",
"471 895 LINE",
"455 855 OFFCURVE",
"439 833 OFFCURVE",
"405 833 CURVE SMOOTH",
"356 833 OFFCURVE",
"304 886 OFFCURVE",
"253 886 CURVE SMOOTH",
"199 886 OFFCURVE",
"166 842 OFFCURVE",
"154 790 CURVE",
"176 779 LINE"
);
}
);
};
components = (
{
name = E;
},
{
name = tilde;
transform = "{1, 0, 0, 1, 68, 230}";
}
);
layerId = "0B1DFD06-3317-40CA-B510-4969A0718C16";
width = 607;
}
);
note = Etilde;
unicode = 1EBC;
},
{
glyphname = Hbar;
lastChange = "2017-12-19 03:42:34 +0000";
layers = (
{
components = (
{
name = H;
}
);
layerId = "0B1DFD06-3317-40CA-B510-4969A0718C16";
paths = (
{
closed = 1;
nodes = (
"719 504 LINE",
"719 544 LINE",
"43 544 LINE",
"43 504 LINE"
);
}
);
width = 773;
}
);
note = Hbar;
unicode = 0126;
},
{
color = 0;
glyphname = IJ;
lastChange = "2017-12-18 11:12:59 +0000";
layers = (
{
layerId = "0B1DFD06-3317-40CA-B510-4969A0718C16";
paths = (
{
closed = 1;
nodes = (
"472 -114 OFFCURVE",
"561 -45 OFFCURVE",
"561 89 CURVE SMOOTH",
"561 637 LINE SMOOTH",
"561 662 OFFCURVE",
"581 673 OFFCURVE",
"619 673 CURVE SMOOTH",
"649 673 LINE",
"649 700 LINE",
"376 700 LINE",
"376 673 LINE",
"405 673 LINE SMOOTH",
"444 673 OFFCURVE",
"463 662 OFFCURVE",
"463 637 CURVE SMOOTH",
"463 90 LINE SMOOTH",
"463 -8 OFFCURVE",
"424 -75 OFFCURVE",
"339 -93 CURVE",
"343 -114 LINE"
);
},
{
closed = 1;
nodes = (
"298 0 LINE",
"298 26 LINE",
"270 26 LINE SMOOTH",
"231 26 OFFCURVE",
"211 37 OFFCURVE",
"211 62 CURVE SMOOTH",
"211 637 LINE SMOOTH",
"211 662 OFFCURVE",
"231 673 OFFCURVE",
"270 673 CURVE SMOOTH",
"298 673 LINE",
"298 700 LINE",
"26 700 LINE",
"26 673 LINE",
"55 673 LINE SMOOTH",
"93 673 OFFCURVE",
"113 662 OFFCURVE",
"113 637 CURVE SMOOTH",
"113 62 LINE SMOOTH",
"113 37 OFFCURVE",
"93 26 OFFCURVE",
"55 26 CURVE SMOOTH",
"26 26 LINE",
"26 0 LINE"
);
}
);
width = 675;
}
);
note = IJ;
rightKerningGroup = J;
unicode = 0132;
},
{
glyphname = Lslash;
lastChange = "2017-12-19 03:42:37 +0000";
layers = (
{
layerId = "0B1DFD06-3317-40CA-B510-4969A0718C16";
paths = (
{
closed = 1;
nodes = (
"15 215 LINE",
"96 274 LINE",
"96 0 LINE",
"597 0 LINE",
"597 59 LINE",
"162 59 LINE",
"162 324 LINE",
"270 404 LINE",
"270 482 LINE",
"162 402 LINE",
"162 700 LINE",
"96 700 LINE",
"96 352 LINE",
"15 293 LINE"
);
}
);
width = 647;
}
);
note = Lslash;
unicode = 0141;
},
{
glyphname = Mdotbelow;
lastChange = "2017-12-19 03:42:37 +0000";
layers = (
{
components = (
{
name = M;
}
);
layerId = "0B1DFD06-3317-40CA-B510-4969A0718C16";
paths = (
{
closed = 1;
nodes = (
"479 -159 OFFCURVE",
"497 -140 OFFCURVE",
"497 -112 CURVE SMOOTH",
"497 -84 OFFCURVE",
"479 -64 OFFCURVE",
"451 -64 CURVE SMOOTH",
"423 -64 OFFCURVE",
"404 -84 OFFCURVE",
"404 -112 CURVE SMOOTH",
"404 -140 OFFCURVE",
"423 -159 OFFCURVE",
"451 -159 CURVE SMOOTH"
);
}
);
width = 903;
}
);
note = Mdotbelow;
unicode = 1E42;
},
{
glyphname = Nacute;
lastChange = "2017-12-19 03:42:37 +0000";
layers = (
{
background = {
paths = (
{
closed = 1;
nodes = (
"247 0 LINE",
"247 26 LINE",
"217 26 LINE SMOOTH",
"179 26 OFFCURVE",
"159 37 OFFCURVE",
"159 62 CURVE SMOOTH",
"159 642 LINE",
"587 0 LINE",
"645 0 LINE",
"645 637 LINE SMOOTH",
"645 662 OFFCURVE",
"665 673 OFFCURVE",
"703 673 CURVE SMOOTH",
"733 673 LINE",
"733 700 LINE",
"508 700 LINE",
"508 673 LINE",
"537 673 LINE SMOOTH",
"576 673 OFFCURVE",
"595 662 OFFCURVE",
"595 637 CURVE SMOOTH",
"595 126 LINE",
"217 700 LINE",
"22 700 LINE",
"22 673 LINE",
"51 673 LINE SMOOTH",
"90 673 OFFCURVE",
"109 662 OFFCURVE",
"109 637 CURVE SMOOTH",
"109 62 LINE SMOOTH",
"109 37 OFFCURVE",
"90 26 OFFCURVE",
"51 26 CURVE SMOOTH",
"22 26 LINE",
"22 0 LINE"
);
},
{
closed = 1;
nodes = (
"458 865 LINE SMOOTH",
"480 877 OFFCURVE",
"492 890 OFFCURVE",
"492 907 CURVE SMOOTH",
"492 922 OFFCURVE",
"480 937 OFFCURVE",
"458 937 CURVE SMOOTH",
"437 937 OFFCURVE",
"422 921 OFFCURVE",
"414 914 CURVE SMOOTH",
"299 807 LINE",
"316 782 LINE"
);
}
);
};
components = (
{
name = N;
},
{
name = acute;
transform = "{1, 0, 0, 1, 120, 230}";
}
);
layerId = "0B1DFD06-3317-40CA-B510-4969A0718C16";
width = 755;
}
);
note = Nacute;
unicode = 0143;
},
{
glyphname = Ncaron;
lastChange = "2017-12-19 03:42:37 +0000";
layers = (
{
background = {
paths = (
{
closed = 1;
nodes = (
"247 0 LINE",
"247 26 LINE",
"217 26 LINE SMOOTH",
"179 26 OFFCURVE",
"159 37 OFFCURVE",
"159 62 CURVE SMOOTH",
"159 642 LINE",
"587 0 LINE",
"645 0 LINE",
"645 637 LINE SMOOTH",
"645 662 OFFCURVE",
"665 673 OFFCURVE",
"703 673 CURVE SMOOTH",
"733 673 LINE",
"733 700 LINE",
"508 700 LINE",
"508 673 LINE",
"537 673 LINE SMOOTH",
"576 673 OFFCURVE",
"595 662 OFFCURVE",
"595 637 CURVE SMOOTH",
"595 126 LINE",
"217 700 LINE",
"22 700 LINE",
"22 673 LINE",
"51 673 LINE SMOOTH",
"90 673 OFFCURVE",
"109 662 OFFCURVE",
"109 637 CURVE SMOOTH",
"109 62 LINE SMOOTH",
"109 37 OFFCURVE",
"90 26 OFFCURVE",
"51 26 CURVE SMOOTH",
"22 26 LINE",
"22 0 LINE"
);
},
{
closed = 1;
nodes = (
"403 782 LINE",
"527 911 LINE",
"508 932 LINE",
"400 847 LINE",
"392 840 OFFCURVE",
"383 836 OFFCURVE",
"377 836 CURVE SMOOTH",
"371 836 OFFCURVE",
"363 840 OFFCURVE",
"353 847 CURVE",
"245 932 LINE",
"226 911 LINE",
"350 782 LINE"
);
}
);
};
components = (
{
name = N;
},
{
name = caron;
transform = "{1, 0, 0, 1, 132, 230}";
}
);
layerId = "0B1DFD06-3317-40CA-B510-4969A0718C16";
width = 755;
}
);
note = Ncaron;
unicode = 0147;
},
{
glyphname = Ncommaaccent;
lastChange = "2017-12-19 03:42:37 +0000";
layers = (
{
background = {
paths = (
{
closed = 1;
nodes = (
"247 0 LINE",
"247 26 LINE",
"217 26 LINE SMOOTH",
"179 26 OFFCURVE",
"159 37 OFFCURVE",
"159 62 CURVE SMOOTH",
"159 642 LINE",
"587 0 LINE",
"645 0 LINE",
"645 637 LINE SMOOTH",
"645 662 OFFCURVE",
"665 673 OFFCURVE",
"703 673 CURVE SMOOTH",
"733 673 LINE",
"733 700 LINE",
"508 700 LINE",
"508 673 LINE",
"537 673 LINE SMOOTH",
"576 673 OFFCURVE",
"595 662 OFFCURVE",
"595 637 CURVE SMOOTH",
"595 126 LINE",
"217 700 LINE",
"22 700 LINE",
"22 673 LINE",
"51 673 LINE SMOOTH",
"90 673 OFFCURVE",
"109 662 OFFCURVE",
"109 637 CURVE SMOOTH",
"109 62 LINE SMOOTH",
"109 37 OFFCURVE",
"90 26 OFFCURVE",
"51 26 CURVE SMOOTH",
"22 26 LINE",
"22 0 LINE"
);
},
{
closed = 1;
nodes = (
"369 -258 OFFCURVE",
"413 -198 OFFCURVE",
"413 -135 CURVE SMOOTH",
"413 -87 OFFCURVE",
"389 -67 OFFCURVE",
"360 -67 CURVE SMOOTH",
"331 -67 OFFCURVE",
"314 -87 OFFCURVE",
"314 -111 CURVE SMOOTH",
"314 -145 OFFCURVE",
"349 -152 OFFCURVE",
"349 -187 CURVE SMOOTH",
"349 -223 OFFCURVE",
"323 -256 OFFCURVE",
"296 -282 CURVE",
"313 -299 LINE"
);
}
);
};
components = (
{
name = N;
},
{
name = commaaccentcomb;
}
);
layerId = "0B1DFD06-3317-40CA-B510-4969A0718C16";
width = 719;
}
);
note = Ncommaaccent;
unicode = 0145;
},
{
glyphname = Ndotaccent;
lastChange = "2017-12-19 03:42:37 +0000";
layers = (
{
background = {
paths = (
{
closed = 1;
nodes = (
"247 0 LINE",
"247 26 LINE",
"217 26 LINE SMOOTH",
"179 26 OFFCURVE",
"159 37 OFFCURVE",
"159 62 CURVE SMOOTH",
"159 642 LINE",
"587 0 LINE",
"645 0 LINE",
"645 637 LINE SMOOTH",
"645 662 OFFCURVE",
"665 673 OFFCURVE",
"703 673 CURVE SMOOTH",
"733 673 LINE",
"733 700 LINE",
"508 700 LINE",
"508 673 LINE",
"537 673 LINE SMOOTH",
"576 673 OFFCURVE",
"595 662 OFFCURVE",
"595 637 CURVE SMOOTH",
"595 126 LINE",
"217 700 LINE",
"22 700 LINE",
"22 673 LINE",
"51 673 LINE SMOOTH",
"90 673 OFFCURVE",
"109 662 OFFCURVE",
"109 637 CURVE SMOOTH",
"109 62 LINE SMOOTH",
"109 37 OFFCURVE",
"90 26 OFFCURVE",
"51 26 CURVE SMOOTH",
"22 26 LINE",
"22 0 LINE"
);
},
{
closed = 1;
nodes = (
"405 765 OFFCURVE",
"423 784 OFFCURVE",
"423 811 CURVE SMOOTH",
"423 839 OFFCURVE",
"405 858 OFFCURVE",
"377 858 CURVE SMOOTH",
"348 858 OFFCURVE",
"330 839 OFFCURVE",
"330 811 CURVE SMOOTH",
"330 784 OFFCURVE",
"348 765 OFFCURVE",
"377 765 CURVE SMOOTH"
);
}
);
};
components = (
{
name = N;
},
{
name = dotaccent;
transform = "{1, 0, 0, 1, 132, 230}";
}
);
layerId = "0B1DFD06-3317-40CA-B510-4969A0718C16";
width = 755;
}
);
note = Ndotaccent;
unicode = 1E44;
},
{
glyphname = Ndotbelow;
lastChange = "2017-12-19 03:42:37 +0000";
layers = (
{
background = {
paths = (
{
closed = 1;
nodes = (
"247 0 LINE",
"247 26 LINE",
"217 26 LINE SMOOTH",
"179 26 OFFCURVE",
"159 37 OFFCURVE",
"159 62 CURVE SMOOTH",
"159 642 LINE",
"587 0 LINE",
"645 0 LINE",
"645 637 LINE SMOOTH",
"645 662 OFFCURVE",
"665 673 OFFCURVE",
"703 673 CURVE SMOOTH",
"733 673 LINE",
"733 700 LINE",
"508 700 LINE",
"508 673 LINE",
"537 673 LINE SMOOTH",
"576 673 OFFCURVE",
"595 662 OFFCURVE",
"595 637 CURVE SMOOTH",
"595 126 LINE",
"217 700 LINE",
"22 700 LINE",
"22 673 LINE",
"51 673 LINE SMOOTH",
"90 673 OFFCURVE",
"109 662 OFFCURVE",
"109 637 CURVE SMOOTH",
"109 62 LINE SMOOTH",
"109 37 OFFCURVE",
"90 26 OFFCURVE",
"51 26 CURVE SMOOTH",
"22 26 LINE",
"22 0 LINE"
);
},
{
closed = 1;
nodes = (
"415 -159 OFFCURVE",
"433 -140 OFFCURVE",
"433 -112 CURVE SMOOTH",
"433 -84 OFFCURVE",
"415 -64 OFFCURVE",
"387 -64 CURVE SMOOTH",
"359 -64 OFFCURVE",
"340 -84 OFFCURVE",
"340 -112 CURVE SMOOTH",
"340 -140 OFFCURVE",
"359 -159 OFFCURVE",
"387 -159 CURVE SMOOTH"
);
}
);
};
components = (
{
name = N;
},
{
name = dotbelowcomb;
transform = "{1, 0, 0, 1, 629, 0}";
}
);
layerId = "0B1DFD06-3317-40CA-B510-4969A0718C16";
width = 755;
}
);
note = uni1E46;
unicode = 1E46;
},
{
color = 0;
glyphname = Eng;
lastChange = "2017-12-18 11:13:06 +0000";
layers = (
{
background = {
paths = (
{
closed = 1;
nodes = (
"592 -259 OFFCURVE",
"645 -182 OFFCURVE",
"645 -36 CURVE SMOOTH",
"645 637 LINE SMOOTH",
"645 662 OFFCURVE",
"665 673 OFFCURVE",
"703 673 CURVE SMOOTH",
"733 673 LINE",
"733 700 LINE",
"508 700 LINE",
"508 673 LINE",
"537 673 LINE SMOOTH",
"576 673 OFFCURVE",
"595 662 OFFCURVE",
"595 637 CURVE SMOOTH",
"595 125 LINE",
"219 700 LINE",
"22 700 LINE",
"22 673 LINE",
"51 673 LINE SMOOTH",
"90 673 OFFCURVE",
"109 662 OFFCURVE",
"109 637 CURVE SMOOTH",
"109 62 LINE SMOOTH",
"109 37 OFFCURVE",
"93 26 OFFCURVE",
"51 26 CURVE SMOOTH",
"22 26 LINE",
"22 0 LINE",
"247 0 LINE",
"247 26 LINE",
"217 26 LINE SMOOTH",
"179 26 OFFCURVE",
"159 37 OFFCURVE",
"159 62 CURVE SMOOTH",
"159 647 LINE",
"586 0 LINE",
"586 -76 LINE SMOOTH",
"586 -173 OFFCURVE",
"510 -238 OFFCURVE",
"423 -243 CURVE",
"427 -268 LINE"
);
}
);
};
layerId = "0B1DFD06-3317-40CA-B510-4969A0718C16";
paths = (
{
closed = 1;
nodes = (
"592 -259 OFFCURVE",
"645 -182 OFFCURVE",
"645 -36 CURVE SMOOTH",
"645 637 LINE SMOOTH",
"645 662 OFFCURVE",
"665 673 OFFCURVE",
"703 673 CURVE SMOOTH",
"733 673 LINE",
"733 700 LINE",
"508 700 LINE",
"508 673 LINE",
"537 673 LINE SMOOTH",
"576 673 OFFCURVE",
"595 662 OFFCURVE",
"595 637 CURVE SMOOTH",
"595 125 LINE",
"219 700 LINE",
"22 700 LINE",
"22 673 LINE",
"51 673 LINE SMOOTH",
"90 673 OFFCURVE",
"109 662 OFFCURVE",
"109 637 CURVE SMOOTH",
"109 62 LINE SMOOTH",
"109 37 OFFCURVE",
"93 26 OFFCURVE",
"51 26 CURVE SMOOTH",
"22 26 LINE",
"22 0 LINE",
"247 0 LINE",
"247 26 LINE",
"217 26 LINE SMOOTH",
"179 26 OFFCURVE",
"159 37 OFFCURVE",
"159 62 CURVE SMOOTH",
"159 647 LINE",
"586 0 LINE",
"586 -76 LINE SMOOTH",
"586 -173 OFFCURVE",
"510 -238 OFFCURVE",
"423 -243 CURVE",
"427 -268 LINE"
);
}
);
width = 755;
}
);
note = Eng;
unicode = 014A;
},
{
glyphname = Nlinebelow;
lastChange = "2017-12-19 03:42:41 +0000";
layers = (
{
background = {
paths = (
{
closed = 1;
nodes = (
"247 0 LINE",
"247 26 LINE",
"217 26 LINE SMOOTH",
"179 26 OFFCURVE",
"159 37 OFFCURVE",
"159 62 CURVE SMOOTH",
"159 642 LINE",
"587 0 LINE",
"645 0 LINE",
"645 637 LINE SMOOTH",
"645 662 OFFCURVE",
"665 673 OFFCURVE",
"703 673 CURVE SMOOTH",
"733 673 LINE",
"733 700 LINE",
"508 700 LINE",
"508 673 LINE",
"537 673 LINE SMOOTH",
"576 673 OFFCURVE",
"595 662 OFFCURVE",
"595 637 CURVE SMOOTH",
"595 126 LINE",
"217 700 LINE",
"22 700 LINE",
"22 673 LINE",
"51 673 LINE SMOOTH",
"90 673 OFFCURVE",
"109 662 OFFCURVE",
"109 637 CURVE SMOOTH",
"109 62 LINE SMOOTH",
"109 37 OFFCURVE",
"90 26 OFFCURVE",
"51 26 CURVE SMOOTH",
"22 26 LINE",
"22 0 LINE"
);
},
{
closed = 1;
nodes = (
"542 -110 LINE",
"542 -72 LINE",
"210 -72 LINE",
"210 -110 LINE"
);
}
);
};
components = (
{
name = N;
},
{
name = macronbelowcomb;
transform = "{1, 0, 0, 1, 378, 0}";
}
);
layerId = "0B1DFD06-3317-40CA-B510-4969A0718C16";
width = 755;
}
);
note = Nlinebelow;
unicode = 1E48;
},
{
glyphname = Ntilde;
lastChange = "2017-12-19 03:42:41 +0000";
layers = (
{
background = {
paths = (
{
closed = 1;
nodes = (
"247 0 LINE",
"247 26 LINE",
"217 26 LINE SMOOTH",
"179 26 OFFCURVE",
"159 37 OFFCURVE",
"159 62 CURVE SMOOTH",
"159 642 LINE",
"587 0 LINE",
"645 0 LINE",
"645 637 LINE SMOOTH",
"645 662 OFFCURVE",
"665 673 OFFCURVE",
"703 673 CURVE SMOOTH",
"733 673 LINE",
"733 700 LINE",
"508 700 LINE",
"508 673 LINE",
"537 673 LINE SMOOTH",
"576 673 OFFCURVE",
"595 662 OFFCURVE",
"595 637 CURVE SMOOTH",
"595 126 LINE",
"217 700 LINE",
"22 700 LINE",
"22 673 LINE",
"51 673 LINE SMOOTH",
"90 673 OFFCURVE",
"109 662 OFFCURVE",
"109 637 CURVE SMOOTH",
"109 62 LINE SMOOTH",
"109 37 OFFCURVE",
"90 26 OFFCURVE",
"51 26 CURVE SMOOTH",
"22 26 LINE",
"22 0 LINE"
);
},
{
closed = 1;
nodes = (
"254 818 OFFCURVE",
"272 839 OFFCURVE",
"305 839 CURVE SMOOTH",
"356 839 OFFCURVE",
"405 785 OFFCURVE",
"456 785 CURVE SMOOTH",
"514 785 OFFCURVE",
"544 833 OFFCURVE",
"556 885 CURVE",
"535 896 LINE",
"519 856 OFFCURVE",
"503 834 OFFCURVE",
"469 834 CURVE SMOOTH",
"420 834 OFFCURVE",
"368 887 OFFCURVE",
"317 887 CURVE SMOOTH",
"263 887 OFFCURVE",
"230 843 OFFCURVE",
"218 791 CURVE",
"240 780 LINE"
);
}
);
};
components = (
{
name = N;
},
{
name = tilde;
transform = "{1, 0, 0, 1, 132, 230}";
}
);
layerId = "0B1DFD06-3317-40CA-B510-4969A0718C16";
width = 755;
}
);
note = Ntilde;
unicode = 00D1;
},
{
glyphname = Oacute;
lastChange = "2017-12-19 03:42:41 +0000";
layers = (
{
background = {
paths = (
{
closed = 1;
nodes = (
"601 -10 OFFCURVE",
"719 124 OFFCURVE",
"719 350 CURVE SMOOTH",
"719 574 OFFCURVE",
"601 710 OFFCURVE",
"378 710 CURVE SMOOTH",
"154 710 OFFCURVE",
"36 574 OFFCURVE",
"36 350 CURVE SMOOTH",
"36 124 OFFCURVE",
"154 -10 OFFCURVE",
"378 -10 CURVE SMOOTH"
);
},
{
closed = 1;
nodes = (
"215 32 OFFCURVE",
"135 158 OFFCURVE",
"135 350 CURVE SMOOTH",
"135 541 OFFCURVE",
"215 668 OFFCURVE",
"377 668 CURVE SMOOTH",
"541 668 OFFCURVE",
"620 541 OFFCURVE",
"620 350 CURVE SMOOTH",
"620 158 OFFCURVE",
"541 32 OFFCURVE",
"377 32 CURVE SMOOTH"
);
},
{
closed = 1;
nodes = (
"440 865 LINE SMOOTH",
"462 877 OFFCURVE",
"474 890 OFFCURVE",
"474 907 CURVE SMOOTH",
"474 922 OFFCURVE",
"462 937 OFFCURVE",
"440 937 CURVE SMOOTH",
"419 937 OFFCURVE",
"404 921 OFFCURVE",
"396 914 CURVE SMOOTH",
"281 807 LINE",
"298 782 LINE"
);
}
);
};
components = (
{
name = O;
},
{
name = acute;
transform = "{1, 0, 0, 1, 120, 230}";
}
);
layerId = "0B1DFD06-3317-40CA-B510-4969A0718C16";
width = 755;
}
);
leftKerningGroup = O;
note = Oacute;
rightKerningGroup = O;
unicode = 00D3;
},
{
glyphname = Obreve;
lastChange = "2017-12-19 03:42:41 +0000";
layers = (
{
background = {
paths = (
{
closed = 1;
nodes = (
"601 -10 OFFCURVE",
"719 124 OFFCURVE",
"719 350 CURVE SMOOTH",
"719 574 OFFCURVE",
"601 710 OFFCURVE",
"378 710 CURVE SMOOTH",
"154 710 OFFCURVE",
"36 574 OFFCURVE",
"36 350 CURVE SMOOTH",
"36 124 OFFCURVE",
"154 -10 OFFCURVE",
"378 -10 CURVE SMOOTH"
);
},
{
closed = 1;
nodes = (
"215 32 OFFCURVE",
"135 158 OFFCURVE",
"135 350 CURVE SMOOTH",
"135 541 OFFCURVE",
"215 668 OFFCURVE",
"377 668 CURVE SMOOTH",
"541 668 OFFCURVE",
"620 541 OFFCURVE",
"620 350 CURVE SMOOTH",
"620 158 OFFCURVE",
"541 32 OFFCURVE",
"377 32 CURVE SMOOTH"
);
},
{
closed = 1;
nodes = (
"477 774 OFFCURVE",
"519 830 OFFCURVE",
"523 905 CURVE",
"490 905 LINE",
"484 846 OFFCURVE",
"442 820 OFFCURVE",
"378 820 CURVE SMOOTH",
"314 820 OFFCURVE",
"271 846 OFFCURVE",
"264 905 CURVE",
"231 905 LINE",
"235 827 OFFCURVE",
"277 774 OFFCURVE",
"378 774 CURVE SMOOTH"
);
}
);
};
components = (
{
name = O;
},
{
name = breve;
transform = "{1, 0, 0, 1, 132, 230}";
}
);
layerId = "0B1DFD06-3317-40CA-B510-4969A0718C16";
width = 755;
}
);
leftKerningGroup = O;
note = Obreve;
rightKerningGroup = O;
unicode = 014E;
},
{
glyphname = Ocaron;
lastChange = "2017-12-19 03:42:41 +0000";
layers = (
{
background = {
paths = (
{
closed = 1;
nodes = (
"601 -10 OFFCURVE",
"719 124 OFFCURVE",
"719 350 CURVE SMOOTH",
"719 574 OFFCURVE",
"601 710 OFFCURVE",
"378 710 CURVE SMOOTH",
"154 710 OFFCURVE",
"36 574 OFFCURVE",
"36 350 CURVE SMOOTH",
"36 124 OFFCURVE",
"154 -10 OFFCURVE",
"378 -10 CURVE SMOOTH"
);
},
{
closed = 1;
nodes = (
"215 32 OFFCURVE",
"135 158 OFFCURVE",
"135 350 CURVE SMOOTH",
"135 541 OFFCURVE",
"215 668 OFFCURVE",
"377 668 CURVE SMOOTH",
"541 668 OFFCURVE",
"620 541 OFFCURVE",
"620 350 CURVE SMOOTH",
"620 158 OFFCURVE",
"541 32 OFFCURVE",
"377 32 CURVE SMOOTH"
);
},
{
closed = 1;
nodes = (
"404 782 LINE",
"528 911 LINE",
"509 932 LINE",
"401 847 LINE",
"393 840 OFFCURVE",
"384 836 OFFCURVE",
"378 836 CURVE SMOOTH",
"372 836 OFFCURVE",
"364 840 OFFCURVE",
"354 847 CURVE",
"246 932 LINE",
"227 911 LINE",
"351 782 LINE"
);
}
);
};
components = (
{
name = O;
},
{
name = caron;
transform = "{1, 0, 0, 1, 132, 230}";
}
);
layerId = "0B1DFD06-3317-40CA-B510-4969A0718C16";
width = 755;
}
);
leftKerningGroup = O;
note = Ocaron;
rightKerningGroup = O;
unicode = 01D1;
},
{
glyphname = Ocircumflex;
lastChange = "2017-12-19 03:42:41 +0000";
layers = (
{
background = {
paths = (
{
closed = 1;
nodes = (
"601 -10 OFFCURVE",
"719 124 OFFCURVE",
"719 350 CURVE SMOOTH",
"719 574 OFFCURVE",
"601 710 OFFCURVE",
"378 710 CURVE SMOOTH",
"154 710 OFFCURVE",
"36 574 OFFCURVE",
"36 350 CURVE SMOOTH",
"36 124 OFFCURVE",
"154 -10 OFFCURVE",
"378 -10 CURVE SMOOTH"
);
},
{
closed = 1;
nodes = (
"215 32 OFFCURVE",
"135 158 OFFCURVE",
"135 350 CURVE SMOOTH",
"135 541 OFFCURVE",
"215 668 OFFCURVE",
"377 668 CURVE SMOOTH",
"541 668 OFFCURVE",
"620 541 OFFCURVE",
"620 350 CURVE SMOOTH",
"620 158 OFFCURVE",
"541 32 OFFCURVE",
"377 32 CURVE SMOOTH"
);
},
{
closed = 1;
nodes = (
"354 868 LINE SMOOTH",
"362 874 OFFCURVE",
"372 879 OFFCURVE",
"378 879 CURVE SMOOTH",
"384 879 OFFCURVE",
"392 874 OFFCURVE",
"401 868 CURVE",
"509 782 LINE",
"528 803 LINE",
"404 932 LINE",
"351 932 LINE",
"227 803 LINE",
"246 782 LINE"
);
}
);
};
components = (
{
name = O;
},
{
name = circumflex;
transform = "{1, 0, 0, 1, 132, 230}";
}
);
layerId = "0B1DFD06-3317-40CA-B510-4969A0718C16";
width = 755;
}
);
leftKerningGroup = O;
note = Ocircumflex;
rightKerningGroup = O;
unicode = 00D4;
},
{
glyphname = Ocircumflexacute;
lastChange = "2017-12-19 03:42:41 +0000";
layers = (
{
background = {
paths = (
{
closed = 1;
nodes = (
"601 -10 OFFCURVE",
"719 124 OFFCURVE",
"719 350 CURVE SMOOTH",
"719 574 OFFCURVE",
"601 710 OFFCURVE",
"378 710 CURVE SMOOTH",
"154 710 OFFCURVE",
"36 574 OFFCURVE",
"36 350 CURVE SMOOTH",
"36 124 OFFCURVE",
"154 -10 OFFCURVE",
"378 -10 CURVE SMOOTH"
);
},
{
closed = 1;
nodes = (
"215 32 OFFCURVE",
"135 158 OFFCURVE",
"135 350 CURVE SMOOTH",
"135 541 OFFCURVE",
"215 668 OFFCURVE",
"377 668 CURVE SMOOTH",
"541 668 OFFCURVE",
"620 541 OFFCURVE",
"620 350 CURVE SMOOTH",
"620 158 OFFCURVE",
"541 32 OFFCURVE",
"377 32 CURVE SMOOTH"
);
},
{
closed = 1;
nodes = (
"348 861 LINE SMOOTH",
"358 869 OFFCURVE",
"368 877 OFFCURVE",
"376 877 CURVE SMOOTH",
"382 877 OFFCURVE",
"390 872 OFFCURVE",
"399 866 CURVE",
"505 780 LINE",
"524 802 LINE",
"402 931 LINE",
"351 931 LINE",
"229 802 LINE",
"247 780 LINE"
);
},
{
closed = 1;
nodes = (
"613 959 LINE SMOOTH",
"636 971 OFFCURVE",
"649 987 OFFCURVE",
"649 1002 CURVE SMOOTH",
"649 1016 OFFCURVE",
"638 1033 OFFCURVE",
"615 1033 CURVE SMOOTH",
"596 1033 OFFCURVE",
"579 1017 OFFCURVE",
"569 1007 CURVE SMOOTH",
"473 914 LINE",
"491 892 LINE"
);
}
);
};
components = (
{
name = O;
},
{
name = circumflexacute;
transform = "{1, 0, 0, 1, 628, 230}";
}
);
layerId = "0B1DFD06-3317-40CA-B510-4969A0718C16";
width = 755;
}
);
leftKerningGroup = O;
note = Ocircumflexacute;
rightKerningGroup = O;
unicode = 1ED0;
},
{
glyphname = Ocircumflexdotbelow;
lastChange = "2017-12-19 03:42:41 +0000";
layers = (
{
background = {
paths = (
{
closed = 1;
nodes = (
"36 124 OFFCURVE",
"154 -10 OFFCURVE",
"378 -10 CURVE SMOOTH",
"601 -10 OFFCURVE",
"719 124 OFFCURVE",
"719 350 CURVE SMOOTH",
"719 574 OFFCURVE",
"601 710 OFFCURVE",
"378 710 CURVE SMOOTH",
"154 710 OFFCURVE",
"36 574 OFFCURVE",
"36 350 CURVE SMOOTH"
);
},
{
closed = 1;
nodes = (
"135 541 OFFCURVE",
"215 668 OFFCURVE",
"377 668 CURVE SMOOTH",
"541 668 OFFCURVE",
"620 541 OFFCURVE",
"620 350 CURVE SMOOTH",
"620 158 OFFCURVE",
"541 32 OFFCURVE",
"377 32 CURVE SMOOTH",
"215 32 OFFCURVE",
"135 158 OFFCURVE",
"135 350 CURVE SMOOTH"
);
},
{
closed = 1;
nodes = (
"245 782 LINE",
"353 868 LINE SMOOTH",
"361 874 OFFCURVE",
"371 879 OFFCURVE",
"377 879 CURVE SMOOTH",
"383 879 OFFCURVE",
"391 874 OFFCURVE",
"400 868 CURVE",
"508 782 LINE",
"527 803 LINE",
"403 932 LINE",
"350 932 LINE",
"226 803 LINE"
);
},
{
closed = 1;
nodes = (
"330 -140 OFFCURVE",
"349 -159 OFFCURVE",
"377 -159 CURVE SMOOTH",
"405 -159 OFFCURVE",
"423 -140 OFFCURVE",
"423 -112 CURVE SMOOTH",
"423 -84 OFFCURVE",
"405 -64 OFFCURVE",
"377 -64 CURVE SMOOTH",
"349 -64 OFFCURVE",
"330 -84 OFFCURVE",
"330 -112 CURVE SMOOTH"
);
}
);
};
components = (
{
name = O;
},
{
name = dotbelowcomb;
transform = "{1, 0, 0, 1, 629, 0}";
},
{
name = circumflex;
transform = "{1, 0, 0, 1, 132, 230}";
}
);
layerId = "0B1DFD06-3317-40CA-B510-4969A0718C16";
width = 755;
}
);
leftKerningGroup = O;
note = Ocircumflexdotbelow;
rightKerningGroup = O;
unicode = 1ED8;
},
{
glyphname = Ocircumflexgrave;
lastChange = "2017-12-19 03:42:41 +0000";
layers = (
{
background = {
paths = (
{
closed = 1;
nodes = (
"601 -10 OFFCURVE",
"719 124 OFFCURVE",
"719 350 CURVE SMOOTH",
"719 574 OFFCURVE",
"601 710 OFFCURVE",
"378 710 CURVE SMOOTH",
"154 710 OFFCURVE",
"36 574 OFFCURVE",
"36 350 CURVE SMOOTH",
"36 124 OFFCURVE",
"154 -10 OFFCURVE",
"378 -10 CURVE SMOOTH"
);
},
{
closed = 1;
nodes = (
"215 32 OFFCURVE",
"135 158 OFFCURVE",
"135 350 CURVE SMOOTH",
"135 541 OFFCURVE",
"215 668 OFFCURVE",
"377 668 CURVE SMOOTH",
"541 668 OFFCURVE",
"620 541 OFFCURVE",
"620 350 CURVE SMOOTH",
"620 158 OFFCURVE",
"541 32 OFFCURVE",
"377 32 CURVE SMOOTH"
);
},
{
closed = 1;
nodes = (
"285 914 LINE",
"190 1007 LINE SMOOTH",
"180 1017 OFFCURVE",
"163 1033 OFFCURVE",
"143 1033 CURVE SMOOTH",
"121 1033 OFFCURVE",
"110 1016 OFFCURVE",
"110 1002 CURVE SMOOTH",
"110 987 OFFCURVE",
"123 971 OFFCURVE",
"146 959 CURVE SMOOTH",
"268 892 LINE"
);
},
{
closed = 1;
nodes = (
"348 861 LINE SMOOTH",
"358 869 OFFCURVE",
"368 877 OFFCURVE",
"376 877 CURVE SMOOTH",
"382 877 OFFCURVE",
"390 872 OFFCURVE",
"399 866 CURVE",
"505 780 LINE",
"524 802 LINE",
"402 931 LINE",
"351 931 LINE",
"229 802 LINE",
"247 780 LINE"
);
}
);
};
components = (
{
name = O;
},
{
name = circumflexgrave;
transform = "{1, 0, 0, 1, 628, 230}";
}
);
layerId = "0B1DFD06-3317-40CA-B510-4969A0718C16";
width = 755;
}
);
leftKerningGroup = O;
note = Ocircumflexgrave;
rightKerningGroup = O;
unicode = 1ED2;
},
{
glyphname = Ocircumflexhookabove;
lastChange = "2017-12-19 03:42:41 +0000";
layers = (
{
background = {
paths = (
{
closed = 1;
nodes = (
"601 -10 OFFCURVE",
"719 124 OFFCURVE",
"719 350 CURVE SMOOTH",
"719 574 OFFCURVE",
"601 710 OFFCURVE",
"378 710 CURVE SMOOTH",
"154 710 OFFCURVE",
"36 574 OFFCURVE",
"36 350 CURVE SMOOTH",
"36 124 OFFCURVE",
"154 -10 OFFCURVE",
"378 -10 CURVE SMOOTH"
);
},
{
closed = 1;
nodes = (
"215 32 OFFCURVE",
"135 158 OFFCURVE",
"135 350 CURVE SMOOTH",
"135 541 OFFCURVE",
"215 668 OFFCURVE",
"377 668 CURVE SMOOTH",
"541 668 OFFCURVE",
"620 541 OFFCURVE",
"620 350 CURVE SMOOTH",
"620 158 OFFCURVE",
"541 32 OFFCURVE",
"377 32 CURVE SMOOTH"
);
},
{
closed = 1;
nodes = (
"344 858 LINE",
"355 868 OFFCURVE",
"367 878 OFFCURVE",
"376 878 CURVE SMOOTH",
"382 878 OFFCURVE",
"390 873 OFFCURVE",
"399 867 CURVE",
"505 781 LINE",
"524 803 LINE",
"402 932 LINE",
"351 932 LINE",
"229 803 LINE",
"247 781 LINE"
);
},
{
closed = 1;
nodes = (
"551 898 LINE",
"532 905 OFFCURVE",
"522 912 OFFCURVE",
"522 926 CURVE SMOOTH",
"522 954 OFFCURVE",
"602 965 OFFCURVE",
"602 1010 CURVE SMOOTH",
"602 1047 OFFCURVE",
"560 1063 OFFCURVE",
"518 1063 CURVE SMOOTH",
"487 1063 OFFCURVE",
"442 1053 OFFCURVE",
"442 1022 CURVE SMOOTH",
"442 1010 OFFCURVE",
"453 1001 OFFCURVE",
"463 1001 CURVE SMOOTH",
"492 1001 OFFCURVE",
"479 1040 OFFCURVE",
"522 1040 CURVE SMOOTH",
"541 1040 OFFCURVE",
"552 1028 OFFCURVE",
"552 1013 CURVE SMOOTH",
"552 973 OFFCURVE",
"479 965 OFFCURVE",
"479 925 CURVE SMOOTH",
"479 901 OFFCURVE",
"495 880 OFFCURVE",
"542 880 CURVE"
);
}
);
};
components = (
{
name = O;
},
{
name = circumflexhookabove;
transform = "{1, 0, 0, 1, 628, 230}";
}
);
layerId = "0B1DFD06-3317-40CA-B510-4969A0718C16";
width = 755;
}
);
leftKerningGroup = O;
note = Ocircumflexhookabove;
rightKerningGroup = O;
unicode = 1ED4;
},
{
glyphname = Ocircumflextilde;
lastChange = "2017-12-19 03:42:41 +0000";
layers = (
{
background = {
paths = (
{
closed = 1;
nodes = (
"601 -10 OFFCURVE",
"719 124 OFFCURVE",
"719 350 CURVE SMOOTH",
"719 574 OFFCURVE",
"601 710 OFFCURVE",
"378 710 CURVE SMOOTH",
"154 710 OFFCURVE",
"36 574 OFFCURVE",
"36 350 CURVE SMOOTH",
"36 124 OFFCURVE",
"154 -10 OFFCURVE",
"378 -10 CURVE SMOOTH"
);
},
{
closed = 1;
nodes = (
"215 32 OFFCURVE",
"135 158 OFFCURVE",
"135 350 CURVE SMOOTH",
"135 541 OFFCURVE",
"215 668 OFFCURVE",
"377 668 CURVE SMOOTH",
"541 668 OFFCURVE",
"620 541 OFFCURVE",
"620 350 CURVE SMOOTH",
"620 158 OFFCURVE",
"541 32 OFFCURVE",
"377 32 CURVE SMOOTH"
);
},
{
closed = 1;
nodes = (
"348 862 LINE SMOOTH",
"358 870 OFFCURVE",
"368 878 OFFCURVE",
"376 878 CURVE SMOOTH",
"382 878 OFFCURVE",
"390 873 OFFCURVE",
"399 867 CURVE",
"505 781 LINE",
"524 803 LINE",
"402 932 LINE",
"351 932 LINE",
"229 803 LINE",
"247 781 LINE"
);
},
{
closed = 1;
nodes = (
"251 997 OFFCURVE",
"269 1018 OFFCURVE",
"300 1018 CURVE SMOOTH",
"349 1018 OFFCURVE",
"396 964 OFFCURVE",
"445 964 CURVE SMOOTH",
"498 964 OFFCURVE",
"527 1012 OFFCURVE",
"539 1063 CURVE",
"518 1075 LINE",
"505 1035 OFFCURVE",
"489 1012 OFFCURVE",
"456 1012 CURVE SMOOTH",
"409 1012 OFFCURVE",
"360 1065 OFFCURVE",
"311 1065 CURVE SMOOTH",
"260 1065 OFFCURVE",
"228 1021 OFFCURVE",
"218 970 CURVE",
"238 958 LINE"
);
}
);
};
components = (
{
name = O;
},
{
name = circumflextilde;
transform = "{1, 0, 0, 1, 628, 230}";
}
);
layerId = "0B1DFD06-3317-40CA-B510-4969A0718C16";
width = 755;
}
);
leftKerningGroup = O;
note = Ocircumflextilde;
rightKerningGroup = O;
unicode = 1ED6;
},
{
glyphname = Odieresis;
lastChange = "2017-12-19 03:42:41 +0000";
layers = (
{
background = {
paths = (
{
closed = 1;
nodes = (
"601 -10 OFFCURVE",
"719 124 OFFCURVE",
"719 350 CURVE SMOOTH",
"719 574 OFFCURVE",
"601 710 OFFCURVE",
"378 710 CURVE SMOOTH",
"154 710 OFFCURVE",
"36 574 OFFCURVE",
"36 350 CURVE SMOOTH",
"36 124 OFFCURVE",
"154 -10 OFFCURVE",
"378 -10 CURVE SMOOTH"
);
},
{
closed = 1;
nodes = (
"215 32 OFFCURVE",
"135 158 OFFCURVE",
"135 350 CURVE SMOOTH",
"135 541 OFFCURVE",
"215 668 OFFCURVE",
"377 668 CURVE SMOOTH",
"541 668 OFFCURVE",
"620 541 OFFCURVE",
"620 350 CURVE SMOOTH",
"620 158 OFFCURVE",
"541 32 OFFCURVE",
"377 32 CURVE SMOOTH"
);
},
{
closed = 1;
nodes = (
"298 781 OFFCURVE",
"316 800 OFFCURVE",
"316 827 CURVE SMOOTH",
"316 855 OFFCURVE",
"298 875 OFFCURVE",
"269 875 CURVE SMOOTH",
"241 875 OFFCURVE",
"223 855 OFFCURVE",
"223 827 CURVE SMOOTH",
"223 800 OFFCURVE",
"241 781 OFFCURVE",
"269 781 CURVE SMOOTH"
);
},
{
closed = 1;
nodes = (
"514 781 OFFCURVE",
"532 800 OFFCURVE",
"532 827 CURVE SMOOTH",
"532 855 OFFCURVE",
"514 875 OFFCURVE",
"485 875 CURVE SMOOTH",
"456 875 OFFCURVE",
"438 855 OFFCURVE",
"438 827 CURVE SMOOTH",
"438 800 OFFCURVE",
"456 781 OFFCURVE",
"485 781 CURVE SMOOTH"
);
}
);
};
components = (
{
name = O;
},
{
name = dieresis;
transform = "{1, 0, 0, 1, 132, 230}";
}
);
layerId = "0B1DFD06-3317-40CA-B510-4969A0718C16";
width = 755;
}
);
leftKerningGroup = O;
note = Odieresis;
rightKerningGroup = O;
unicode = 00D6;
},
{
glyphname = Odotbelow;
lastChange = "2017-12-19 03:42:41 +0000";
layers = (
{
background = {
paths = (
{
closed = 1;
nodes = (
"36 124 OFFCURVE",
"154 -10 OFFCURVE",
"378 -10 CURVE SMOOTH",
"601 -10 OFFCURVE",
"719 124 OFFCURVE",
"719 350 CURVE SMOOTH",
"719 574 OFFCURVE",
"601 710 OFFCURVE",
"378 710 CURVE SMOOTH",
"154 710 OFFCURVE",
"36 574 OFFCURVE",
"36 350 CURVE SMOOTH"
);
},
{
closed = 1;
nodes = (
"135 541 OFFCURVE",
"215 668 OFFCURVE",
"377 668 CURVE SMOOTH",
"541 668 OFFCURVE",
"620 541 OFFCURVE",
"620 350 CURVE SMOOTH",
"620 158 OFFCURVE",
"541 32 OFFCURVE",
"377 32 CURVE SMOOTH",
"215 32 OFFCURVE",
"135 158 OFFCURVE",
"135 350 CURVE SMOOTH"
);
},
{
closed = 1;
nodes = (
"330 -140 OFFCURVE",
"349 -159 OFFCURVE",
"377 -159 CURVE SMOOTH",
"405 -159 OFFCURVE",
"423 -140 OFFCURVE",
"423 -112 CURVE SMOOTH",
"423 -84 OFFCURVE",
"405 -64 OFFCURVE",
"377 -64 CURVE SMOOTH",
"349 -64 OFFCURVE",
"330 -84 OFFCURVE",
"330 -112 CURVE SMOOTH"
);
}
);
};
components = (
{
name = O;
},
{
name = dotbelowcomb;
transform = "{1, 0, 0, 1, 629, 0}";
}
);
layerId = "0B1DFD06-3317-40CA-B510-4969A0718C16";
width = 755;
}
);
leftKerningGroup = O;
note = Odotbelow;
rightKerningGroup = O;
unicode = 1ECC;
},
{
glyphname = Ograve;
lastChange = "2017-12-19 03:42:41 +0000";
layers = (
{
background = {
paths = (
{
closed = 1;
nodes = (
"601 -10 OFFCURVE",
"719 124 OFFCURVE",
"719 350 CURVE SMOOTH",
"719 574 OFFCURVE",
"601 710 OFFCURVE",
"378 710 CURVE SMOOTH",
"154 710 OFFCURVE",
"36 574 OFFCURVE",
"36 350 CURVE SMOOTH",
"36 124 OFFCURVE",
"154 -10 OFFCURVE",
"378 -10 CURVE SMOOTH"
);
},
{
closed = 1;
nodes = (
"215 32 OFFCURVE",
"135 158 OFFCURVE",
"135 350 CURVE SMOOTH",
"135 541 OFFCURVE",
"215 668 OFFCURVE",
"377 668 CURVE SMOOTH",
"541 668 OFFCURVE",
"620 541 OFFCURVE",
"620 350 CURVE SMOOTH",
"620 158 OFFCURVE",
"541 32 OFFCURVE",
"377 32 CURVE SMOOTH"
);
},
{
closed = 1;
nodes = (
"459 807 LINE",
"344 913 LINE",
"335 922 OFFCURVE",
"319 937 OFFCURVE",
"299 937 CURVE SMOOTH",
"279 937 OFFCURVE",
"267 924 OFFCURVE",
"267 908 CURVE SMOOTH",
"267 890 OFFCURVE",
"279 876 OFFCURVE",
"298 865 CURVE SMOOTH",
"441 782 LINE"
);
}
);
};
components = (
{
name = O;
},
{
name = grave;
transform = "{1, 0, 0, 1, 132, 230}";
}
);
layerId = "0B1DFD06-3317-40CA-B510-4969A0718C16";
width = 755;
}
);
leftKerningGroup = O;
note = Ograve;
rightKerningGroup = O;
unicode = 00D2;
},
{
glyphname = Ohookabove;
lastChange = "2017-12-19 03:42:41 +0000";
layers = (
{
background = {
paths = (
{
closed = 1;
nodes = (
"601 -10 OFFCURVE",
"719 124 OFFCURVE",
"719 350 CURVE SMOOTH",
"719 574 OFFCURVE",
"601 710 OFFCURVE",
"378 710 CURVE SMOOTH",
"154 710 OFFCURVE",
"36 574 OFFCURVE",
"36 350 CURVE SMOOTH",
"36 124 OFFCURVE",
"154 -10 OFFCURVE",
"378 -10 CURVE SMOOTH"
);
},
{
closed = 1;
nodes = (
"215 32 OFFCURVE",
"135 158 OFFCURVE",
"135 350 CURVE SMOOTH",
"135 541 OFFCURVE",
"215 668 OFFCURVE",
"377 668 CURVE SMOOTH",
"541 668 OFFCURVE",
"620 541 OFFCURVE",
"620 350 CURVE SMOOTH",
"620 158 OFFCURVE",
"541 32 OFFCURVE",
"377 32 CURVE SMOOTH"
);
},
{
closed = 1;
nodes = (
"407 798 LINE",
"388 805 OFFCURVE",
"376 811 OFFCURVE",
"376 828 CURVE SMOOTH",
"376 861 OFFCURVE",
"465 876 OFFCURVE",
"465 927 CURVE SMOOTH",
"465 969 OFFCURVE",
"429 991 OFFCURVE",
"376 991 CURVE SMOOTH",
"329 991 OFFCURVE",
"288 974 OFFCURVE",
"288 940 CURVE SMOOTH",
"288 923 OFFCURVE",
"296 915 OFFCURVE",
"311 915 CURVE SMOOTH",
"334 915 OFFCURVE",
"336 934 OFFCURVE",
"339 942 CURVE SMOOTH",
"344 956 OFFCURVE",
"361 962 OFFCURVE",
"377 962 CURVE SMOOTH",
"398 962 OFFCURVE",
"411 947 OFFCURVE",
"411 930 CURVE SMOOTH",
"411 885 OFFCURVE",
"329 874 OFFCURVE",
"329 828 CURVE SMOOTH",
"329 801 OFFCURVE",
"347 778 OFFCURVE",
"398 778 CURVE"
);
}
);
};
components = (
{
name = O;
},
{
name = hookabovecomb;
transform = "{1, 0, 0, 1, 629, 230}";
}
);
layerId = "0B1DFD06-3317-40CA-B510-4969A0718C16";
width = 755;
}
);
leftKerningGroup = O;
note = Ohookabove;
rightKerningGroup = O;
unicode = 1ECE;
},
{
glyphname = Ohorn;
lastChange = "2017-12-19 03:42:41 +0000";
layers = (
{
layerId = "0B1DFD06-3317-40CA-B510-4969A0718C16";
paths = (
{
closed = 1;
nodes = (
"641 470 LINE SMOOTH",
"641 517 OFFCURVE",
"626 564 OFFCURVE",
"601 604 CURVE",
"693 645 OFFCURVE",
"707 756 OFFCURVE",
"707 833 CURVE",
"641 833 LINE",
"641 775 OFFCURVE",
"634 684 OFFCURVE",
"556 657 CURVE",
"517 693 OFFCURVE",
"466 715 OFFCURVE",
"411 715 CURVE SMOOTH",
"332 715 LINE SMOOTH",
"178 715 OFFCURVE",
"52 578 OFFCURVE",
"52 420 CURVE SMOOTH",
"52 230 LINE SMOOTH",
"52 102 OFFCURVE",
"153 -15 OFFCURVE",
"281 -15 CURVE SMOOTH",
"362 -15 LINE SMOOTH",
"514 -15 OFFCURVE",
"641 122 OFFCURVE",
"641 280 CURVE SMOOTH"
);
},
{
closed = 1;
nodes = (
"575 280 LINE SMOOTH",
"575 159 OFFCURVE",
"477 44 OFFCURVE",
"362 44 CURVE SMOOTH",
"281 44 LINE SMOOTH",
"190 44 OFFCURVE",
"118 139 OFFCURVE",
"118 230 CURVE SMOOTH",
"118 420 LINE SMOOTH",
"118 541 OFFCURVE",
"215 656 OFFCURVE",
"332 656 CURVE SMOOTH",
"411 656 LINE SMOOTH",
"502 656 OFFCURVE",
"575 561 OFFCURVE",
"575 470 CURVE SMOOTH"
);
}
);
width = 691;
}
);
note = Ohorn;
unicode = 01A0;
},
{
glyphname = Ohornacute;
lastChange = "2017-12-19 03:42:41 +0000";
layers = (
{
background = {
paths = (
{
closed = 1;
nodes = (
"602 -10 OFFCURVE",
"720 124 OFFCURVE",
"720 350 CURVE SMOOTH",
"720 574 OFFCURVE",
"602 710 OFFCURVE",
"379 710 CURVE SMOOTH",
"155 710 OFFCURVE",
"37 574 OFFCURVE",
"37 350 CURVE SMOOTH",
"37 124 OFFCURVE",
"155 -10 OFFCURVE",
"379 -10 CURVE SMOOTH"
);
},
{
closed = 1;
nodes = (
"216 32 OFFCURVE",
"136 158 OFFCURVE",
"136 350 CURVE SMOOTH",
"136 541 OFFCURVE",
"216 668 OFFCURVE",
"378 668 CURVE SMOOTH",
"542 668 OFFCURVE",
"621 541 OFFCURVE",
"621 350 CURVE SMOOTH",
"621 158 OFFCURVE",
"542 32 OFFCURVE",
"378 32 CURVE SMOOTH"
);
},
{
closed = 1;
nodes = (
"424 864 LINE SMOOTH",
"446 876 OFFCURVE",
"458 889 OFFCURVE",
"458 906 CURVE SMOOTH",
"458 921 OFFCURVE",
"446 936 OFFCURVE",
"424 936 CURVE SMOOTH",
"403 936 OFFCURVE",
"388 920 OFFCURVE",
"380 913 CURVE SMOOTH",
"265 806 LINE",
"282 781 LINE"
);
},
{
closed = 1;
nodes = (
"691 567 OFFCURVE",
"756 632 OFFCURVE",
"756 705 CURVE SMOOTH",
"756 752 OFFCURVE",
"729 772 OFFCURVE",
"701 772 CURVE SMOOTH",
"672 772 OFFCURVE",
"656 752 OFFCURVE",
"656 729 CURVE SMOOTH",
"656 695 OFFCURVE",
"689 688 OFFCURVE",
"689 653 CURVE SMOOTH",
"689 617 OFFCURVE",
"658 588 OFFCURVE",
"623 568 CURVE",
"623 543 LINE"
);
}
);
};
components = (
{
name = acute;
transform = "{1, 0, 0, 1, 120, 230}";
},
{
name = Ohorn;
}
);
layerId = "0B1DFD06-3317-40CA-B510-4969A0718C16";
width = 755;
}
);
leftKerningGroup = O;
note = Ohornacute;
rightKerningGroup = O;
unicode = 1EDA;
},
{
glyphname = Ohorndotbelow;
lastChange = "2017-12-19 03:42:41 +0000";
layers = (
{
background = {
paths = (
{
closed = 1;
nodes = (
"602 -10 OFFCURVE",
"720 124 OFFCURVE",
"720 350 CURVE SMOOTH",
"720 574 OFFCURVE",
"602 710 OFFCURVE",
"379 710 CURVE SMOOTH",
"155 710 OFFCURVE",
"37 574 OFFCURVE",
"37 350 CURVE SMOOTH",
"37 124 OFFCURVE",
"155 -10 OFFCURVE",
"379 -10 CURVE SMOOTH"
);
},
{
closed = 1;
nodes = (
"216 32 OFFCURVE",
"136 158 OFFCURVE",
"136 350 CURVE SMOOTH",
"136 541 OFFCURVE",
"216 668 OFFCURVE",
"378 668 CURVE SMOOTH",
"542 668 OFFCURVE",
"621 541 OFFCURVE",
"621 350 CURVE SMOOTH",
"621 158 OFFCURVE",
"542 32 OFFCURVE",
"378 32 CURVE SMOOTH"
);
},
{
closed = 1;
nodes = (
"691 567 OFFCURVE",
"756 632 OFFCURVE",
"756 705 CURVE SMOOTH",
"756 752 OFFCURVE",
"729 772 OFFCURVE",
"701 772 CURVE SMOOTH",
"672 772 OFFCURVE",
"656 752 OFFCURVE",
"656 729 CURVE SMOOTH",
"656 695 OFFCURVE",
"689 688 OFFCURVE",
"689 653 CURVE SMOOTH",
"689 617 OFFCURVE",
"658 588 OFFCURVE",
"623 568 CURVE",
"623 543 LINE"
);
},
{
closed = 1;
nodes = (
"395 -159 OFFCURVE",
"413 -140 OFFCURVE",
"413 -112 CURVE SMOOTH",
"413 -84 OFFCURVE",
"395 -64 OFFCURVE",
"367 -64 CURVE SMOOTH",
"339 -64 OFFCURVE",
"320 -84 OFFCURVE",
"320 -112 CURVE SMOOTH",
"320 -140 OFFCURVE",
"339 -159 OFFCURVE",
"367 -159 CURVE SMOOTH"
);
}
);
};
components = (
{
name = dotbelowcomb;
transform = "{1, 0, 0, 1, 629, 0}";
},
{
name = Ohorn;
}
);
layerId = "0B1DFD06-3317-40CA-B510-4969A0718C16";
width = 755;
}
);
leftKerningGroup = O;
note = Ohorndotbelow;
rightKerningGroup = O;
unicode = 1EE2;
},
{
glyphname = Ohorngrave;
lastChange = "2017-12-19 03:42:41 +0000";
layers = (
{
background = {
paths = (
{
closed = 1;
nodes = (
"602 -10 OFFCURVE",
"720 124 OFFCURVE",
"720 350 CURVE SMOOTH",
"720 574 OFFCURVE",
"602 710 OFFCURVE",
"379 710 CURVE SMOOTH",
"155 710 OFFCURVE",
"37 574 OFFCURVE",
"37 350 CURVE SMOOTH",
"37 124 OFFCURVE",
"155 -10 OFFCURVE",
"379 -10 CURVE SMOOTH"
);
},
{
closed = 1;
nodes = (
"216 32 OFFCURVE",
"136 158 OFFCURVE",
"136 350 CURVE SMOOTH",
"136 541 OFFCURVE",
"216 668 OFFCURVE",
"378 668 CURVE SMOOTH",
"542 668 OFFCURVE",
"621 541 OFFCURVE",
"621 350 CURVE SMOOTH",
"621 158 OFFCURVE",
"542 32 OFFCURVE",
"378 32 CURVE SMOOTH"
);
},
{
closed = 1;
nodes = (
"464 816 LINE",
"349 922 LINE",
"340 931 OFFCURVE",
"324 946 OFFCURVE",
"304 946 CURVE SMOOTH",
"284 946 OFFCURVE",
"272 933 OFFCURVE",
"272 917 CURVE SMOOTH",
"272 899 OFFCURVE",
"284 885 OFFCURVE",
"303 874 CURVE SMOOTH",
"446 791 LINE"
);
},
{
closed = 1;
nodes = (
"691 567 OFFCURVE",
"756 632 OFFCURVE",
"756 705 CURVE SMOOTH",
"756 752 OFFCURVE",
"729 772 OFFCURVE",
"701 772 CURVE SMOOTH",
"672 772 OFFCURVE",
"656 752 OFFCURVE",
"656 729 CURVE SMOOTH",
"656 695 OFFCURVE",
"689 688 OFFCURVE",
"689 653 CURVE SMOOTH",
"689 617 OFFCURVE",
"658 588 OFFCURVE",
"623 568 CURVE",
"623 543 LINE"
);
}
);
};
components = (
{
name = grave;
transform = "{1, 0, 0, 1, 132, 230}";
},
{
name = Ohorn;
}
);
layerId = "0B1DFD06-3317-40CA-B510-4969A0718C16";
width = 755;
}
);
leftKerningGroup = O;
note = Ohorngrave;
rightKerningGroup = O;
unicode = 1EDC;
},
{
glyphname = Ohornhookabove;
lastChange = "2017-12-19 03:42:41 +0000";
layers = (
{
background = {
paths = (
{
closed = 1;
nodes = (
"602 -10 OFFCURVE",
"720 124 OFFCURVE",
"720 350 CURVE SMOOTH",
"720 574 OFFCURVE",
"602 710 OFFCURVE",
"379 710 CURVE SMOOTH",
"155 710 OFFCURVE",
"37 574 OFFCURVE",
"37 350 CURVE SMOOTH",
"37 124 OFFCURVE",
"155 -10 OFFCURVE",
"379 -10 CURVE SMOOTH"
);
},
{
closed = 1;
nodes = (
"216 32 OFFCURVE",
"136 158 OFFCURVE",
"136 350 CURVE SMOOTH",
"136 541 OFFCURVE",
"216 668 OFFCURVE",
"378 668 CURVE SMOOTH",
"542 668 OFFCURVE",
"621 541 OFFCURVE",
"621 350 CURVE SMOOTH",
"621 158 OFFCURVE",
"542 32 OFFCURVE",
"378 32 CURVE SMOOTH"
);
},
{
closed = 1;
nodes = (
"412 809 LINE",
"393 816 OFFCURVE",
"381 822 OFFCURVE",
"381 839 CURVE SMOOTH",
"381 872 OFFCURVE",
"470 887 OFFCURVE",
"470 938 CURVE SMOOTH",
"470 980 OFFCURVE",
"434 1002 OFFCURVE",
"381 1002 CURVE SMOOTH",
"334 1002 OFFCURVE",
"293 985 OFFCURVE",
"293 951 CURVE SMOOTH",
"293 934 OFFCURVE",
"301 926 OFFCURVE",
"316 926 CURVE SMOOTH",
"339 926 OFFCURVE",
"341 945 OFFCURVE",
"344 953 CURVE SMOOTH",
"349 967 OFFCURVE",
"366 973 OFFCURVE",
"382 973 CURVE SMOOTH",
"403 973 OFFCURVE",
"416 958 OFFCURVE",
"416 941 CURVE SMOOTH",
"416 896 OFFCURVE",
"334 885 OFFCURVE",
"334 839 CURVE SMOOTH",
"334 812 OFFCURVE",
"352 789 OFFCURVE",
"403 789 CURVE"
);
},
{
closed = 1;
nodes = (
"691 567 OFFCURVE",
"756 632 OFFCURVE",
"756 705 CURVE SMOOTH",
"756 752 OFFCURVE",
"729 772 OFFCURVE",
"701 772 CURVE SMOOTH",
"672 772 OFFCURVE",
"656 752 OFFCURVE",
"656 729 CURVE SMOOTH",
"656 695 OFFCURVE",
"689 688 OFFCURVE",
"689 653 CURVE SMOOTH",
"689 617 OFFCURVE",
"658 588 OFFCURVE",
"623 568 CURVE",
"623 543 LINE"
);
}
);
};
components = (
{
name = hookabovecomb;
transform = "{1, 0, 0, 1, 629, 230}";
},
{
name = Ohorn;
}
);
layerId = "0B1DFD06-3317-40CA-B510-4969A0718C16";
width = 755;
}
);
leftKerningGroup = O;
note = Ohornhookabove;
rightKerningGroup = O;
unicode = 1EDE;
},
{
glyphname = Ohorntilde;
lastChange = "2017-12-19 03:42:41 +0000";
layers = (
{
background = {
paths = (
{
closed = 1;
nodes = (
"602 -10 OFFCURVE",
"720 124 OFFCURVE",
"720 350 CURVE SMOOTH",
"720 574 OFFCURVE",
"602 710 OFFCURVE",
"379 710 CURVE SMOOTH",
"155 710 OFFCURVE",
"37 574 OFFCURVE",
"37 350 CURVE SMOOTH",
"37 124 OFFCURVE",
"155 -10 OFFCURVE",
"379 -10 CURVE SMOOTH"
);
},
{
closed = 1;
nodes = (
"216 32 OFFCURVE",
"136 158 OFFCURVE",
"136 350 CURVE SMOOTH",
"136 541 OFFCURVE",
"216 668 OFFCURVE",
"378 668 CURVE SMOOTH",
"542 668 OFFCURVE",
"621 541 OFFCURVE",
"621 350 CURVE SMOOTH",
"621 158 OFFCURVE",
"542 32 OFFCURVE",
"378 32 CURVE SMOOTH"
);
},
{
closed = 1;
nodes = (
"234 828 OFFCURVE",
"252 849 OFFCURVE",
"285 849 CURVE SMOOTH",
"336 849 OFFCURVE",
"385 795 OFFCURVE",
"436 795 CURVE SMOOTH",
"494 795 OFFCURVE",
"524 843 OFFCURVE",
"536 895 CURVE",
"515 906 LINE",
"499 866 OFFCURVE",
"483 844 OFFCURVE",
"449 844 CURVE SMOOTH",
"400 844 OFFCURVE",
"348 897 OFFCURVE",
"297 897 CURVE SMOOTH",
"243 897 OFFCURVE",
"210 853 OFFCURVE",
"198 801 CURVE",
"220 790 LINE"
);
},
{
closed = 1;
nodes = (
"691 567 OFFCURVE",
"756 632 OFFCURVE",
"756 705 CURVE SMOOTH",
"756 752 OFFCURVE",
"729 772 OFFCURVE",
"701 772 CURVE SMOOTH",
"672 772 OFFCURVE",
"656 752 OFFCURVE",
"656 729 CURVE SMOOTH",
"656 695 OFFCURVE",
"689 688 OFFCURVE",
"689 653 CURVE SMOOTH",
"689 617 OFFCURVE",
"658 588 OFFCURVE",
"623 568 CURVE",
"623 543 LINE"
);
}
);
};
components = (
{
name = tilde;
transform = "{1, 0, 0, 1, 132, 230}";
},
{
name = Ohorn;
}
);
layerId = "0B1DFD06-3317-40CA-B510-4969A0718C16";
width = 755;
}
);
leftKerningGroup = O;
note = Ohorntilde;
rightKerningGroup = O;
unicode = 1EE0;
},
{
glyphname = Ohungarumlaut;
lastChange = "2017-12-19 03:42:41 +0000";
layers = (
{
background = {
paths = (
{
closed = 1;
nodes = (
"601 -10 OFFCURVE",
"719 124 OFFCURVE",
"719 350 CURVE SMOOTH",
"719 574 OFFCURVE",
"601 710 OFFCURVE",
"378 710 CURVE SMOOTH",
"154 710 OFFCURVE",
"36 574 OFFCURVE",
"36 350 CURVE SMOOTH",
"36 124 OFFCURVE",
"154 -10 OFFCURVE",
"378 -10 CURVE SMOOTH"
);
},
{
closed = 1;
nodes = (
"215 32 OFFCURVE",
"135 158 OFFCURVE",
"135 350 CURVE SMOOTH",
"135 541 OFFCURVE",
"215 668 OFFCURVE",
"377 668 CURVE SMOOTH",
"541 668 OFFCURVE",
"620 541 OFFCURVE",
"620 350 CURVE SMOOTH",
"620 158 OFFCURVE",
"541 32 OFFCURVE",
"377 32 CURVE SMOOTH"
);
},
{
closed = 1;
nodes = (
"395 864 LINE SMOOTH",
"417 877 OFFCURVE",
"429 891 OFFCURVE",
"429 908 CURVE SMOOTH",
"429 922 OFFCURVE",
"421 937 OFFCURVE",
"399 937 CURVE SMOOTH",
"378 937 OFFCURVE",
"357 919 OFFCURVE",
"350 913 CURVE",
"236 807 LINE",
"253 782 LINE"
);
},
{
closed = 1;
nodes = (
"556 864 LINE SMOOTH",
"577 877 OFFCURVE",
"589 891 OFFCURVE",
"589 908 CURVE SMOOTH",
"589 922 OFFCURVE",
"578 937 OFFCURVE",
"556 937 CURVE SMOOTH",
"534 937 OFFCURVE",
"517 919 OFFCURVE",
"510 913 CURVE",
"396 807 LINE",
"414 782 LINE"
);
}
);
};
components = (
{
name = O;
},
{
name = hungarumlaut;
transform = "{1, 0, 0, 1, 131, 230}";
}
);
layerId = "0B1DFD06-3317-40CA-B510-4969A0718C16";
width = 755;
}
);
leftKerningGroup = O;
note = Ohungarumlaut;
rightKerningGroup = O;
unicode = 0150;
},
{
glyphname = Omacron;
lastChange = "2017-12-19 03:42:41 +0000";
layers = (
{
background = {
paths = (
{
closed = 1;
nodes = (
"601 -10 OFFCURVE",
"719 124 OFFCURVE",
"719 350 CURVE SMOOTH",
"719 574 OFFCURVE",
"601 710 OFFCURVE",
"378 710 CURVE SMOOTH",
"154 710 OFFCURVE",
"36 574 OFFCURVE",
"36 350 CURVE SMOOTH",
"36 124 OFFCURVE",
"154 -10 OFFCURVE",
"378 -10 CURVE SMOOTH"
);
},
{
closed = 1;
nodes = (
"215 32 OFFCURVE",
"135 158 OFFCURVE",
"135 350 CURVE SMOOTH",
"135 541 OFFCURVE",
"215 668 OFFCURVE",
"377 668 CURVE SMOOTH",
"541 668 OFFCURVE",
"620 541 OFFCURVE",
"620 350 CURVE SMOOTH",
"620 158 OFFCURVE",
"541 32 OFFCURVE",
"377 32 CURVE SMOOTH"
);
},
{
closed = 1;
nodes = (
"543 793 LINE",
"543 835 LINE",
"210 835 LINE",
"210 793 LINE"
);
}
);
};
components = (
{
name = O;
},
{
name = macron;
transform = "{1, 0, 0, 1, 132, 230}";
}
);
layerId = "0B1DFD06-3317-40CA-B510-4969A0718C16";
width = 755;
}
);
leftKerningGroup = O;
note = Omacron;
rightKerningGroup = O;
unicode = 014C;
},
{
glyphname = Oslash;
lastChange = "2017-12-19 03:42:41 +0000";
layers = (
{
layerId = "0B1DFD06-3317-40CA-B510-4969A0718C16";
paths = (
{
closed = 1;
nodes = (
"125 -25 LINE",
"159 24 LINE",
"195 0 OFFCURVE",
"236 -15 OFFCURVE",
"281 -15 CURVE SMOOTH",
"362 -15 LINE SMOOTH",
"514 -15 OFFCURVE",
"641 122 OFFCURVE",
"641 280 CURVE SMOOTH",
"641 470 LINE SMOOTH",
"641 533 OFFCURVE",
"616 592 OFFCURVE",
"576 638 CURVE",
"634 722 LINE",
"569 722 LINE",
"536 673 LINE",
"500 700 OFFCURVE",
"457 715 OFFCURVE",
"411 715 CURVE SMOOTH",
"332 715 LINE SMOOTH",
"178 715 OFFCURVE",
"52 578 OFFCURVE",
"52 420 CURVE SMOOTH",
"52 230 LINE SMOOTH",
"52 167 OFFCURVE",
"75 105 OFFCURVE",
"116 60 CURVE",
"59 -25 LINE"
);
},
{
closed = 1;
nodes = (
"118 420 LINE SMOOTH",
"118 541 OFFCURVE",
"215 656 OFFCURVE",
"332 656 CURVE SMOOTH",
"411 656 LINE SMOOTH",
"444 656 OFFCURVE",
"474 642 OFFCURVE",
"501 622 CURVE",
"155 116 LINE",
"131 149 OFFCURVE",
"118 190 OFFCURVE",
"118 230 CURVE SMOOTH"
);
},
{
closed = 1;
nodes = (
"575 280 LINE SMOOTH",
"575 159 OFFCURVE",
"477 44 OFFCURVE",
"362 44 CURVE SMOOTH",
"281 44 LINE SMOOTH",
"249 44 OFFCURVE",
"218 56 OFFCURVE",
"193 75 CURVE",
"538 582 LINE",
"561 550 OFFCURVE",
"575 508 OFFCURVE",
"575 470 CURVE SMOOTH"
);
}
);
width = 701;
}
);
note = Oslash;
unicode = 00D8;
},
{
glyphname = OE;
lastChange = "2017-12-19 03:42:41 +0000";
layers = (
{
layerId = "0B1DFD06-3317-40CA-B510-4969A0718C16";
paths = (
{
closed = 1;
nodes = (
"1046 0 LINE",
"1046 66 LINE",
"578 66 LINE",
"578 332 LINE",
"974 332 LINE",
"974 398 LINE",
"578 398 LINE",
"578 634 LINE",
"1046 634 LINE",
"1046 700 LINE",
"333 700 LINE SMOOTH",
"180 700 OFFCURVE",
"53 578 OFFCURVE",
"53 420 CURVE SMOOTH",
"53 230 LINE SMOOTH",
"53 102 OFFCURVE",
"155 0 OFFCURVE",
"283 0 CURVE SMOOTH"
);
},
{
closed = 1;
nodes = (
"283 66 LINE SMOOTH",
"192 66 OFFCURVE",
"119 139 OFFCURVE",
"119 230 CURVE SMOOTH",
"119 420 LINE SMOOTH",
"119 541 OFFCURVE",
"217 634 OFFCURVE",
"333 634 CURVE SMOOTH",
"413 634 LINE SMOOTH",
"449 634 OFFCURVE",
"483 622 OFFCURVE",
"511 601 CURVE",
"511 125 LINE",
"473 88 OFFCURVE",
"420 66 OFFCURVE",
"364 66 CURVE SMOOTH"
);
}
);
width = 1107;
}
);
note = OE;
unicode = 0152;
},
{
glyphname = Thorn;
lastChange = "2017-12-19 03:42:41 +0000";
layers = (
{
layerId = "0B1DFD06-3317-40CA-B510-4969A0718C16";
paths = (
{
closed = 1;
nodes = (
"155 575 LINE",
"155 716 LINE",
"88 716 LINE",
"88 0 LINE",
"155 0 LINE",
"155 164 LINE",
"248 164 LINE SMOOTH",
"399 164 OFFCURVE",
"525 222 OFFCURVE",
"525 380 CURVE SMOOTH",
"525 508 OFFCURVE",
"414 575 OFFCURVE",
"286 575 CURVE SMOOTH"
);
},
{
closed = 1;
nodes = (
"155 516 LINE",
"286 516 LINE SMOOTH",
"367 516 OFFCURVE",
"458 472 OFFCURVE",
"458 380 CURVE SMOOTH",
"458 259 OFFCURVE",
"362 222 OFFCURVE",
"248 222 CURVE SMOOTH",
"155 222 LINE"
);
}
);
width = 582;
}
);
note = Thorn;
unicode = 00DE;
},
{
color = 0;
glyphname = Germandbls;
lastChange = "2017-12-19 03:41:30 +0000";
layers = (
{
layerId = "0B1DFD06-3317-40CA-B510-4969A0718C16";
paths = (
{
closed = 1;
nodes = (
"606 -10 OFFCURVE",
"674 88 OFFCURVE",
"674 203 CURVE SMOOTH",
"674 313 OFFCURVE",
"592 385 OFFCURVE",
"445 398 CURVE",
"591 553 LINE",
"569 627 OFFCURVE",
"489 710 OFFCURVE",
"354 710 CURVE SMOOTH",
"177 710 OFFCURVE",
"92 616 OFFCURVE",
"92 470 CURVE SMOOTH",
"92 62 LINE SMOOTH",
"92 37 OFFCURVE",
"72 26 OFFCURVE",
"33 26 CURVE SMOOTH",
"5 26 LINE",
"5 0 LINE",
"255 0 LINE",
"255 26 LINE",
"227 26 LINE SMOOTH",
"202 26 OFFCURVE",
"188 44 OFFCURVE",
"188 63 CURVE SMOOTH",
"188 495 LINE SMOOTH",
"188 602 OFFCURVE",
"246 668 OFFCURVE",
"347 668 CURVE SMOOTH",
"431 668 OFFCURVE",
"479 617 OFFCURVE",
"499 555 CURVE",
"344 387 LINE",
"344 361 LINE",
"406 361 LINE SMOOTH",
"520 361 OFFCURVE",
"578 296 OFFCURVE",
"578 203 CURVE SMOOTH",
"578 100 OFFCURVE",
"521 29 OFFCURVE",
"419 29 CURVE SMOOTH",
"374 29 OFFCURVE",
"324 37 OFFCURVE",
"277 56 CURVE",
"277 14 LINE",
"318 -2 OFFCURVE",
"367 -10 OFFCURVE",
"423 -10 CURVE SMOOTH"
);
}
);
width = 703;
}
);
note = uni1E9E;
unicode = 1E9E;
},
{
color = 0;
glyphname = Schwa;
lastChange = "2017-12-18 11:14:42 +0000";
layers = (
{
layerId = "0B1DFD06-3317-40CA-B510-4969A0718C16";
paths = (
{
closed = 1;
nodes = (
"543 -10 OFFCURVE",
"658 120 OFFCURVE",
"658 346 CURVE SMOOTH",
"658 569 OFFCURVE",
"533 710 OFFCURVE",
"323 710 CURVE SMOOTH",
"160 710 OFFCURVE",
"56 618 OFFCURVE",
"41 500 CURVE",
"84 500 LINE",
"111 616 OFFCURVE",
"202 660 OFFCURVE",
"298 660 CURVE SMOOTH",
"479 660 OFFCURVE",
"559 515 OFFCURVE",
"559 341 CURVE SMOOTH",
"559 185 OFFCURVE",
"486 39 OFFCURVE",
"327 39 CURVE SMOOTH",
"181 39 OFFCURVE",
"133 180 OFFCURVE",
"132 283 CURVE",
"573 283 LINE",
"573 333 LINE",
"33 333 LINE",
"33 303 LINE SMOOTH",
"33 132 OFFCURVE",
"119 -10 OFFCURVE",
"330 -10 CURVE SMOOTH"
);
}
);
width = 692;
}
);
note = uni018F;
unicode = 018F;
},
{
glyphname = Tbar;
lastChange = "2017-12-19 03:42:44 +0000";
layers = (
{
components = (
{
name = T;
}
);
layerId = "0B1DFD06-3317-40CA-B510-4969A0718C16";
paths = (
{
closed = 1;
nodes = (
"520 317 LINE",
"520 363 LINE",
"134 363 LINE",
"134 317 LINE"
);
}
);
width = 652;
}
);
leftKerningGroup = T;
note = Tbar;
rightKerningGroup = T;
unicode = 0166;
},
{
glyphname = Uacute;
lastChange = "2017-12-19 03:42:44 +0000";
layers = (
{
background = {
paths = (
{
closed = 1;
nodes = (
"539 -10 OFFCURVE",
"636 51 OFFCURVE",
"636 204 CURVE SMOOTH",
"636 637 LINE SMOOTH",
"636 662 OFFCURVE",
"660 673 OFFCURVE",
"690 673 CURVE SMOOTH",
"713 673 LINE",
"713 700 LINE",
"510 700 LINE",
"510 673 LINE",
"532 673 LINE SMOOTH",
"564 673 OFFCURVE",
"586 662 OFFCURVE",
"586 637 CURVE SMOOTH",
"586 197 LINE SMOOTH",
"586 65 OFFCURVE",
"489 31 OFFCURVE",
"397 31 CURVE SMOOTH",
"290 31 OFFCURVE",
"203 63 OFFCURVE",
"203 197 CURVE SMOOTH",
"203 637 LINE SMOOTH",
"203 662 OFFCURVE",
"226 673 OFFCURVE",
"257 673 CURVE SMOOTH",
"280 673 LINE",
"280 700 LINE",
"28 700 LINE",
"28 673 LINE",
"51 673 LINE SMOOTH",
"82 673 OFFCURVE",
"105 662 OFFCURVE",
"105 637 CURVE SMOOTH",
"105 204 LINE SMOOTH",
"105 46 OFFCURVE",
"208 -10 OFFCURVE",
"375 -10 CURVE SMOOTH"
);
},
{
closed = 1;
nodes = (
"447 865 LINE SMOOTH",
"469 877 OFFCURVE",
"481 890 OFFCURVE",
"481 907 CURVE SMOOTH",
"481 922 OFFCURVE",
"469 937 OFFCURVE",
"447 937 CURVE SMOOTH",
"426 937 OFFCURVE",
"411 921 OFFCURVE",
"403 914 CURVE SMOOTH",
"288 807 LINE",
"305 782 LINE"
);
}
);
};
components = (
{
name = U;
},
{
name = acute;
transform = "{1, 0, 0, 1, 136, 230}";
}
);
layerId = "0B1DFD06-3317-40CA-B510-4969A0718C16";
width = 742;
}
);
leftKerningGroup = U;
note = Uacute;
rightKerningGroup = U;
unicode = 00DA;
},
{
glyphname = Ubreve;
lastChange = "2017-12-19 03:42:44 +0000";
layers = (
{
background = {
paths = (
{
closed = 1;
nodes = (
"539 -10 OFFCURVE",
"636 51 OFFCURVE",
"636 204 CURVE SMOOTH",
"636 637 LINE SMOOTH",
"636 662 OFFCURVE",
"660 673 OFFCURVE",
"690 673 CURVE SMOOTH",
"713 673 LINE",
"713 700 LINE",
"510 700 LINE",
"510 673 LINE",
"532 673 LINE SMOOTH",
"564 673 OFFCURVE",
"586 662 OFFCURVE",
"586 637 CURVE SMOOTH",
"586 197 LINE SMOOTH",
"586 65 OFFCURVE",
"489 31 OFFCURVE",
"397 31 CURVE SMOOTH",
"290 31 OFFCURVE",
"203 63 OFFCURVE",
"203 197 CURVE SMOOTH",
"203 637 LINE SMOOTH",
"203 662 OFFCURVE",
"226 673 OFFCURVE",
"257 673 CURVE SMOOTH",
"280 673 LINE",
"280 700 LINE",
"28 700 LINE",
"28 673 LINE",
"51 673 LINE SMOOTH",
"82 673 OFFCURVE",
"105 662 OFFCURVE",
"105 637 CURVE SMOOTH",
"105 204 LINE SMOOTH",
"105 46 OFFCURVE",
"208 -10 OFFCURVE",
"375 -10 CURVE SMOOTH"
);
},
{
closed = 1;
nodes = (
"483 774 OFFCURVE",
"525 830 OFFCURVE",
"529 905 CURVE",
"496 905 LINE",
"490 846 OFFCURVE",
"448 820 OFFCURVE",
"384 820 CURVE SMOOTH",
"320 820 OFFCURVE",
"277 846 OFFCURVE",
"270 905 CURVE",
"237 905 LINE",
"241 827 OFFCURVE",
"283 774 OFFCURVE",
"384 774 CURVE SMOOTH"
);
}
);
};
components = (
{
name = U;
},
{
name = breve;
transform = "{1, 0, 0, 1, 148, 230}";
}
);
layerId = "0B1DFD06-3317-40CA-B510-4969A0718C16";
width = 742;
}
);
leftKerningGroup = U;
note = Ubreve;
rightKerningGroup = U;
unicode = 016C;
},
{
glyphname = Ucaron;
lastChange = "2017-12-19 03:42:44 +0000";
layers = (
{
background = {
paths = (
{
closed = 1;
nodes = (
"539 -10 OFFCURVE",
"636 51 OFFCURVE",
"636 204 CURVE SMOOTH",
"636 637 LINE SMOOTH",
"636 662 OFFCURVE",
"660 673 OFFCURVE",
"690 673 CURVE SMOOTH",
"713 673 LINE",
"713 700 LINE",
"510 700 LINE",
"510 673 LINE",
"532 673 LINE SMOOTH",
"564 673 OFFCURVE",
"586 662 OFFCURVE",
"586 637 CURVE SMOOTH",
"586 197 LINE SMOOTH",
"586 65 OFFCURVE",
"489 31 OFFCURVE",
"397 31 CURVE SMOOTH",
"290 31 OFFCURVE",
"203 63 OFFCURVE",
"203 197 CURVE SMOOTH",
"203 637 LINE SMOOTH",
"203 662 OFFCURVE",
"226 673 OFFCURVE",
"257 673 CURVE SMOOTH",
"280 673 LINE",
"280 700 LINE",
"28 700 LINE",
"28 673 LINE",
"51 673 LINE SMOOTH",
"82 673 OFFCURVE",
"105 662 OFFCURVE",
"105 637 CURVE SMOOTH",
"105 204 LINE SMOOTH",
"105 46 OFFCURVE",
"208 -10 OFFCURVE",
"375 -10 CURVE SMOOTH"
);
},
{
closed = 1;
nodes = (
"397 782 LINE",
"521 911 LINE",
"502 932 LINE",
"394 847 LINE",
"386 840 OFFCURVE",
"377 836 OFFCURVE",
"371 836 CURVE SMOOTH",
"365 836 OFFCURVE",
"357 840 OFFCURVE",
"347 847 CURVE",
"239 932 LINE",
"220 911 LINE",
"344 782 LINE"
);
}
);
};
components = (
{
name = U;
},
{
name = caron;
transform = "{1, 0, 0, 1, 148, 230}";
}
);
layerId = "0B1DFD06-3317-40CA-B510-4969A0718C16";
width = 742;
}
);
leftKerningGroup = U;
note = Ucaron;
rightKerningGroup = U;
unicode = 01D3;
},
{
glyphname = Ucircumflex;
lastChange = "2017-12-19 03:42:44 +0000";
layers = (
{
background = {
paths = (
{
closed = 1;
nodes = (
"539 -10 OFFCURVE",
"636 51 OFFCURVE",
"636 204 CURVE SMOOTH",
"636 637 LINE SMOOTH",
"636 662 OFFCURVE",
"660 673 OFFCURVE",
"690 673 CURVE SMOOTH",
"713 673 LINE",
"713 700 LINE",
"510 700 LINE",
"510 673 LINE",
"532 673 LINE SMOOTH",
"564 673 OFFCURVE",
"586 662 OFFCURVE",
"586 637 CURVE SMOOTH",
"586 197 LINE SMOOTH",
"586 65 OFFCURVE",
"489 31 OFFCURVE",
"397 31 CURVE SMOOTH",
"290 31 OFFCURVE",
"203 63 OFFCURVE",
"203 197 CURVE SMOOTH",
"203 637 LINE SMOOTH",
"203 662 OFFCURVE",
"226 673 OFFCURVE",
"257 673 CURVE SMOOTH",
"280 673 LINE",
"280 700 LINE",
"28 700 LINE",
"28 673 LINE",
"51 673 LINE SMOOTH",
"82 673 OFFCURVE",
"105 662 OFFCURVE",
"105 637 CURVE SMOOTH",
"105 204 LINE SMOOTH",
"105 46 OFFCURVE",
"208 -10 OFFCURVE",
"375 -10 CURVE SMOOTH"
);
},
{
closed = 1;
nodes = (
"360 868 LINE SMOOTH",
"368 874 OFFCURVE",
"378 879 OFFCURVE",
"384 879 CURVE SMOOTH",
"390 879 OFFCURVE",
"398 874 OFFCURVE",
"407 868 CURVE",
"515 782 LINE",
"534 803 LINE",
"410 932 LINE",
"357 932 LINE",
"233 803 LINE",
"252 782 LINE"
);
}
);
};
components = (
{
name = U;
},
{
name = circumflex;
transform = "{1, 0, 0, 1, 148, 230}";
}
);
layerId = "0B1DFD06-3317-40CA-B510-4969A0718C16";
width = 742;
}
);
leftKerningGroup = U;
note = Ucircumflex;
rightKerningGroup = U;
unicode = 00DB;
},
{
glyphname = Udieresis;
lastChange = "2017-12-19 03:42:44 +0000";
layers = (
{
background = {
paths = (
{
closed = 1;
nodes = (
"539 -10 OFFCURVE",
"636 51 OFFCURVE",
"636 204 CURVE SMOOTH",
"636 637 LINE SMOOTH",
"636 662 OFFCURVE",
"660 673 OFFCURVE",
"690 673 CURVE SMOOTH",
"713 673 LINE",
"713 700 LINE",
"510 700 LINE",
"510 673 LINE",
"532 673 LINE SMOOTH",
"564 673 OFFCURVE",
"586 662 OFFCURVE",
"586 637 CURVE SMOOTH",
"586 197 LINE SMOOTH",
"586 65 OFFCURVE",
"489 31 OFFCURVE",
"397 31 CURVE SMOOTH",
"290 31 OFFCURVE",
"203 63 OFFCURVE",
"203 197 CURVE SMOOTH",
"203 637 LINE SMOOTH",
"203 662 OFFCURVE",
"226 673 OFFCURVE",
"257 673 CURVE SMOOTH",
"280 673 LINE",
"280 700 LINE",
"28 700 LINE",
"28 673 LINE",
"51 673 LINE SMOOTH",
"82 673 OFFCURVE",
"105 662 OFFCURVE",
"105 637 CURVE SMOOTH",
"105 204 LINE SMOOTH",
"105 46 OFFCURVE",
"208 -10 OFFCURVE",
"375 -10 CURVE SMOOTH"
);
},
{
closed = 1;
nodes = (
"304 781 OFFCURVE",
"322 800 OFFCURVE",
"322 827 CURVE SMOOTH",
"322 855 OFFCURVE",
"304 875 OFFCURVE",
"275 875 CURVE SMOOTH",
"247 875 OFFCURVE",
"229 855 OFFCURVE",
"229 827 CURVE SMOOTH",
"229 800 OFFCURVE",
"247 781 OFFCURVE",
"275 781 CURVE SMOOTH"
);
},
{
closed = 1;
nodes = (
"520 781 OFFCURVE",
"538 800 OFFCURVE",
"538 827 CURVE SMOOTH",
"538 855 OFFCURVE",
"520 875 OFFCURVE",
"491 875 CURVE SMOOTH",
"462 875 OFFCURVE",
"444 855 OFFCURVE",
"444 827 CURVE SMOOTH",
"444 800 OFFCURVE",
"462 781 OFFCURVE",
"491 781 CURVE SMOOTH"
);
}
);
};
components = (
{
name = U;
},
{
name = dieresis;
transform = "{1, 0, 0, 1, 148, 230}";
}
);
layerId = "0B1DFD06-3317-40CA-B510-4969A0718C16";
width = 742;
}
);
leftKerningGroup = U;
note = Udieresis;
rightKerningGroup = U;
unicode = 00DC;
},
{
glyphname = Udieresisacute;
lastChange = "2017-12-19 03:42:44 +0000";
layers = (
{
background = {
paths = (
{
closed = 1;
nodes = (
"539 -10 OFFCURVE",
"636 51 OFFCURVE",
"636 204 CURVE SMOOTH",
"636 637 LINE SMOOTH",
"636 662 OFFCURVE",
"660 673 OFFCURVE",
"690 673 CURVE SMOOTH",
"713 673 LINE",
"713 700 LINE",
"510 700 LINE",
"510 673 LINE",
"532 673 LINE SMOOTH",
"564 673 OFFCURVE",
"586 662 OFFCURVE",
"586 637 CURVE SMOOTH",
"586 197 LINE SMOOTH",
"586 65 OFFCURVE",
"489 31 OFFCURVE",
"397 31 CURVE SMOOTH",
"290 31 OFFCURVE",
"203 63 OFFCURVE",
"203 197 CURVE SMOOTH",
"203 637 LINE SMOOTH",
"203 662 OFFCURVE",
"226 673 OFFCURVE",
"257 673 CURVE SMOOTH",
"280 673 LINE",
"280 700 LINE",
"28 700 LINE",
"28 673 LINE",
"51 673 LINE SMOOTH",
"82 673 OFFCURVE",
"105 662 OFFCURVE",
"105 637 CURVE SMOOTH",
"105 204 LINE SMOOTH",
"105 46 OFFCURVE",
"208 -10 OFFCURVE",
"375 -10 CURVE SMOOTH"
);
},
{
closed = 1;
nodes = (
"291 780 OFFCURVE",
"310 799 OFFCURVE",
"310 827 CURVE SMOOTH",
"310 855 OFFCURVE",
"291 875 OFFCURVE",
"262 875 CURVE SMOOTH",
"235 875 OFFCURVE",
"216 855 OFFCURVE",
"216 827 CURVE SMOOTH",
"216 799 OFFCURVE",
"235 780 OFFCURVE",
"262 780 CURVE SMOOTH"
);
},
{
closed = 1;
nodes = (
"507 780 OFFCURVE",
"526 799 OFFCURVE",
"526 827 CURVE SMOOTH",
"526 855 OFFCURVE",
"507 875 OFFCURVE",
"479 875 CURVE SMOOTH",
"451 875 OFFCURVE",
"432 855 OFFCURVE",
"432 827 CURVE SMOOTH",
"432 799 OFFCURVE",
"451 780 OFFCURVE",
"479 780 CURVE SMOOTH"
);
},
{
closed = 1;
nodes = (
"481 969 LINE SMOOTH",
"502 981 OFFCURVE",
"512 993 OFFCURVE",
"512 1009 CURVE SMOOTH",
"512 1024 OFFCURVE",
"503 1037 OFFCURVE",
"481 1037 CURVE SMOOTH",
"460 1037 OFFCURVE",
"442 1020 OFFCURVE",
"435 1013 CURVE SMOOTH",
"344 924 LINE",
"362 899 LINE"
);
}
);
};
components = (
{
name = U;
},
{
name = dieresisacute;
transform = "{1, 0, 0, 1, 149, 230}";
}
);
layerId = "0B1DFD06-3317-40CA-B510-4969A0718C16";
width = 742;
}
);
leftKerningGroup = U;
note = Udieresisacute;
rightKerningGroup = U;
unicode = 01D7;
},
{
glyphname = Udieresiscaron;
lastChange = "2017-12-19 03:42:44 +0000";
layers = (
{
background = {
paths = (
{
closed = 1;
nodes = (
"539 -10 OFFCURVE",
"636 51 OFFCURVE",
"636 204 CURVE SMOOTH",
"636 637 LINE SMOOTH",
"636 662 OFFCURVE",
"660 673 OFFCURVE",
"690 673 CURVE SMOOTH",
"713 673 LINE",
"713 700 LINE",
"510 700 LINE",
"510 673 LINE",
"532 673 LINE SMOOTH",
"564 673 OFFCURVE",
"586 662 OFFCURVE",
"586 637 CURVE SMOOTH",
"586 197 LINE SMOOTH",
"586 65 OFFCURVE",
"489 31 OFFCURVE",
"397 31 CURVE SMOOTH",
"290 31 OFFCURVE",
"203 63 OFFCURVE",
"203 197 CURVE SMOOTH",
"203 637 LINE SMOOTH",
"203 662 OFFCURVE",
"226 673 OFFCURVE",
"257 673 CURVE SMOOTH",
"280 673 LINE",
"280 700 LINE",
"28 700 LINE",
"28 673 LINE",
"51 673 LINE SMOOTH",
"82 673 OFFCURVE",
"105 662 OFFCURVE",
"105 637 CURVE SMOOTH",
"105 204 LINE SMOOTH",
"105 46 OFFCURVE",
"208 -10 OFFCURVE",
"375 -10 CURVE SMOOTH"
);
},
{
closed = 1;
nodes = (
"296 780 OFFCURVE",
"315 799 OFFCURVE",
"315 827 CURVE SMOOTH",
"315 855 OFFCURVE",
"296 875 OFFCURVE",
"267 875 CURVE SMOOTH",
"240 875 OFFCURVE",
"221 855 OFFCURVE",
"221 827 CURVE SMOOTH",
"221 799 OFFCURVE",
"240 780 OFFCURVE",
"267 780 CURVE SMOOTH"
);
},
{
closed = 1;
nodes = (
"512 780 OFFCURVE",
"531 799 OFFCURVE",
"531 827 CURVE SMOOTH",
"531 855 OFFCURVE",
"512 875 OFFCURVE",
"484 875 CURVE SMOOTH",
"456 875 OFFCURVE",
"437 855 OFFCURVE",
"437 827 CURVE SMOOTH",
"437 799 OFFCURVE",
"456 780 OFFCURVE",
"484 780 CURVE SMOOTH"
);
},
{
closed = 1;
nodes = (
"401 911 LINE",
"523 1035 LINE",
"505 1056 LINE",
"404 978 LINE",
"394 971 OFFCURVE",
"385 963 OFFCURVE",
"376 963 CURVE SMOOTH",
"369 963 OFFCURVE",
"357 971 OFFCURVE",
"347 978 CURVE",
"246 1056 LINE",
"228 1035 LINE",
"350 911 LINE"
);
}
);
};
components = (
{
name = U;
},
{
name = dieresiscaron;
transform = "{1, 0, 0, 1, 149, 230}";
}
);
layerId = "0B1DFD06-3317-40CA-B510-4969A0718C16";
width = 742;
}
);
leftKerningGroup = U;
note = Udieresiscaron;
rightKerningGroup = U;
unicode = 01D9;
},
{
glyphname = Udieresisgrave;
lastChange = "2017-12-19 03:42:44 +0000";
layers = (
{
background = {
paths = (
{
closed = 1;
nodes = (
"539 -10 OFFCURVE",
"636 51 OFFCURVE",
"636 204 CURVE SMOOTH",
"636 637 LINE SMOOTH",
"636 662 OFFCURVE",
"660 673 OFFCURVE",
"690 673 CURVE SMOOTH",
"713 673 LINE",
"713 700 LINE",
"510 700 LINE",
"510 673 LINE",
"532 673 LINE SMOOTH",
"564 673 OFFCURVE",
"586 662 OFFCURVE",
"586 637 CURVE SMOOTH",
"586 197 LINE SMOOTH",
"586 65 OFFCURVE",
"489 31 OFFCURVE",
"397 31 CURVE SMOOTH",
"290 31 OFFCURVE",
"203 63 OFFCURVE",
"203 197 CURVE SMOOTH",
"203 637 LINE SMOOTH",
"203 662 OFFCURVE",
"226 673 OFFCURVE",
"257 673 CURVE SMOOTH",
"280 673 LINE",
"280 700 LINE",
"28 700 LINE",
"28 673 LINE",
"51 673 LINE SMOOTH",
"82 673 OFFCURVE",
"105 662 OFFCURVE",
"105 637 CURVE SMOOTH",
"105 204 LINE SMOOTH",
"105 46 OFFCURVE",
"208 -10 OFFCURVE",
"375 -10 CURVE SMOOTH"
);
},
{
closed = 1;
nodes = (
"296 780 OFFCURVE",
"315 799 OFFCURVE",
"315 827 CURVE SMOOTH",
"315 855 OFFCURVE",
"296 875 OFFCURVE",
"267 875 CURVE SMOOTH",
"240 875 OFFCURVE",
"221 855 OFFCURVE",
"221 827 CURVE SMOOTH",
"221 799 OFFCURVE",
"240 780 OFFCURVE",
"267 780 CURVE SMOOTH"
);
},
{
closed = 1;
nodes = (
"403 924 LINE",
"312 1013 LINE SMOOTH",
"305 1020 OFFCURVE",
"288 1036 OFFCURVE",
"267 1036 CURVE SMOOTH",
"245 1036 OFFCURVE",
"235 1024 OFFCURVE",
"235 1009 CURVE SMOOTH",
"235 993 OFFCURVE",
"245 981 OFFCURVE",
"266 969 CURVE SMOOTH",
"385 899 LINE"
);
},
{
closed = 1;
nodes = (
"512 780 OFFCURVE",
"531 799 OFFCURVE",
"531 827 CURVE SMOOTH",
"531 855 OFFCURVE",
"512 875 OFFCURVE",
"484 875 CURVE SMOOTH",
"456 875 OFFCURVE",
"437 855 OFFCURVE",
"437 827 CURVE SMOOTH",
"437 799 OFFCURVE",
"456 780 OFFCURVE",
"484 780 CURVE SMOOTH"
);
}
);
};
components = (
{
name = U;
},
{
name = dieresisgrave;
transform = "{1, 0, 0, 1, 149, 230}";
}
);
layerId = "0B1DFD06-3317-40CA-B510-4969A0718C16";
width = 742;
}
);
leftKerningGroup = U;
note = Udieresisgrave;
rightKerningGroup = U;
unicode = 01DB;
},
{
glyphname = Udieresismacron;
lastChange = "2017-12-19 03:42:44 +0000";
layers = (
{
background = {
paths = (
{
closed = 1;
nodes = (
"539 -10 OFFCURVE",
"636 51 OFFCURVE",
"636 204 CURVE SMOOTH",
"636 637 LINE SMOOTH",
"636 662 OFFCURVE",
"660 673 OFFCURVE",
"690 673 CURVE SMOOTH",
"713 673 LINE",
"713 700 LINE",
"510 700 LINE",
"510 673 LINE",
"532 673 LINE SMOOTH",
"564 673 OFFCURVE",
"586 662 OFFCURVE",
"586 637 CURVE SMOOTH",
"586 197 LINE SMOOTH",
"586 65 OFFCURVE",
"489 31 OFFCURVE",
"397 31 CURVE SMOOTH",
"290 31 OFFCURVE",
"203 63 OFFCURVE",
"203 197 CURVE SMOOTH",
"203 637 LINE SMOOTH",
"203 662 OFFCURVE",
"226 673 OFFCURVE",
"257 673 CURVE SMOOTH",
"280 673 LINE",
"280 700 LINE",
"28 700 LINE",
"28 673 LINE",
"51 673 LINE SMOOTH",
"82 673 OFFCURVE",
"105 662 OFFCURVE",
"105 637 CURVE SMOOTH",
"105 204 LINE SMOOTH",
"105 46 OFFCURVE",
"208 -10 OFFCURVE",
"375 -10 CURVE SMOOTH"
);
},
{
closed = 1;
nodes = (
"291 781 OFFCURVE",
"309 800 OFFCURVE",
"309 827 CURVE SMOOTH",
"309 855 OFFCURVE",
"291 875 OFFCURVE",
"262 875 CURVE SMOOTH",
"234 875 OFFCURVE",
"216 855 OFFCURVE",
"216 827 CURVE SMOOTH",
"216 800 OFFCURVE",
"234 781 OFFCURVE",
"262 781 CURVE SMOOTH"
);
},
{
closed = 1;
nodes = (
"507 781 OFFCURVE",
"525 800 OFFCURVE",
"525 827 CURVE SMOOTH",
"525 855 OFFCURVE",
"507 875 OFFCURVE",
"478 875 CURVE SMOOTH",
"449 875 OFFCURVE",
"431 855 OFFCURVE",
"431 827 CURVE SMOOTH",
"431 800 OFFCURVE",
"449 781 OFFCURVE",
"478 781 CURVE SMOOTH"
);
},
{
closed = 1;
nodes = (
"537 928 LINE",
"537 970 LINE",
"204 970 LINE",
"204 928 LINE"
);
}
);
};
components = (
{
name = U;
},
{
name = dieresis;
transform = "{1, 0, 0, 1, 148, 230}";
},
{
alignment = -1;
name = macron;
transform = "{1, 0, 0, 1, 145, 356}";
}
);
layerId = "0B1DFD06-3317-40CA-B510-4969A0718C16";
width = 742;
}
);
leftKerningGroup = U;
note = Udieresismacron;
rightKerningGroup = U;
unicode = 01D5;
},
{
glyphname = Uhorn;
lastChange = "2017-12-19 03:42:44 +0000";
layers = (
{
layerId = "0B1DFD06-3317-40CA-B510-4969A0718C16";
paths = (
{
closed = 1;
nodes = (
"647 594 LINE",
"754 631 OFFCURVE",
"782 749 OFFCURVE",
"782 833 CURVE",
"725 833 LINE",
"725 756 OFFCURVE",
"710 704 OFFCURVE",
"647 666 CURVE",
"647 700 LINE",
"581 700 LINE",
"581 280 LINE SMOOTH",
"581 159 OFFCURVE",
"483 44 OFFCURVE",
"368 44 CURVE SMOOTH",
"287 44 LINE SMOOTH",
"196 44 OFFCURVE",
"124 139 OFFCURVE",
"124 230 CURVE SMOOTH",
"124 700 LINE",
"57 700 LINE",
"57 230 LINE SMOOTH",
"57 102 OFFCURVE",
"159 -15 OFFCURVE",
"287 -15 CURVE SMOOTH",
"368 -15 LINE SMOOTH",
"520 -15 OFFCURVE",
"647 122 OFFCURVE",
"647 280 CURVE SMOOTH"
);
}
);
width = 769;
}
);
note = Uhorn;
unicode = 01AF;
},
{
color = 0;
glyphname = "alpha-latin";
lastChange = "2017-12-18 11:15:21 +0000";
layers = (
{
layerId = "0B1DFD06-3317-40CA-B510-4969A0718C16";
paths = (
{
closed = 1;
nodes = (
"304 -10 OFFCURVE",
"357 10 OFFCURVE",
"393 69 CURVE",
"393 37 LINE SMOOTH",
"393 0 OFFCURVE",
"429 -10 OFFCURVE",
"461 -10 CURVE SMOOTH",
"491 -10 OFFCURVE",
"523 -1 OFFCURVE",
"545 17 CURVE",
"545 34 LINE",
"531 29 OFFCURVE",
"519 26 OFFCURVE",
"510 26 CURVE SMOOTH",
"494 26 OFFCURVE",
"486 36 OFFCURVE",
"486 58 CURVE SMOOTH",
"486 403 LINE",
"452 444 OFFCURVE",
"374 480 OFFCURVE",
"279 480 CURVE SMOOTH",
"141 480 OFFCURVE",
"26 405 OFFCURVE",
"26 215 CURVE SMOOTH",
"26 67 OFFCURVE",
"96 -10 OFFCURVE",
"234 -10 CURVE SMOOTH"
);
},
{
closed = 1;
nodes = (
"152 28 OFFCURVE",
"119 116 OFFCURVE",
"119 222 CURVE SMOOTH",
"119 370 OFFCURVE",
"183 441 OFFCURVE",
"279 441 CURVE SMOOTH",
"330 441 OFFCURVE",
"368 421 OFFCURVE",
"392 398 CURVE",
"392 169 LINE SMOOTH",
"392 98 OFFCURVE",
"346 28 OFFCURVE",
"255 28 CURVE SMOOTH"
);
}
);
width = 558;
}
);
leftKerningGroup = a;
note = ascript;
rightKerningGroup = a;
unicode = 0251;
},
{
glyphname = ae;
lastChange = "2017-12-18 10:29:35 +0000";
layers = (
{
layerId = "0B1DFD06-3317-40CA-B510-4969A0718C16";
paths = (
{
closed = 1;
nodes = (
"141 416 LINE",
"164 436 OFFCURVE",
"192 449 OFFCURVE",
"222 449 CURVE SMOOTH",
"312 449 LINE SMOOTH",
"364 449 OFFCURVE",
"405 392 OFFCURVE",
"410 345 CURVE",
"410 312 LINE",
"253 312 LINE SMOOTH",
"158 312 OFFCURVE",
"56 242 OFFCURVE",
"56 139 CURVE SMOOTH",
"56 57 OFFCURVE",
"122 -6 OFFCURVE",
"203 -6 CURVE SMOOTH",
"262 -6 LINE SMOOTH",
"327 -6 OFFCURVE",
"389 31 OFFCURVE",
"429 84 CURVE",
"457 31 OFFCURVE",
"510 -7 OFFCURVE",
"573 -7 CURVE SMOOTH",
"632 -7 LINE SMOOTH",
"740 -7 OFFCURVE",
"831 74 OFFCURVE",
"831 184 CURVE",
"765 184 LINE",
"765 111 OFFCURVE",
"706 52 OFFCURVE",
"632 52 CURVE SMOOTH",
"573 52 LINE SMOOTH",
"519 52 OFFCURVE",
"476 113 OFFCURVE",
"476 164 CURVE SMOOTH",
"476 206 LINE",
"476 215 LINE",
"476 261 LINE",
"831 261 LINE",
"831 336 LINE SMOOTH",
"831 426 OFFCURVE",
"759 507 OFFCURVE",
"667 507 CURVE SMOOTH",
"609 507 LINE SMOOTH",
"544 507 OFFCURVE",
"488 473 OFFCURVE",
"451 424 CURVE",
"421 472 OFFCURVE",
"368 508 OFFCURVE",
"312 508 CURVE SMOOTH",
"222 508 LINE SMOOTH",
"178 508 OFFCURVE",
"139 494 OFFCURVE",
"105 467 CURVE"
);
},
{
closed = 1;
nodes = (
"410 261 LINE",
"410 195 LINE",
"405 122 OFFCURVE",
"334 53 OFFCURVE",
"262 53 CURVE SMOOTH",
"203 53 LINE SMOOTH",
"156 53 OFFCURVE",
"122 96 OFFCURVE",
"122 141 CURVE SMOOTH",
"124 203 OFFCURVE",
"193 261 OFFCURVE",
"253 261 CURVE SMOOTH"
);
},
{
closed = 1;
nodes = (
"667 448 LINE SMOOTH",
"722 448 OFFCURVE",
"765 386 OFFCURVE",
"765 336 CURVE SMOOTH",
"765 312 LINE",
"476 312 LINE",
"476 386 OFFCURVE",
"535 448 OFFCURVE",
"609 448 CURVE SMOOTH"
);
}
);
width = 886;
}
);
note = ae;
unicode = 00E6;
},
{
glyphname = eth;
lastChange = "2017-12-18 10:29:47 +0000";
layers = (
{
layerId = "0B1DFD06-3317-40CA-B510-4969A0718C16";
paths = (
{
closed = 1;
nodes = (
"563 430 OFFCURVE",
"489 553 OFFCURVE",
"373 650 CURVE",
"371 651 OFFCURVE",
"370 654 OFFCURVE",
"367 656 CURVE",
"482 707 LINE",
"458 759 LINE",
"414 735 OFFCURVE",
"364 713 OFFCURVE",
"318 691 CURVE",
"271 726 OFFCURVE",
"220 750 OFFCURVE",
"164 774 CURVE",
"137 719 LINE",
"180 704 OFFCURVE",
"225 682 OFFCURVE",
"259 662 CURVE",
"122 598 LINE",
"143 550 LINE",
"199 573 OFFCURVE",
"255 601 OFFCURVE",
"311 628 CURVE",
"370 582 OFFCURVE",
"418 532 OFFCURVE",
"454 476 CURVE",
"405 513 OFFCURVE",
"354 525 OFFCURVE",
"302 525 CURVE SMOOTH",
"174 525 OFFCURVE",
"44 418 OFFCURVE",
"44 249 CURVE SMOOTH",
"44 100 OFFCURVE",
"147 -13 OFFCURVE",
"298 -13 CURVE SMOOTH",
"426 -13 OFFCURVE",
"563 72 OFFCURVE",
"563 270 CURVE SMOOTH"
);
},
{
closed = 1;
nodes = (
"498 116 OFFCURVE",
"410 41 OFFCURVE",
"296 41 CURVE SMOOTH",
"202 41 OFFCURVE",
"103 115 OFFCURVE",
"103 250 CURVE SMOOTH",
"103 352 OFFCURVE",
"165 470 OFFCURVE",
"302 470 CURVE",
"439 452 OFFCURVE",
"494 405 OFFCURVE",
"498 262 CURVE SMOOTH"
);
}
);
width = 613;
}
);
note = eth;
unicode = 00F0;
},
{
color = 0;
glyphname = dcaron;
lastChange = "2017-12-18 11:15:26 +0000";
layers = (
{
layerId = "0B1DFD06-3317-40CA-B510-4969A0718C16";
paths = (
{
closed = 1;
nodes = (
"321 -10 OFFCURVE",
"381 14 OFFCURVE",
"417 74 CURVE",
"422 -4 LINE",
"564 11 LINE",
"564 34 LINE",
"541 34 LINE SMOOTH",
"513 34 OFFCURVE",
"499 44 OFFCURVE",
"499 69 CURVE SMOOTH",
"499 717 LINE",
"474 717 LINE",
"349 672 LINE",
"355 649 LINE",
"365 653 OFFCURVE",
"377 657 OFFCURVE",
"385 657 CURVE SMOOTH",
"394 657 OFFCURVE",
"405 654 OFFCURVE",
"405 636 CURVE SMOOTH",
"405 410 LINE",
"363 467 OFFCURVE",
"298 480 OFFCURVE",
"242 480 CURVE SMOOTH",
"123 480 OFFCURVE",
"31 401 OFFCURVE",
"31 245 CURVE SMOOTH",
"31 60 OFFCURVE",
"118 -10 OFFCURVE",
"243 -10 CURVE SMOOTH"
);
},
{
closed = 1;
nodes = (
"160 28 OFFCURVE",
"124 120 OFFCURVE",
"124 242 CURVE SMOOTH",
"124 372 OFFCURVE",
"176 440 OFFCURVE",
"275 440 CURVE SMOOTH",
"337 440 OFFCURVE",
"406 392 OFFCURVE",
"406 320 CURVE SMOOTH",
"406 168 LINE SMOOTH",
"406 97 OFFCURVE",
"357 28 OFFCURVE",
"269 28 CURVE SMOOTH"
);
},
{
closed = 1;
nodes = (
"630 523 OFFCURVE",
"674 583 OFFCURVE",
"674 646 CURVE SMOOTH",
"674 694 OFFCURVE",
"650 714 OFFCURVE",
"621 714 CURVE SMOOTH",
"592 714 OFFCURVE",
"575 694 OFFCURVE",
"575 670 CURVE SMOOTH",
"575 636 OFFCURVE",
"610 629 OFFCURVE",
"610 594 CURVE SMOOTH",
"610 558 OFFCURVE",
"584 525 OFFCURVE",
"557 499 CURVE",
"574 482 LINE"
);
}
);
width = 686;
}
);
leftKerningGroup = d;
note = dcaron;
unicode = 010F;
},
{
color = 0;
glyphname = dcroat;
lastChange = "2017-12-18 11:15:26 +0000";
layers = (
{
layerId = "0B1DFD06-3317-40CA-B510-4969A0718C16";
paths = (
{
closed = 1;
nodes = (
"321 -10 OFFCURVE",
"381 14 OFFCURVE",
"417 74 CURVE",
"422 -4 LINE",
"564 11 LINE",
"564 34 LINE",
"541 34 LINE SMOOTH",
"513 34 OFFCURVE",
"499 44 OFFCURVE",
"499 69 CURVE SMOOTH",
"499 717 LINE",
"474 717 LINE",
"349 672 LINE",
"355 649 LINE",
"365 653 OFFCURVE",
"377 657 OFFCURVE",
"385 657 CURVE SMOOTH",
"394 657 OFFCURVE",
"405 654 OFFCURVE",
"405 636 CURVE SMOOTH",
"405 410 LINE",
"363 467 OFFCURVE",
"298 480 OFFCURVE",
"242 480 CURVE SMOOTH",
"123 480 OFFCURVE",
"31 401 OFFCURVE",
"31 245 CURVE SMOOTH",
"31 60 OFFCURVE",
"118 -10 OFFCURVE",
"243 -10 CURVE SMOOTH"
);
},
{
closed = 1;
nodes = (
"160 28 OFFCURVE",
"124 120 OFFCURVE",
"124 242 CURVE SMOOTH",
"124 372 OFFCURVE",
"176 440 OFFCURVE",
"275 440 CURVE SMOOTH",
"337 440 OFFCURVE",
"406 392 OFFCURVE",
"406 320 CURVE SMOOTH",
"406 168 LINE SMOOTH",
"406 97 OFFCURVE",
"357 28 OFFCURVE",
"269 28 CURVE SMOOTH"
);
},
{
closed = 1;
nodes = (
"559 559 LINE",
"559 594 LINE",
"259 594 LINE",
"259 559 LINE"
);
}
);
width = 585;
}
);
leftKerningGroup = d;
note = dcroat;
unicode = 0111;
},
{
color = 0;
glyphname = schwa;
lastChange = "2017-12-18 11:15:31 +0000";
layers = (
{
layerId = "0B1DFD06-3317-40CA-B510-4969A0718C16";
paths = (
{
closed = 1;
nodes = (
"396 -10 OFFCURVE",
"487 83 OFFCURVE",
"487 236 CURVE SMOOTH",
"487 393 OFFCURVE",
"392 480 OFFCURVE",
"246 480 CURVE SMOOTH",
"112 480 OFFCURVE",
"47 407 OFFCURVE",
"36 303 CURVE",
"65 303 LINE",
"83 407 OFFCURVE",
"154 444 OFFCURVE",
"225 444 CURVE SMOOTH",
"331 444 OFFCURVE",
"392 360 OFFCURVE",
"392 234 CURVE SMOOTH",
"392 121 OFFCURVE",
"343 28 OFFCURVE",
"242 28 CURVE SMOOTH",
"147 28 OFFCURVE",
"117 112 OFFCURVE",
"115 173 CURVE",
"403 173 LINE",
"403 212 LINE",
"32 212 LINE",
"32 189 LINE SMOOTH",
"32 77 OFFCURVE",
"100 -10 OFFCURVE",
"246 -10 CURVE SMOOTH"
);
}
);
width = 521;
}
);
note = schwa;
unicode = 0259;
},
{
color = 0;
glyphname = hbar;
lastChange = "2017-12-18 11:15:34 +0000";
layers = (
{
layerId = "0B1DFD06-3317-40CA-B510-4969A0718C16";
paths = (
{
closed = 1;
nodes = (
"600 0 LINE",
"600 25 LINE",
"582 25 LINE SMOOTH",
"552 25 OFFCURVE",
"528 34 OFFCURVE",
"528 57 CURVE SMOOTH",
"528 344 LINE SMOOTH",
"528 424 OFFCURVE",
"471 480 OFFCURVE",
"357 480 CURVE SMOOTH",
"265 480 OFFCURVE",
"194 424 OFFCURVE",
"178 373 CURVE",
"178 285 LINE",
"188 285 LINE",
"188 389 OFFCURVE",
"264 439 OFFCURVE",
"330 439 CURVE SMOOTH",
"396 439 OFFCURVE",
"434 404 OFFCURVE",
"434 332 CURVE SMOOTH",
"434 57 LINE SMOOTH",
"434 34 OFFCURVE",
"411 25 OFFCURVE",
"383 25 CURVE SMOOTH",
"367 25 LINE",
"367 0 LINE"
);
},
{
closed = 1;
nodes = (
"255 0 LINE",
"255 25 LINE",
"240 25 LINE SMOOTH",
"212 25 OFFCURVE",
"188 34 OFFCURVE",
"188 57 CURVE SMOOTH",
"188 717 LINE",
"163 717 LINE",
"37 672 LINE",
"44 649 LINE",
"54 653 OFFCURVE",
"66 657 OFFCURVE",
"73 657 CURVE SMOOTH",
"83 657 OFFCURVE",
"94 654 OFFCURVE",
"94 636 CURVE SMOOTH",
"94 57 LINE SMOOTH",
"94 34 OFFCURVE",
"71 25 OFFCURVE",
"41 25 CURVE SMOOTH",
"22 25 LINE",
"22 0 LINE"
);
},
{
closed = 1;
nodes = (
"339 559 LINE",
"339 594 LINE",
"40 594 LINE",
"40 559 LINE"
);
}
);
width = 622;
}
);
note = hbar;
rightKerningGroup = h;
unicode = 0127;
},
{
glyphname = idotless;
lastChange = "2017-12-18 10:34:53 +0000";
layers = (
{
layerId = "0B1DFD06-3317-40CA-B510-4969A0718C16";
paths = (
{
closed = 1;
nodes = (
"155 0 LINE",
"155 500 LINE",
"88 500 LINE",
"88 0 LINE"
);
}
);
width = 243;
}
);
note = dotlessi;
unicode = 0131;
},
{
color = 0;
glyphname = ij;
lastChange = "2017-12-18 11:15:38 +0000";
layers = (
{
layerId = "0B1DFD06-3317-40CA-B510-4969A0718C16";
paths = (
{
closed = 1;
nodes = (
"472 -107 OFFCURVE",
"516 -25 OFFCURVE",
"516 102 CURVE SMOOTH",
"516 473 LINE",
"491 473 LINE",
"365 428 LINE",
"372 406 LINE",
"383 410 OFFCURVE",
"394 414 OFFCURVE",
"402 414 CURVE SMOOTH",
"411 414 OFFCURVE",
"423 410 OFFCURVE",
"423 393 CURVE SMOOTH",
"423 97 LINE SMOOTH",
"423 -4 OFFCURVE",
"418 -72 OFFCURVE",
"326 -110 CURVE",
"331 -132 LINE"
);
},
{
closed = 1;
nodes = (
"265 0 LINE",
"265 25 LINE",
"246 25 LINE SMOOTH",
"217 25 OFFCURVE",
"193 34 OFFCURVE",
"193 57 CURVE SMOOTH",
"193 475 LINE",
"168 475 LINE",
"42 431 LINE",
"49 408 LINE",
"59 411 OFFCURVE",
"71 416 OFFCURVE",
"78 416 CURVE SMOOTH",
"88 416 OFFCURVE",
"99 412 OFFCURVE",
"99 394 CURVE SMOOTH",
"99 57 LINE SMOOTH",
"99 34 OFFCURVE",
"76 25 OFFCURVE",
"46 25 CURVE SMOOTH",
"27 25 LINE",
"27 0 LINE"
);
},
{
closed = 1;
nodes = (
"171 561 OFFCURVE",
"194 584 OFFCURVE",
"194 616 CURVE SMOOTH",
"194 649 OFFCURVE",
"171 671 OFFCURVE",
"138 671 CURVE SMOOTH",
"103 671 OFFCURVE",
"81 649 OFFCURVE",
"81 616 CURVE SMOOTH",
"81 584 OFFCURVE",
"103 561 OFFCURVE",
"138 561 CURVE SMOOTH"
);
},
{
closed = 1;
nodes = (
"499 561 OFFCURVE",
"522 584 OFFCURVE",
"522 616 CURVE SMOOTH",
"522 649 OFFCURVE",
"499 671 OFFCURVE",
"465 671 CURVE SMOOTH",
"431 671 OFFCURVE",
"409 649 OFFCURVE",
"409 616 CURVE SMOOTH",
"409 584 OFFCURVE",
"431 561 OFFCURVE",
"465 561 CURVE SMOOTH"
);
}
);
width = 598;
}
);
note = ij;
unicode = 0133;
},
{
color = 0;
glyphname = jdotless;
lastChange = "2017-12-18 11:15:47 +0000";
layers = (
{
anchors = (
{
name = bottom;
position = "{151, 0}";
},
{
name = top;
position = "{151, 470}";
}
);
layerId = "0B1DFD06-3317-40CA-B510-4969A0718C16";
paths = (
{
closed = 1;
nodes = (
"176 -107 OFFCURVE",
"220 -25 OFFCURVE",
"220 102 CURVE SMOOTH",
"220 473 LINE",
"195 473 LINE",
"69 428 LINE",
"76 406 LINE",
"86 410 OFFCURVE",
"98 414 OFFCURVE",
"106 414 CURVE SMOOTH",
"115 414 OFFCURVE",
"126 410 OFFCURVE",
"126 393 CURVE SMOOTH",
"126 97 LINE SMOOTH",
"126 -3 OFFCURVE",
"123 -71 OFFCURVE",
"31 -110 CURVE",
"35 -132 LINE"
);
}
);
width = 302;
}
);
leftKerningGroup = j;
note = dotlessj;
unicode = 0237;
},
{
color = 0;
glyphname = kgreenlandic;
lastChange = "2017-12-18 11:15:47 +0000";
layers = (
{
layerId = "0B1DFD06-3317-40CA-B510-4969A0718C16";
paths = (
{
closed = 1;
nodes = (
"257 0 LINE",
"257 25 LINE",
"240 25 LINE SMOOTH",
"211 25 OFFCURVE",
"187 35 OFFCURVE",
"187 57 CURVE SMOOTH",
"187 487 LINE",
"162 487 LINE",
"36 442 LINE",
"43 419 LINE",
"54 423 OFFCURVE",
"65 427 OFFCURVE",
"73 427 CURVE SMOOTH",
"82 427 OFFCURVE",
"94 424 OFFCURVE",
"94 406 CURVE SMOOTH",
"94 57 LINE SMOOTH",
"94 34 OFFCURVE",
"70 25 OFFCURVE",
"40 25 CURVE SMOOTH",
"21 25 LINE",
"21 0 LINE"
);
},
{
closed = 1;
nodes = (
"577 0 LINE",
"577 25 LINE",
"550 25 LINE SMOOTH",
"530 25 OFFCURVE",
"496 35 OFFCURVE",
"475 55 CURVE SMOOTH",
"247 266 LINE",
"185 217 LINE",
"421 0 LINE"
);
},
{
closed = 1;
nodes = (
"446 417 LINE SMOOTH",
"463 432 OFFCURVE",
"488 444 OFFCURVE",
"506 444 CURVE SMOOTH",
"528 444 LINE",
"528 470 LINE",
"332 470 LINE",
"332 444 LINE",
"354 444 LINE SMOOTH",
"380 444 OFFCURVE",
"401 428 OFFCURVE",
"380 411 CURVE SMOOTH",
"155 225 LINE",
"155 173 LINE"
);
}
);
width = 591;
}
);
note = kgreenlandic;
rightKerningGroup = k;
unicode = 0138;
},
{
glyphname = lslash;
lastChange = "2017-12-18 10:31:39 +0000";
layers = (
{
layerId = "0B1DFD06-3317-40CA-B510-4969A0718C16";
paths = (
{
closed = 1;
nodes = (
"35 215 LINE",
"111 278 LINE",
"111 0 LINE",
"177 0 LINE",
"177 336 LINE",
"250 399 LINE",
"250 480 LINE",
"177 418 LINE",
"177 700 LINE",
"111 700 LINE",
"111 362 LINE",
"32 296 LINE"
);
}
);
width = 284;
}
);
note = lslash;
unicode = 0142;
},
{
color = 0;
glyphname = eng;
lastChange = "2017-12-18 11:15:53 +0000";
layers = (
{
layerId = "0B1DFD06-3317-40CA-B510-4969A0718C16";
paths = (
{
closed = 1;
nodes = (
"478 -215 OFFCURVE",
"529 -140 OFFCURVE",
"529 -17 CURVE SMOOTH",
"529 344 LINE SMOOTH",
"529 424 OFFCURVE",
"472 480 OFFCURVE",
"358 480 CURVE SMOOTH",
"266 480 OFFCURVE",
"195 424 OFFCURVE",
"178 373 CURVE",
"178 285 LINE",
"188 285 LINE",
"188 389 OFFCURVE",
"264 439 OFFCURVE",
"331 439 CURVE SMOOTH",
"395 439 OFFCURVE",
"435 404 OFFCURVE",
"435 332 CURVE SMOOTH",
"435 -58 LINE SMOOTH",
"435 -128 OFFCURVE",
"413 -186 OFFCURVE",
"339 -215 CURVE",
"344 -238 LINE"
);
},
{
closed = 1;
nodes = (
"255 0 LINE",
"255 25 LINE",
"240 25 LINE SMOOTH",
"205 25 OFFCURVE",
"188 37 OFFCURVE",
"188 66 CURVE SMOOTH",
"188 473 LINE",
"166 473 LINE",
"38 428 LINE",
"44 406 LINE",
"54 410 OFFCURVE",
"66 414 OFFCURVE",
"74 414 CURVE SMOOTH",
"83 414 OFFCURVE",
"94 410 OFFCURVE",
"94 393 CURVE SMOOTH",
"94 66 LINE SMOOTH",
"94 37 OFFCURVE",
"77 25 OFFCURVE",
"41 25 CURVE SMOOTH",
"22 25 LINE",
"22 0 LINE"
);
}
);
width = 609;
}
);
leftKerningGroup = m;
note = eng;
rightKerningGroup = m;
unicode = 014B;
},
{
glyphname = ohorn;
lastChange = "2017-12-18 10:31:50 +0000";
layers = (
{
layerId = "0B1DFD06-3317-40CA-B510-4969A0718C16";
paths = (
{
closed = 1;
nodes = (
"469 336 LINE SMOOTH",
"469 371 OFFCURVE",
"451 408 OFFCURVE",
"432 436 CURVE",
"514 488 OFFCURVE",
"519 561 OFFCURVE",
"523 623 CURVE",
"469 623 LINE",
"469 597 OFFCURVE",
"457 492 OFFCURVE",
"385 485 CURVE",
"361 498 OFFCURVE",
"333 507 OFFCURVE",
"305 507 CURVE SMOOTH",
"246 507 LINE SMOOTH",
"137 507 OFFCURVE",
"47 413 OFFCURVE",
"47 301 CURVE SMOOTH",
"47 164 LINE SMOOTH",
"47 72 OFFCURVE",
"119 -7 OFFCURVE",
"211 -7 CURVE SMOOTH",
"270 -7 LINE SMOOTH",
"379 -7 OFFCURVE",
"469 87 OFFCURVE",
"469 199 CURVE SMOOTH"
);
},
{
closed = 1;
nodes = (
"402 199 LINE SMOOTH",
"402 124 OFFCURVE",
"343 52 OFFCURVE",
"270 52 CURVE SMOOTH",
"211 52 LINE SMOOTH",
"158 52 OFFCURVE",
"113 111 OFFCURVE",
"113 164 CURVE SMOOTH",
"113 301 LINE SMOOTH",
"113 376 OFFCURVE",
"172 448 OFFCURVE",
"246 448 CURVE SMOOTH",
"305 448 LINE SMOOTH",
"358 448 OFFCURVE",
"402 389 OFFCURVE",
"402 336 CURVE SMOOTH"
);
}
);
width = 525;
}
);
note = ohorn;
unicode = 01A1;
},
{
glyphname = oslash;
lastChange = "2017-12-18 10:32:00 +0000";
layers = (
{
layerId = "0B1DFD06-3317-40CA-B510-4969A0718C16";
paths = (
{
closed = 1;
nodes = (
"108 -25 LINE",
"136 15 LINE",
"159 0 OFFCURVE",
"187 -7 OFFCURVE",
"217 -7 CURVE SMOOTH",
"276 -7 LINE SMOOTH",
"385 -7 OFFCURVE",
"474 87 OFFCURVE",
"474 199 CURVE SMOOTH",
"474 336 LINE SMOOTH",
"474 377 OFFCURVE",
"458 417 OFFCURVE",
"433 446 CURVE",
"488 525 LINE",
"421 525 LINE",
"392 483 LINE",
"368 498 OFFCURVE",
"340 507 OFFCURVE",
"311 507 CURVE SMOOTH",
"252 507 LINE SMOOTH",
"143 507 OFFCURVE",
"53 413 OFFCURVE",
"53 301 CURVE SMOOTH",
"53 164 LINE SMOOTH",
"53 122 OFFCURVE",
"68 83 OFFCURVE",
"93 53 CURVE",
"38 -25 LINE"
);
},
{
closed = 1;
nodes = (
"408 199 LINE SMOOTH",
"408 124 OFFCURVE",
"349 52 OFFCURVE",
"276 52 CURVE SMOOTH",
"217 52 LINE SMOOTH",
"200 52 OFFCURVE",
"184 56 OFFCURVE",
"171 66 CURVE",
"393 389 LINE",
"402 373 OFFCURVE",
"408 354 OFFCURVE",
"408 336 CURVE SMOOTH"
);
},
{
closed = 1;
nodes = (
"119 301 LINE SMOOTH",
"119 376 OFFCURVE",
"178 448 OFFCURVE",
"252 448 CURVE SMOOTH",
"311 448 LINE SMOOTH",
"327 448 OFFCURVE",
"343 442 OFFCURVE",
"357 432 CURVE",
"133 111 LINE",
"124 127 OFFCURVE",
"119 146 OFFCURVE",
"119 164 CURVE SMOOTH"
);
}
);
width = 529;
}
);
note = oslash;
unicode = 00F8;
},
{
glyphname = oe;
lastChange = "2017-12-18 10:32:45 +0000";
layers = (
{
layerId = "0B1DFD06-3317-40CA-B510-4969A0718C16";
paths = (
{
closed = 1;
nodes = (
"473 261 LINE",
"828 261 LINE",
"828 336 LINE SMOOTH",
"828 427 OFFCURVE",
"756 507 OFFCURVE",
"665 507 CURVE SMOOTH",
"606 507 LINE SMOOTH",
"541 507 OFFCURVE",
"485 474 OFFCURVE",
"448 424 CURVE",
"418 473 OFFCURVE",
"368 507 OFFCURVE",
"309 507 CURVE SMOOTH",
"250 507 LINE SMOOTH",
"141 507 OFFCURVE",
"52 413 OFFCURVE",
"52 301 CURVE SMOOTH",
"52 164 LINE SMOOTH",
"52 72 OFFCURVE",
"124 -7 OFFCURVE",
"215 -7 CURVE SMOOTH",
"274 -7 LINE SMOOTH",
"337 -7 OFFCURVE",
"395 25 OFFCURVE",
"432 74 CURVE",
"460 27 OFFCURVE",
"511 -7 OFFCURVE",
"570 -7 CURVE SMOOTH",
"629 -7 LINE SMOOTH",
"738 -7 OFFCURVE",
"828 72 OFFCURVE",
"828 184 CURVE",
"762 184 LINE",
"762 109 OFFCURVE",
"703 52 OFFCURVE",
"629 52 CURVE SMOOTH",
"570 52 LINE SMOOTH",
"517 52 OFFCURVE",
"473 111 OFFCURVE",
"473 164 CURVE SMOOTH"
);
},
{
closed = 1;
nodes = (
"407 199 LINE SMOOTH",
"407 124 OFFCURVE",
"348 52 OFFCURVE",
"274 52 CURVE SMOOTH",
"215 52 LINE SMOOTH",
"162 52 OFFCURVE",
"118 111 OFFCURVE",
"118 164 CURVE SMOOTH",
"118 301 LINE SMOOTH",
"118 376 OFFCURVE",
"177 448 OFFCURVE",
"250 448 CURVE SMOOTH",
"309 448 LINE SMOOTH",
"362 448 OFFCURVE",
"407 389 OFFCURVE",
"407 336 CURVE SMOOTH"
);
},
{
closed = 1;
nodes = (
"665 448 LINE SMOOTH",
"718 448 OFFCURVE",
"762 389 OFFCURVE",
"762 336 CURVE SMOOTH",
"762 312 LINE",
"473 312 LINE",
"473 388 OFFCURVE",
"532 448 OFFCURVE",
"606 448 CURVE SMOOTH"
);
}
);
width = 899;
}
);
note = oe;
unicode = 0153;
},
{
glyphname = thorn;
lastChange = "2017-12-18 10:33:17 +0000";
layers = (
{
layerId = "0B1DFD06-3317-40CA-B510-4969A0718C16";
paths = (
{
closed = 1;
nodes = (
"547 336 LINE SMOOTH",
"547 427 OFFCURVE",
"474 507 OFFCURVE",
"383 507 CURVE SMOOTH",
"324 507 LINE SMOOTH",
"273 507 OFFCURVE",
"227 486 OFFCURVE",
"192 454 CURVE",
"192 700 LINE",
"125 700 LINE",
"125 -222 LINE",
"192 -222 LINE",
"192 27 LINE",
"218 4 OFFCURVE",
"252 -7 OFFCURVE",
"289 -7 CURVE SMOOTH",
"348 -7 LINE SMOOTH",
"457 -7 OFFCURVE",
"547 87 OFFCURVE",
"547 199 CURVE SMOOTH"
);
},
{
closed = 1;
nodes = (
"480 199 LINE SMOOTH",
"480 124 OFFCURVE",
"421 52 OFFCURVE",
"348 52 CURVE SMOOTH",
"289 52 LINE SMOOTH",
"236 52 OFFCURVE",
"192 111 OFFCURVE",
"192 164 CURVE SMOOTH",
"192 306 LINE SMOOTH",
"192 379 OFFCURVE",
"252 448 OFFCURVE",
"324 448 CURVE SMOOTH",
"383 448 LINE SMOOTH",
"436 448 OFFCURVE",
"480 389 OFFCURVE",
"480 336 CURVE SMOOTH"
);
}
);
width = 650;
}
);
note = thorn;
unicode = 00FE;
},
{
color = 0;
glyphname = germandbls;
lastChange = "2017-12-18 11:30:54 +0000";
layers = (
{
layerId = "0B1DFD06-3317-40CA-B510-4969A0718C16";
paths = (
{
closed = 1;
nodes = (
"131 -186 LINE",
"131 505 LINE SMOOTH",
"131 581 OFFCURVE",
"190 653 OFFCURVE",
"264 653 CURVE SMOOTH",
"323 653 LINE SMOOTH",
"376 653 OFFCURVE",
"420 594 OFFCURVE",
"420 541 CURVE SMOOTH",
"420 514 LINE",
"357 482 OFFCURVE",
"311 438 OFFCURVE",
"311 385 CURVE SMOOTH",
"311 333 OFFCURVE",
"337 296 OFFCURVE",
"396 245 CURVE SMOOTH",
"444 203 OFFCURVE",
"469 202 OFFCURVE",
"469 149 CURVE SMOOTH",
"469 103 OFFCURVE",
"426 53 OFFCURVE",
"354 53 CURVE SMOOTH",
"318 53 OFFCURVE",
"280 65 OFFCURVE",
"242 85 CURVE",
"212 25 LINE",
"249 3 OFFCURVE",
"311 -13 OFFCURVE",
"354 -13 CURVE SMOOTH",
"472 -13 OFFCURVE",
"535 62 OFFCURVE",
"535 153 CURVE SMOOTH",
"535 231 OFFCURVE",
"491 242 OFFCURVE",
"444 289 CURVE",
"404 324 OFFCURVE",
"377 340 OFFCURVE",
"377 385 CURVE SMOOTH",
"377 424 OFFCURVE",
"435 454 OFFCURVE",
"486 473 CURVE",
"486 541 LINE SMOOTH",
"486 632 OFFCURVE",
"414 712 OFFCURVE",
"323 712 CURVE SMOOTH",
"264 712 LINE SMOOTH",
"155 712 OFFCURVE",
"65 617 OFFCURVE",
"65 505 CURVE SMOOTH",
"65 -186 LINE"
);
}
);
width = 585;
}
);
leftKerningGroup = f;
note = germandbls;
unicode = 00DF;
},
{
glyphname = tbar;
lastChange = "2017-12-18 10:26:13 +0000";
layers = (
{
components = (
{
name = t;
}
);
layerId = "0B1DFD06-3317-40CA-B510-4969A0718C16";
paths = (
{
closed = 1;
nodes = (
"321 260 LINE",
"321 297 LINE",
"33 297 LINE",
"33 260 LINE"
);
}
);
width = 397;
}
);
leftKerningGroup = t;
note = tbar;
rightKerningGroup = t;
unicode = 0167;
},
{
glyphname = uhorn;
lastChange = "2017-12-18 10:33:59 +0000";
layers = (
{
layerId = "0B1DFD06-3317-40CA-B510-4969A0718C16";
paths = (
{
closed = 1;
nodes = (
"119 500 LINE",
"53 500 LINE",
"53 164 LINE SMOOTH",
"53 72 OFFCURVE",
"121 -7 OFFCURVE",
"212 -7 CURVE SMOOTH",
"271 -7 LINE SMOOTH",
"324 -7 OFFCURVE",
"380 24 OFFCURVE",
"407 63 CURVE",
"407 0 LINE",
"473 0 LINE",
"473 421 LINE",
"592 452 OFFCURVE",
"594 572 OFFCURVE",
"595 623 CURVE",
"548 623 LINE",
"548 610 OFFCURVE",
"550 486 OFFCURVE",
"473 472 CURVE",
"473 500 LINE",
"407 500 LINE",
"407 174 LINE",
"396 111 OFFCURVE",
"337 52 OFFCURVE",
"271 52 CURVE SMOOTH",
"212 52 LINE SMOOTH",
"159 52 OFFCURVE",
"119 108 OFFCURVE",
"119 161 CURVE SMOOTH"
);
}
);
width = 586;
}
);
note = uhorn;
unicode = 01B0;
},
{
glyphname = fi;
lastChange = "2017-12-18 10:34:16 +0000";
layers = (
{
layerId = "0B1DFD06-3317-40CA-B510-4969A0718C16";
paths = (
{
closed = 1;
nodes = (
"125 0 LINE",
"192 0 LINE",
"192 448 LINE",
"385 448 LINE",
"385 0 LINE",
"451 0 LINE",
"451 500 LINE",
"192 500 LINE",
"193 573 OFFCURVE",
"250 632 OFFCURVE",
"324 632 CURVE",
"324 698 LINE",
"215 698 OFFCURVE",
"127 610 OFFCURVE",
"125 500 CURVE",
"29 500 LINE",
"29 448 LINE",
"125 448 LINE"
);
}
);
width = 541;
}
);
note = fi;
unicode = FB01;
},
{
glyphname = fl;
lastChange = "2017-12-18 10:34:16 +0000";
layers = (
{
layerId = "0B1DFD06-3317-40CA-B510-4969A0718C16";
paths = (
{
closed = 1;
nodes = (
"401 0 LINE",
"467 0 LINE",
"467 700 LINE",
"401 700 LINE",
"401 500 LINE",
"192 500 LINE",
"193 573 OFFCURVE",
"250 632 OFFCURVE",
"324 632 CURVE",
"324 698 LINE",
"215 698 OFFCURVE",
"127 610 OFFCURVE",
"125 500 CURVE",
"29 500 LINE",
"29 448 LINE",
"125 448 LINE",
"125 0 LINE",
"192 0 LINE",
"192 448 LINE",
"401 448 LINE"
);
}
);
width = 554;
}
);
note = fl;
unicode = FB02;
},
{
glyphname = ordfeminine;
lastChange = "2017-12-18 10:34:16 +0000";
layers = (
{
layerId = "0B1DFD06-3317-40CA-B510-4969A0718C16";
paths = (
{
closed = 1;
nodes = (
"284 281 LINE",
"332 281 LINE",
"332 629 LINE",
"284 629 LINE",
"284 597 LINE",
"268 614 OFFCURVE",
"253 634 OFFCURVE",
"217 634 CURVE SMOOTH",
"175 634 LINE SMOOTH",
"99 634 OFFCURVE",
"35 569 OFFCURVE",
"35 491 CURVE SMOOTH",
"35 396 LINE SMOOTH",
"35 333 OFFCURVE",
"77 278 OFFCURVE",
"140 278 CURVE SMOOTH",
"181 278 LINE SMOOTH",
"217 278 OFFCURVE",
"267 301 OFFCURVE",
"284 330 CURVE"
);
},
{
closed = 1;
nodes = (
"284 417 LINE SMOOTH",
"283 367 OFFCURVE",
"231 318 OFFCURVE",
"181 318 CURVE SMOOTH",
"140 318 LINE SMOOTH",
"103 318 OFFCURVE",
"83 360 OFFCURVE",
"83 396 CURVE SMOOTH",
"83 491 LINE SMOOTH",
"83 544 OFFCURVE",
"124 594 OFFCURVE",
"175 594 CURVE SMOOTH",
"217 594 LINE SMOOTH",
"252 594 OFFCURVE",
"281 551 OFFCURVE",
"284 516 CURVE"
);
}
);
width = 371;
}
);
note = ordfeminine;
unicode = 00AA;
},
{
glyphname = ordmasculine;
lastChange = "2017-12-18 10:34:16 +0000";
layers = (
{
layerId = "0B1DFD06-3317-40CA-B510-4969A0718C16";
paths = (
{
closed = 1;
nodes = (
"334 516 LINE SMOOTH",
"334 579 OFFCURVE",
"283 635 OFFCURVE",
"220 635 CURVE SMOOTH",
"178 635 LINE SMOOTH",
"102 635 OFFCURVE",
"38 569 OFFCURVE",
"38 491 CURVE SMOOTH",
"38 395 LINE SMOOTH",
"38 330 OFFCURVE",
"90 274 OFFCURVE",
"153 274 CURVE SMOOTH",
"195 274 LINE SMOOTH",
"271 274 OFFCURVE",
"334 340 OFFCURVE",
"334 420 CURVE SMOOTH"
);
},
{
closed = 1;
nodes = (
"287 420 LINE SMOOTH",
"287 367 OFFCURVE",
"246 317 OFFCURVE",
"195 317 CURVE SMOOTH",
"153 317 LINE SMOOTH",
"116 317 OFFCURVE",
"85 358 OFFCURVE",
"85 395 CURVE SMOOTH",
"85 491 LINE SMOOTH",
"85 544 OFFCURVE",
"127 594 OFFCURVE",
"178 594 CURVE SMOOTH",
"220 594 LINE SMOOTH",
"256 594 OFFCURVE",
"287 553 OFFCURVE",
"287 516 CURVE SMOOTH"
);
}
);
width = 371;
}
);
note = ordmasculine;
unicode = 00BA;
},
{
color = 0;
glyphname = nmod;
lastChange = "2017-12-19 03:43:45 +0000";
layers = (
{
layerId = "0B1DFD06-3317-40CA-B510-4969A0718C16";
paths = (
{
closed = 1;
nodes = (
"410 378 LINE",
"410 397 LINE",
"392 397 LINE SMOOTH",
"368 397 OFFCURVE",
"350 405 OFFCURVE",
"350 424 CURVE SMOOTH",
"350 599 LINE SMOOTH",
"350 660 OFFCURVE",
"323 708 OFFCURVE",
"240 708 CURVE SMOOTH",
"168 708 OFFCURVE",
"128 658 OFFCURVE",
"116 601 CURVE",
"116 548 LINE",
"135 548 LINE",
"135 628 OFFCURVE",
"173 677 OFFCURVE",
"221 677 CURVE SMOOTH",
"266 677 OFFCURVE",
"281 652 OFFCURVE",
"281 595 CURVE SMOOTH",
"281 424 LINE SMOOTH",
"281 405 OFFCURVE",
"264 397 OFFCURVE",
"239 397 CURVE SMOOTH",
"229 397 LINE",
"229 378 LINE"
);
},
{
closed = 1;
nodes = (
"187 378 LINE",
"187 397 LINE",
"177 397 LINE SMOOTH",
"152 397 OFFCURVE",
"135 405 OFFCURVE",
"135 424 CURVE SMOOTH",
"135 706 LINE",
"114 706 LINE",
"17 670 LINE",
"22 652 LINE",
"30 655 OFFCURVE",
"42 659 OFFCURVE",
"50 659 CURVE SMOOTH",
"58 659 OFFCURVE",
"66 656 OFFCURVE",
"66 643 CURVE SMOOTH",
"66 424 LINE SMOOTH",
"66 405 OFFCURVE",
"48 397 OFFCURVE",
"23 397 CURVE SMOOTH",
"6 397 LINE",
"6 378 LINE"
);
}
);
width = 416;
}
);
note = uni207F;
unicode = 207F;
},
{
glyphname = Delta;
lastChange = "2017-12-18 11:17:50 +0000";
layers = (
{
layerId = "0B1DFD06-3317-40CA-B510-4969A0718C16";
paths = (
{
closed = 1;
nodes = (
"324 609 LINE",
"-6 0 LINE",
"647 0 LINE"
);
},
{
closed = 1;
nodes = (
"96 63 LINE",
"324 482 LINE",
"538 63 LINE"
);
}
);
width = 641;
}
);
note = Delta;
unicode = 0394;
},
{
glyphname = Omega;
lastChange = "2017-12-18 11:17:53 +0000";
layers = (
{
layerId = "0B1DFD06-3317-40CA-B510-4969A0718C16";
paths = (
{
closed = 1;
nodes = (
"681 0 LINE",
"681 57 LINE",
"482 57 LINE",
"482 153 LINE",
"576 169 OFFCURVE",
"648 258 OFFCURVE",
"648 357 CURVE SMOOTH",
"648 495 LINE SMOOTH",
"648 585 OFFCURVE",
"576 666 OFFCURVE",
"485 666 CURVE SMOOTH",
"273 666 LINE SMOOTH",
"162 666 OFFCURVE",
"74 569 OFFCURVE",
"74 460 CURVE SMOOTH",
"74 306 LINE SMOOTH",
"74 217 OFFCURVE",
"146 150 OFFCURVE",
"237 150 CURVE",
"237 57 LINE",
"38 57 LINE",
"38 0 LINE",
"292 0 LINE",
"292 209 LINE",
"237 209 LINE SMOOTH",
"183 209 OFFCURVE",
"140 271 OFFCURVE",
"140 321 CURVE SMOOTH",
"140 460 LINE SMOOTH",
"140 532 OFFCURVE",
"196 607 OFFCURVE",
"273 607 CURVE SMOOTH",
"485 607 LINE SMOOTH",
"539 607 OFFCURVE",
"582 545 OFFCURVE",
"582 495 CURVE SMOOTH",
"582 357 LINE SMOOTH",
"582 284 OFFCURVE",
"526 209 OFFCURVE",
"449 209 CURVE SMOOTH",
"427 209 LINE",
"427 0 LINE"
);
}
);
width = 719;
}
);
note = Omega;
unicode = 03A9;
},
{
glyphname = mu;
lastChange = "2017-12-18 11:17:57 +0000";
layers = (
{
layerId = "0B1DFD06-3317-40CA-B510-4969A0718C16";
paths = (
{
closed = 1;
nodes = (
"119 -183 LINE",
"119 24 LINE",
"144 4 OFFCURVE",
"177 -7 OFFCURVE",
"212 -7 CURVE SMOOTH",
"271 -7 LINE SMOOTH",
"324 -7 OFFCURVE",
"380 24 OFFCURVE",
"407 63 CURVE",
"407 0 LINE",
"473 0 LINE",
"473 500 LINE",
"407 500 LINE",
"407 174 LINE",
"396 111 OFFCURVE",
"337 52 OFFCURVE",
"271 52 CURVE SMOOTH",
"212 52 LINE SMOOTH",
"159 52 OFFCURVE",
"119 108 OFFCURVE",
"119 161 CURVE SMOOTH",
"119 500 LINE",
"53 500 LINE",
"53 -183 LINE"
);
}
);
width = 526;
}
);
note = mu;
unicode = 03BC;
},
{
color = 0;
glyphname = pi;
lastChange = "2017-12-18 11:17:35 +0000";
layers = (
{
layerId = "0B1DFD06-3317-40CA-B510-4969A0718C16";
paths = (
{
closed = 1;
nodes = (
"577 -10 OFFCURVE",
"603 -4 OFFCURVE",
"633 13 CURVE",
"633 54 LINE",
"618 44 OFFCURVE",
"598 36 OFFCURVE",
"581 36 CURVE SMOOTH",
"555 36 OFFCURVE",
"528 49 OFFCURVE",
"528 100 CURVE SMOOTH",
"528 431 LINE",
"647 431 LINE",
"647 470 LINE",
"19 470 LINE",
"19 431 LINE",
"136 431 LINE",
"136 0 LINE",
"231 0 LINE",
"231 431 LINE",
"433 431 LINE",
"433 96 LINE SMOOTH",
"433 32 OFFCURVE",
"466 -10 OFFCURVE",
"540 -10 CURVE SMOOTH"
);
}
);
width = 664;
}
);
note = pi;
unicode = 03C0;
},
{
glyphname = "koKai-thai";
lastChange = "2017-12-18 10:42:32 +0000";
layers = (
{
layerId = "0B1DFD06-3317-40CA-B510-4969A0718C16";
paths = (
{
closed = 1;
nodes = (
"433 0 LINE",
"500 0 LINE",
"500 436 LINE SMOOTH",
"500 513 OFFCURVE",
"426 584 OFFCURVE",
"351 584 CURVE SMOOTH",
"261 584 LINE SMOOTH",
"150 584 OFFCURVE",
"50 494 OFFCURVE",
"38 383 CURVE",
"74 379 OFFCURVE",
"103 340 OFFCURVE",
"103 305 CURVE SMOOTH",
"103 0 LINE",
"169 0 LINE",
"169 305 LINE SMOOTH",
"169 342 OFFCURVE",
"158 382 OFFCURVE",
"118 413 CURVE",
"139 467 OFFCURVE",
"197 525 OFFCURVE",
"258 525 CURVE SMOOTH",
"351 525 LINE SMOOTH",
"393 525 OFFCURVE",
"432 480 OFFCURVE",
"433 436 CURVE SMOOTH"
);
}
);
width = 581;
}
);
note = uni0E01;
unicode = 0E01;
},
{
glyphname = "thoThung-thai";
lastChange = "2017-12-18 10:42:32 +0000";
layers = (
{
layerId = "0B1DFD06-3317-40CA-B510-4969A0718C16";
paths = (
{
closed = 1;
nodes = (
"146 118 OFFCURVE",
"171 144 OFFCURVE",
"197 144 CURVE SMOOTH",
"224 144 OFFCURVE",
"248 119 OFFCURVE",
"248 94 CURVE SMOOTH",
"248 65 OFFCURVE",
"225 41 OFFCURVE",
"197 41 CURVE SMOOTH",
"169 41 OFFCURVE",
"146 66 OFFCURVE",
"146 94 CURVE SMOOTH"
);
},
{
closed = 1;
nodes = (
"500 436 LINE SMOOTH",
"500 513 OFFCURVE",
"426 584 OFFCURVE",
"351 584 CURVE SMOOTH",
"261 584 LINE SMOOTH",
"150 584 OFFCURVE",
"50 494 OFFCURVE",
"38 383 CURVE",
"74 379 OFFCURVE",
"103 340 OFFCURVE",
"103 305 CURVE SMOOTH",
"103 77 LINE",
"109 34 OFFCURVE",
"155 0 OFFCURVE",
"197 0 CURVE SMOOTH",
"249 0 OFFCURVE",
"292 41 OFFCURVE",
"292 94 CURVE SMOOTH",
"292 140 OFFCURVE",
"246 186 OFFCURVE",
"197 186 CURVE SMOOTH",
"189 186 OFFCURVE",
"178 186 OFFCURVE",
"169 183 CURVE",
"169 304 LINE SMOOTH",
"169 342 OFFCURVE",
"158 382 OFFCURVE",
"118 413 CURVE",
"139 467 OFFCURVE",
"197 525 OFFCURVE",
"258 525 CURVE SMOOTH",
"351 525 LINE SMOOTH",
"393 525 OFFCURVE",
"433 480 OFFCURVE",
"433 436 CURVE SMOOTH",
"433 0 LINE",
"500 0 LINE"
);
}
);
width = 579;
}
);
note = uni0E16;
unicode = 0E16;
},
{
glyphname = "phoSamphao-thai";
lastChange = "2017-12-18 10:42:32 +0000";
layers = (
{
layerId = "0B1DFD06-3317-40CA-B510-4969A0718C16";
paths = (
{
closed = 1;
nodes = (
"225 305 LINE SMOOTH",
"225 355 OFFCURVE",
"177 404 OFFCURVE",
"141 417 CURVE",
"162 472 OFFCURVE",
"221 525 OFFCURVE",
"281 525 CURVE SMOOTH",
"374 525 LINE SMOOTH",
"417 525 OFFCURVE",
"457 480 OFFCURVE",
"457 436 CURVE SMOOTH",
"457 0 LINE",
"523 0 LINE",
"523 436 LINE SMOOTH",
"523 513 OFFCURVE",
"449 584 OFFCURVE",
"374 584 CURVE SMOOTH",
"284 584 LINE SMOOTH",
"174 584 OFFCURVE",
"74 498 OFFCURVE",
"62 388 CURVE",
"106 383 OFFCURVE",
"159 334 OFFCURVE",
"159 304 CURVE SMOOTH",
"159 183 LINE",
"150 186 OFFCURVE",
"141 187 OFFCURVE",
"133 187 CURVE SMOOTH",
"84 187 OFFCURVE",
"40 143 OFFCURVE",
"40 93 CURVE SMOOTH",
"40 46 OFFCURVE",
"83 0 OFFCURVE",
"133 0 CURVE SMOOTH",
"180 0 OFFCURVE",
"225 41 OFFCURVE",
"225 88 CURVE SMOOTH"
);
},
{
closed = 1;
nodes = (
"83 119 OFFCURVE",
"105 144 OFFCURVE",
"133 144 CURVE SMOOTH",
"161 144 OFFCURVE",
"184 121 OFFCURVE",
"184 93 CURVE SMOOTH",
"184 66 OFFCURVE",
"161 43 OFFCURVE",
"133 43 CURVE SMOOTH",
"105 43 OFFCURVE",
"83 66 OFFCURVE",
"81 93 CURVE"
);
}
);
width = 600;
}
);
note = uni0E20;
unicode = 0E20;
},
{
glyphname = "ru-thai";
lastChange = "2017-12-18 10:42:38 +0000";
layers = (
{
layerId = "0B1DFD06-3317-40CA-B510-4969A0718C16";
paths = (
{
closed = 1;
nodes = (
"105 88 LINE SMOOTH",
"105 40 OFFCURVE",
"150 0 OFFCURVE",
"196 0 CURVE SMOOTH",
"246 0 OFFCURVE",
"290 43 OFFCURVE",
"290 93 CURVE SMOOTH",
"290 147 OFFCURVE",
"242 187 OFFCURVE",
"192 187 CURVE SMOOTH",
"184 187 OFFCURVE",
"178 186 OFFCURVE",
"171 184 CURVE",
"171 305 LINE SMOOTH",
"171 343 OFFCURVE",
"159 382 OFFCURVE",
"119 413 CURVE",
"140 467 OFFCURVE",
"199 525 OFFCURVE",
"259 525 CURVE SMOOTH",
"352 525 LINE SMOOTH",
"395 525 OFFCURVE",
"435 480 OFFCURVE",
"435 436 CURVE SMOOTH",
"435 -243 LINE",
"501 -243 LINE",
"501 436 LINE SMOOTH",
"501 513 OFFCURVE",
"427 584 OFFCURVE",
"352 584 CURVE SMOOTH",
"262 584 LINE SMOOTH",
"152 584 OFFCURVE",
"52 494 OFFCURVE",
"40 383 CURVE",
"75 379 OFFCURVE",
"105 340 OFFCURVE",
"105 305 CURVE SMOOTH"
);
},
{
closed = 1;
nodes = (
"146 118 OFFCURVE",
"168 143 OFFCURVE",
"196 143 CURVE SMOOTH",
"222 143 OFFCURVE",
"248 119 OFFCURVE",
"248 93 CURVE SMOOTH",
"248 66 OFFCURVE",
"224 43 OFFCURVE",
"196 43 CURVE SMOOTH",
"169 43 OFFCURVE",
"146 66 OFFCURVE",
"146 93 CURVE SMOOTH"
);
}
);
width = 578;
}
);
note = "ru-thai";
unicode = 0E24;
},
{
color = 0;
glyphname = "ru-thai.short";
lastChange = "2017-12-18 11:19:07 +0000";
layers = (
{
layerId = "0B1DFD06-3317-40CA-B510-4969A0718C16";
paths = (
{
closed = 1;
nodes = (
"524 -140 LINE",
"524 379 LINE SMOOTH",
"524 505 OFFCURVE",
"416 563 OFFCURVE",
"285 563 CURVE SMOOTH",
"171 563 OFFCURVE",
"50 499 OFFCURVE",
"38 348 CURVE",
"145 348 LINE",
"81 321 OFFCURVE",
"59 268 OFFCURVE",
"59 215 CURVE SMOOTH",
"59 117 LINE SMOOTH",
"59 38 OFFCURVE",
"94 -10 OFFCURVE",
"181 -10 CURVE SMOOTH",
"239 -10 OFFCURVE",
"285 27 OFFCURVE",
"285 87 CURVE SMOOTH",
"285 155 OFFCURVE",
"229 179 OFFCURVE",
"196 179 CURVE SMOOTH",
"181 179 OFFCURVE",
"165 177 OFFCURVE",
"154 169 CURVE",
"154 222 LINE SMOOTH",
"154 288 OFFCURVE",
"176 319 OFFCURVE",
"232 346 CURVE",
"232 381 LINE",
"92 381 LINE",
"107 472 OFFCURVE",
"191 520 OFFCURVE",
"270 520 CURVE SMOOTH",
"373 520 OFFCURVE",
"429 461 OFFCURVE",
"429 396 CURVE SMOOTH",
"429 -140 LINE"
);
},
{
closed = 1;
nodes = (
"146 23 OFFCURVE",
"125 52 OFFCURVE",
"125 87 CURVE SMOOTH",
"125 122 OFFCURVE",
"152 149 OFFCURVE",
"188 149 CURVE SMOOTH",
"223 149 OFFCURVE",
"249 122 OFFCURVE",
"249 87 CURVE SMOOTH",
"249 52 OFFCURVE",
"226 23 OFFCURVE",
"188 23 CURVE SMOOTH"
);
}
);
width = 585;
}
);
note = "ru-thai.short";
},
{
glyphname = "lu-thai";
lastChange = "2017-12-18 10:42:41 +0000";
layers = (
{
layerId = "0B1DFD06-3317-40CA-B510-4969A0718C16";
paths = (
{
closed = 1;
nodes = (
"526 436 LINE SMOOTH",
"526 513 OFFCURVE",
"452 584 OFFCURVE",
"377 584 CURVE SMOOTH",
"287 584 LINE SMOOTH",
"177 584 OFFCURVE",
"77 498 OFFCURVE",
"65 388 CURVE",
"109 383 OFFCURVE",
"162 334 OFFCURVE",
"162 304 CURVE SMOOTH",
"162 184 LINE",
"158 186 OFFCURVE",
"147 187 OFFCURVE",
"136 187 CURVE SMOOTH",
"85 187 OFFCURVE",
"41 146 OFFCURVE",
"41 94 CURVE SMOOTH",
"41 44 OFFCURVE",
"84 0 OFFCURVE",
"136 0 CURVE SMOOTH",
"183 0 OFFCURVE",
"225 43 OFFCURVE",
"228 90 CURVE",
"228 305 LINE SMOOTH",
"228 355 OFFCURVE",
"180 404 OFFCURVE",
"144 417 CURVE",
"165 472 OFFCURVE",
"224 525 OFFCURVE",
"284 525 CURVE SMOOTH",
"377 525 LINE SMOOTH",
"420 525 OFFCURVE",
"460 480 OFFCURVE",
"460 436 CURVE SMOOTH",
"460 -243 LINE",
"526 -243 LINE"
);
},
{
closed = 1;
nodes = (
"84 121 OFFCURVE",
"108 144 OFFCURVE",
"136 144 CURVE SMOOTH",
"164 144 OFFCURVE",
"186 122 OFFCURVE",
"186 94 CURVE SMOOTH",
"186 69 OFFCURVE",
"164 44 OFFCURVE",
"136 44 CURVE SMOOTH",
"108 44 OFFCURVE",
"84 68 OFFCURVE",
"84 94 CURVE SMOOTH"
);
}
);
width = 603;
}
);
note = "lu-thai";
unicode = 0E26;
},
{
color = 0;
glyphname = "lu-thai.short";
lastChange = "2017-12-18 11:19:07 +0000";
layers = (
{
layerId = "0B1DFD06-3317-40CA-B510-4969A0718C16";
paths = (
{
closed = 1;
nodes = (
"567 -140 LINE",
"567 379 LINE SMOOTH",
"567 505 OFFCURVE",
"459 563 OFFCURVE",
"329 563 CURVE SMOOTH",
"214 563 OFFCURVE",
"94 499 OFFCURVE",
"81 348 CURVE",
"211 348 LINE",
"152 323 OFFCURVE",
"132 275 OFFCURVE",
"132 223 CURVE SMOOTH",
"132 169 LINE",
"120 177 OFFCURVE",
"105 179 OFFCURVE",
"90 179 CURVE SMOOTH",
"56 179 OFFCURVE",
"0 155 OFFCURVE",
"0 87 CURVE SMOOTH",
"0 27 OFFCURVE",
"47 -10 OFFCURVE",
"105 -10 CURVE SMOOTH",
"185 -10 OFFCURVE",
"227 32 OFFCURVE",
"227 103 CURVE SMOOTH",
"227 206 LINE SMOOTH",
"227 277 OFFCURVE",
"241 318 OFFCURVE",
"297 346 CURVE",
"297 381 LINE",
"134 381 LINE",
"149 472 OFFCURVE",
"234 520 OFFCURVE",
"313 520 CURVE SMOOTH",
"416 520 OFFCURVE",
"472 461 OFFCURVE",
"472 396 CURVE SMOOTH",
"472 -140 LINE"
);
},
{
closed = 1;
nodes = (
"60 23 OFFCURVE",
"37 52 OFFCURVE",
"37 87 CURVE SMOOTH",
"37 122 OFFCURVE",
"63 149 OFFCURVE",
"98 149 CURVE SMOOTH",
"134 149 OFFCURVE",
"161 122 OFFCURVE",
"161 87 CURVE SMOOTH",
"161 52 OFFCURVE",
"139 23 OFFCURVE",
"98 23 CURVE SMOOTH"
);
}
);
width = 628;
}
);
note = "lu-thai.short";
},
{
glyphname = "doChada-thai";
lastChange = "2017-12-18 10:42:45 +0000";
layers = (
{
layerId = "0B1DFD06-3317-40CA-B510-4969A0718C16";
paths = (
{
closed = 1;
nodes = (
"222 304 LINE SMOOTH",
"222 355 OFFCURVE",
"175 404 OFFCURVE",
"140 417 CURVE",
"161 472 OFFCURVE",
"220 525 OFFCURVE",
"280 525 CURVE SMOOTH",
"373 525 LINE SMOOTH",
"416 525 OFFCURVE",
"455 480 OFFCURVE",
"455 436 CURVE SMOOTH",
"455 -133 LINE",
"432 -175 OFFCURVE",
"405 -205 OFFCURVE",
"376 -218 CURVE",
"258 -127 LINE SMOOTH",
"236 -111 OFFCURVE",
"212 -100 OFFCURVE",
"187 -100 CURVE SMOOTH",
"139 -100 OFFCURVE",
"94 -143 OFFCURVE",
"94 -193 CURVE SMOOTH",
"94 -243 OFFCURVE",
"140 -287 OFFCURVE",
"187 -287 CURVE SMOOTH",
"227 -287 OFFCURVE",
"264 -261 OFFCURVE",
"277 -222 CURVE",
"374 -295 LINE",
"441 -265 OFFCURVE",
"488 -211 OFFCURVE",
"522 -143 CURVE",
"522 436 LINE SMOOTH",
"522 513 OFFCURVE",
"448 584 OFFCURVE",
"373 584 CURVE SMOOTH",
"283 584 LINE SMOOTH",
"172 584 OFFCURVE",
"72 498 OFFCURVE",
"60 388 CURVE",
"105 383 OFFCURVE",
"156 334 OFFCURVE",
"156 304 CURVE SMOOTH",
"156 183 LINE",
"147 186 OFFCURVE",
"139 186 OFFCURVE",
"130 186 CURVE SMOOTH",
"78 186 OFFCURVE",
"37 143 OFFCURVE",
"37 93 CURVE SMOOTH",
"37 44 OFFCURVE",
"80 0 OFFCURVE",
"130 0 CURVE SMOOTH",
"178 0 OFFCURVE",
"222 40 OFFCURVE",
"222 88 CURVE SMOOTH"
);
},
{
closed = 1;
nodes = (
"80 121 OFFCURVE",
"102 143 OFFCURVE",
"130 143 CURVE SMOOTH",
"156 143 OFFCURVE",
"181 122 OFFCURVE",
"181 93 CURVE SMOOTH",
"181 66 OFFCURVE",
"158 43 OFFCURVE",
"130 43 CURVE SMOOTH",
"105 43 OFFCURVE",
"80 65 OFFCURVE",
"80 93 CURVE SMOOTH"
);
},
{
closed = 1;
nodes = (
"137 -167 OFFCURVE",
"159 -143 OFFCURVE",
"187 -143 CURVE SMOOTH",
"220 -143 OFFCURVE",
"239 -165 OFFCURVE",
"239 -193 CURVE SMOOTH",
"239 -221 OFFCURVE",
"215 -245 OFFCURVE",
"187 -245 CURVE SMOOTH",
"162 -245 OFFCURVE",
"137 -220 OFFCURVE",
"137 -193 CURVE SMOOTH"
);
}
);
width = 599;
}
);
note = "doChada-thai";
unicode = 0E0E;
},
{
glyphname = "doChada-thai.short";
lastChange = "2017-12-18 10:42:45 +0000";
layers = (
{
layerId = "0B1DFD06-3317-40CA-B510-4969A0718C16";
paths = (
{
closed = 1;
nodes = (
"374 -74 LINE",
"455 -72 OFFCURVE",
"522 0 OFFCURVE",
"522 78 CURVE SMOOTH",
"522 436 LINE SMOOTH",
"522 513 OFFCURVE",
"448 584 OFFCURVE",
"373 584 CURVE SMOOTH",
"283 584 LINE SMOOTH",
"172 584 OFFCURVE",
"72 498 OFFCURVE",
"60 388 CURVE",
"105 383 OFFCURVE",
"156 334 OFFCURVE",
"156 304 CURVE SMOOTH",
"156 271 LINE",
"147 274 OFFCURVE",
"139 274 OFFCURVE",
"130 274 CURVE SMOOTH",
"78 274 OFFCURVE",
"37 231 OFFCURVE",
"37 181 CURVE SMOOTH",
"37 133 OFFCURVE",
"80 88 OFFCURVE",
"130 88 CURVE SMOOTH",
"178 88 OFFCURVE",
"222 128 OFFCURVE",
"222 177 CURVE SMOOTH",
"222 304 LINE SMOOTH",
"222 355 OFFCURVE",
"175 404 OFFCURVE",
"140 417 CURVE",
"161 472 OFFCURVE",
"220 525 OFFCURVE",
"280 525 CURVE SMOOTH",
"373 525 LINE SMOOTH",
"416 525 OFFCURVE",
"455 480 OFFCURVE",
"455 436 CURVE SMOOTH",
"455 88 LINE SMOOTH",
"455 34 OFFCURVE",
"417 -10 OFFCURVE",
"374 -13 CURVE",
"256 49 LINE SMOOTH",
"233 62 OFFCURVE",
"211 74 OFFCURVE",
"186 74 CURVE SMOOTH",
"137 74 OFFCURVE",
"93 31 OFFCURVE",
"93 -19 CURVE SMOOTH",
"93 -69 OFFCURVE",
"139 -113 OFFCURVE",
"186 -113 CURVE SMOOTH",
"233 -113 OFFCURVE",
"277 -75 OFFCURVE",
"280 -27 CURVE"
);
},
{
closed = 1;
nodes = (
"80 209 OFFCURVE",
"102 231 OFFCURVE",
"130 231 CURVE SMOOTH",
"156 231 OFFCURVE",
"181 211 OFFCURVE",
"181 181 CURVE SMOOTH",
"181 155 OFFCURVE",
"158 131 OFFCURVE",
"130 131 CURVE SMOOTH",
"105 131 OFFCURVE",
"80 153 OFFCURVE",
"80 181 CURVE SMOOTH"
);
},
{
closed = 1;
nodes = (
"136 7 OFFCURVE",
"158 31 OFFCURVE",
"186 31 CURVE SMOOTH",
"218 31 OFFCURVE",
"237 9 OFFCURVE",
"237 -19 CURVE SMOOTH",
"237 -47 OFFCURVE",
"214 -71 OFFCURVE",
"186 -71 CURVE SMOOTH",
"161 -71 OFFCURVE",
"136 -46 OFFCURVE",
"136 -19 CURVE SMOOTH"
);
}
);
width = 599;
}
);
note = "doChada-thai.short";
},
{
glyphname = "toPatak-thai";
lastChange = "2017-12-18 10:42:50 +0000";
layers = (
{
layerId = "0B1DFD06-3317-40CA-B510-4969A0718C16";
paths = (
{
closed = 1;
nodes = (
"522 436 LINE SMOOTH",
"522 513 OFFCURVE",
"448 584 OFFCURVE",
"373 584 CURVE SMOOTH",
"283 584 LINE SMOOTH",
"172 584 OFFCURVE",
"72 498 OFFCURVE",
"60 388 CURVE",
"105 383 OFFCURVE",
"156 334 OFFCURVE",
"156 304 CURVE SMOOTH",
"156 183 LINE",
"149 186 OFFCURVE",
"139 186 OFFCURVE",
"130 186 CURVE SMOOTH",
"81 186 OFFCURVE",
"37 141 OFFCURVE",
"37 93 CURVE SMOOTH",
"37 43 OFFCURVE",
"81 0 OFFCURVE",
"130 0 CURVE SMOOTH",
"178 0 OFFCURVE",
"222 40 OFFCURVE",
"222 88 CURVE SMOOTH",
"222 305 LINE SMOOTH",
"222 355 OFFCURVE",
"175 404 OFFCURVE",
"140 417 CURVE",
"161 472 OFFCURVE",
"220 525 OFFCURVE",
"280 525 CURVE SMOOTH",
"373 525 LINE SMOOTH",
"416 525 OFFCURVE",
"455 480 OFFCURVE",
"455 436 CURVE SMOOTH",
"455 -144 LINE SMOOTH",
"455 -161 OFFCURVE",
"452 -174 OFFCURVE",
"444 -183 CURVE",
"436 -193 OFFCURVE",
"426 -200 OFFCURVE",
"414 -208 CURVE",
"340 -93 LINE",
"273 -208 LINE",
"215 -124 LINE",
"196 -102 OFFCURVE",
"171 -88 OFFCURVE",
"141 -88 CURVE SMOOTH",
"91 -88 OFFCURVE",
"47 -131 OFFCURVE",
"47 -183 CURVE SMOOTH",
"47 -233 OFFCURVE",
"91 -277 OFFCURVE",
"141 -277 CURVE SMOOTH",
"175 -277 OFFCURVE",
"206 -258 OFFCURVE",
"222 -230 CURVE",
"271 -295 LINE",
"337 -181 LINE",
"408 -295 LINE",
"458 -262 OFFCURVE",
"488 -237 OFFCURVE",
"502 -214 CURVE SMOOTH",
"516 -192 OFFCURVE",
"522 -168 OFFCURVE",
"522 -144 CURVE SMOOTH"
);
},
{
closed = 1;
nodes = (
"80 118 OFFCURVE",
"103 141 OFFCURVE",
"130 143 CURVE",
"156 143 OFFCURVE",
"181 121 OFFCURVE",
"181 93 CURVE SMOOTH",
"181 65 OFFCURVE",
"159 43 OFFCURVE",
"130 43 CURVE SMOOTH",
"105 43 OFFCURVE",
"80 66 OFFCURVE",
"80 93 CURVE SMOOTH"
);
},
{
closed = 1;
nodes = (
"90 -156 OFFCURVE",
"113 -131 OFFCURVE",
"141 -131 CURVE SMOOTH",
"168 -131 OFFCURVE",
"193 -155 OFFCURVE",
"193 -183 CURVE SMOOTH",
"193 -209 OFFCURVE",
"169 -234 OFFCURVE",
"141 -234 CURVE SMOOTH",
"115 -234 OFFCURVE",
"90 -208 OFFCURVE",
"90 -183 CURVE SMOOTH"
);
}
);
width = 599;
}
);
note = "toPatak-thai";
unicode = 0E0F;
},
{
glyphname = "toPatak-thai.short";
lastChange = "2017-12-18 10:42:50 +0000";
layers = (
{
layerId = "0B1DFD06-3317-40CA-B510-4969A0718C16";
paths = (
{
closed = 1;
nodes = (
"349 40 LINE",
"408 -74 LINE",
"458 -41 OFFCURVE",
"488 -16 OFFCURVE",
"502 7 CURVE SMOOTH",
"516 29 OFFCURVE",
"522 53 OFFCURVE",
"522 77 CURVE SMOOTH",
"522 436 LINE SMOOTH",
"522 513 OFFCURVE",
"448 584 OFFCURVE",
"373 584 CURVE SMOOTH",
"283 584 LINE SMOOTH",
"172 584 OFFCURVE",
"72 498 OFFCURVE",
"60 388 CURVE",
"105 383 OFFCURVE",
"156 334 OFFCURVE",
"156 304 CURVE SMOOTH",
"156 271 LINE",
"149 274 OFFCURVE",
"139 274 OFFCURVE",
"130 274 CURVE SMOOTH",
"81 274 OFFCURVE",
"37 230 OFFCURVE",
"37 181 CURVE SMOOTH",
"37 131 OFFCURVE",
"81 88 OFFCURVE",
"130 88 CURVE SMOOTH",
"178 88 OFFCURVE",
"222 128 OFFCURVE",
"222 177 CURVE SMOOTH",
"222 305 LINE SMOOTH",
"222 355 OFFCURVE",
"175 404 OFFCURVE",
"140 417 CURVE",
"161 472 OFFCURVE",
"220 525 OFFCURVE",
"280 525 CURVE SMOOTH",
"373 525 LINE SMOOTH",
"416 525 OFFCURVE",
"455 480 OFFCURVE",
"455 436 CURVE SMOOTH",
"455 77 LINE SMOOTH",
"455 60 OFFCURVE",
"452 47 OFFCURVE",
"444 38 CURVE",
"436 28 OFFCURVE",
"426 21 OFFCURVE",
"414 13 CURVE",
"352 128 LINE",
"281 6 LINE",
"281 6 OFFCURVE",
"249 40 OFFCURVE",
"225 47 CURVE SMOOTH",
"195 57 OFFCURVE",
"156 57 OFFCURVE",
"122 57 CURVE SMOOTH",
"72 57 OFFCURVE",
"28 15 OFFCURVE",
"28 -37 CURVE SMOOTH",
"28 -87 OFFCURVE",
"72 -131 OFFCURVE",
"122 -131 CURVE SMOOTH",
"171 -131 OFFCURVE",
"217 -87 OFFCURVE",
"217 -37 CURVE SMOOTH",
"217 -27 OFFCURVE",
"215 -7 OFFCURVE",
"208 0 CURVE",
"248 -7 OFFCURVE",
"283 -74 OFFCURVE",
"283 -74 CURVE"
);
},
{
closed = 1;
nodes = (
"80 206 OFFCURVE",
"103 230 OFFCURVE",
"130 231 CURVE",
"156 231 OFFCURVE",
"181 209 OFFCURVE",
"181 181 CURVE SMOOTH",
"181 153 OFFCURVE",
"159 131 OFFCURVE",
"130 131 CURVE SMOOTH",
"105 131 OFFCURVE",
"80 155 OFFCURVE",
"80 181 CURVE SMOOTH"
);
},
{
closed = 1;
nodes = (
"71 -10 OFFCURVE",
"94 15 OFFCURVE",
"122 15 CURVE SMOOTH",
"149 15 OFFCURVE",
"174 -9 OFFCURVE",
"174 -37 CURVE SMOOTH",
"174 -63 OFFCURVE",
"150 -88 OFFCURVE",
"122 -88 CURVE SMOOTH",
"96 -88 OFFCURVE",
"71 -62 OFFCURVE",
"71 -37 CURVE SMOOTH"
);
}
);
width = 599;
}
);
note = "toPatak-thai.short";
},
{
glyphname = "ru_lakkhangyao-thai";
lastChange = "2017-12-18 10:42:57 +0000";
layers = (
{
layerId = "0B1DFD06-3317-40CA-B510-4969A0718C16";
paths = (
{
closed = 1;
nodes = (
"849 436 LINE",
"849 477 OFFCURVE",
"834 513 OFFCURVE",
"805 542 CURVE SMOOTH",
"777 570 OFFCURVE",
"743 584 OFFCURVE",
"703 584 CURVE SMOOTH",
"657 584 LINE SMOOTH",
"598 582 OFFCURVE",
"547 560 OFFCURVE",
"505 517 CURVE",
"492 505 LINE",
"466 550 OFFCURVE",
"416 584 OFFCURVE",
"364 584 CURVE SMOOTH",
"274 584 LINE SMOOTH",
"164 584 OFFCURVE",
"63 494 OFFCURVE",
"52 383 CURVE",
"87 379 OFFCURVE",
"116 340 OFFCURVE",
"116 305 CURVE SMOOTH",
"116 77 LINE",
"122 34 OFFCURVE",
"168 0 OFFCURVE",
"211 0 CURVE SMOOTH",
"262 0 OFFCURVE",
"305 41 OFFCURVE",
"305 94 CURVE SMOOTH",
"305 140 OFFCURVE",
"259 186 OFFCURVE",
"211 186 CURVE SMOOTH",
"202 186 OFFCURVE",
"192 186 OFFCURVE",
"183 183 CURVE",
"183 304 LINE SMOOTH",
"183 342 OFFCURVE",
"171 382 OFFCURVE",
"131 413 CURVE",
"152 467 OFFCURVE",
"211 525 OFFCURVE",
"271 525 CURVE SMOOTH",
"364 525 LINE SMOOTH",
"407 525 OFFCURVE",
"446 480 OFFCURVE",
"446 436 CURVE SMOOTH",
"446 -249 LINE",
"513 -249 LINE",
"513 411 LINE",
"523 433 OFFCURVE",
"533 451 OFFCURVE",
"553 470 CURVE SMOOTH",
"581 500 OFFCURVE",
"614 514 OFFCURVE",
"654 517 CURVE",
"703 517 LINE",
"723 516 OFFCURVE",
"741 508 OFFCURVE",
"757 492 CURVE",
"774 477 OFFCURVE",
"781 458 OFFCURVE",
"781 436 CURVE SMOOTH",
"781 -249 LINE",
"850 -249 LINE"
);
},
{
closed = 1;
nodes = (
"159 118 OFFCURVE",
"184 144 OFFCURVE",
"211 144 CURVE SMOOTH",
"237 144 OFFCURVE",
"261 119 OFFCURVE",
"261 94 CURVE SMOOTH",
"261 65 OFFCURVE",
"239 41 OFFCURVE",
"211 41 CURVE SMOOTH",
"183 41 OFFCURVE",
"159 66 OFFCURVE",
"159 94 CURVE SMOOTH"
);
}
);
width = 927;
}
);
note = "ru_lakkhangyao-thai";
},
{
glyphname = "lu_lakkhangyao-thai";
lastChange = "2017-12-18 10:42:57 +0000";
layers = (
{
layerId = "0B1DFD06-3317-40CA-B510-4969A0718C16";
paths = (
{
closed = 1;
nodes = (
"215 305 LINE SMOOTH",
"215 355 OFFCURVE",
"167 404 OFFCURVE",
"131 417 CURVE",
"152 472 OFFCURVE",
"211 525 OFFCURVE",
"271 525 CURVE SMOOTH",
"364 525 LINE SMOOTH",
"407 525 OFFCURVE",
"446 480 OFFCURVE",
"446 436 CURVE SMOOTH",
"446 -249 LINE",
"513 -249 LINE",
"513 413 LINE",
"522 433 OFFCURVE",
"533 451 OFFCURVE",
"553 470 CURVE SMOOTH",
"581 500 OFFCURVE",
"614 514 OFFCURVE",
"654 517 CURVE",
"703 517 LINE",
"723 516 OFFCURVE",
"741 508 OFFCURVE",
"757 492 CURVE",
"774 477 OFFCURVE",
"781 458 OFFCURVE",
"781 436 CURVE SMOOTH",
"781 -249 LINE",
"850 -249 LINE",
"850 436 LINE SMOOTH",
"850 477 OFFCURVE",
"834 513 OFFCURVE",
"805 542 CURVE SMOOTH",
"777 570 OFFCURVE",
"743 584 OFFCURVE",
"703 584 CURVE SMOOTH",
"657 584 LINE SMOOTH",
"598 582 OFFCURVE",
"547 560 OFFCURVE",
"505 517 CURVE",
"492 505 LINE",
"466 551 OFFCURVE",
"414 584 OFFCURVE",
"364 584 CURVE SMOOTH",
"274 584 LINE SMOOTH",
"164 584 OFFCURVE",
"63 498 OFFCURVE",
"52 388 CURVE",
"96 383 OFFCURVE",
"149 334 OFFCURVE",
"149 304 CURVE SMOOTH",
"149 183 LINE",
"140 186 OFFCURVE",
"131 187 OFFCURVE",
"122 187 CURVE SMOOTH",
"74 187 OFFCURVE",
"29 143 OFFCURVE",
"29 93 CURVE SMOOTH",
"29 46 OFFCURVE",
"72 0 OFFCURVE",
"122 0 CURVE SMOOTH",
"169 0 OFFCURVE",
"215 41 OFFCURVE",
"215 88 CURVE SMOOTH"
);
},
{
closed = 1;
nodes = (
"72 119 OFFCURVE",
"94 144 OFFCURVE",
"122 144 CURVE SMOOTH",
"150 144 OFFCURVE",
"174 121 OFFCURVE",
"174 93 CURVE SMOOTH",
"174 66 OFFCURVE",
"150 43 OFFCURVE",
"122 43 CURVE SMOOTH",
"94 43 OFFCURVE",
"72 66 OFFCURVE",
"71 93 CURVE"
);
}
);
width = 927;
}
);
note = "lu_lakkhangyao-thai";
},
{
glyphname = "yoYing-thai";
lastChange = "2017-12-18 10:37:43 +0000";
layers = (
{
layerId = "0B1DFD06-3317-40CA-B510-4969A0718C16";
paths = (
{
closed = 1;
nodes = (
"174 305 LINE",
"172 342 OFFCURVE",
"161 382 OFFCURVE",
"121 413 CURVE",
"141 467 OFFCURVE",
"200 525 OFFCURVE",
"261 525 CURVE SMOOTH",
"355 525 LINE SMOOTH",
"398 525 OFFCURVE",
"438 480 OFFCURVE",
"438 436 CURVE SMOOTH",
"438 66 LINE",
"441 34 OFFCURVE",
"470 0 OFFCURVE",
"505 0 CURVE SMOOTH",
"619 0 LINE SMOOTH",
"700 0 OFFCURVE",
"766 72 OFFCURVE",
"766 150 CURVE SMOOTH",
"766 584 LINE",
"700 584 LINE",
"700 150 LINE SMOOTH",
"700 106 OFFCURVE",
"662 62 OFFCURVE",
"619 59 CURVE",
"504 59 LINE",
"504 436 LINE SMOOTH",
"504 513 OFFCURVE",
"430 584 OFFCURVE",
"355 584 CURVE SMOOTH",
"264 584 LINE SMOOTH",
"153 584 OFFCURVE",
"53 494 OFFCURVE",
"41 383 CURVE",
"77 379 OFFCURVE",
"108 340 OFFCURVE",
"108 305 CURVE SMOOTH",
"108 81 LINE SMOOTH",
"108 40 OFFCURVE",
"152 0 OFFCURVE",
"200 0 CURVE SMOOTH",
"250 0 OFFCURVE",
"295 44 OFFCURVE",
"295 96 CURVE SMOOTH",
"295 150 OFFCURVE",
"245 190 OFFCURVE",
"200 190 CURVE SMOOTH",
"192 190 OFFCURVE",
"183 189 OFFCURVE",
"174 186 CURVE"
);
},
{
closed = 1;
nodes = (
"227 149 OFFCURVE",
"252 124 OFFCURVE",
"252 97 CURVE SMOOTH",
"252 69 OFFCURVE",
"228 46 OFFCURVE",
"200 46 CURVE SMOOTH",
"174 46 OFFCURVE",
"152 69 OFFCURVE",
"152 97 CURVE SMOOTH",
"152 124 OFFCURVE",
"174 149 OFFCURVE",
"200 149 CURVE SMOOTH"
);
},
{
closed = 1;
nodes = (
"585 -75 OFFCURVE",
"545 -37 OFFCURVE",
"497 -37 CURVE SMOOTH",
"449 -37 OFFCURVE",
"408 -80 OFFCURVE",
"408 -125 CURVE SMOOTH",
"408 -205 OFFCURVE",
"494 -243 OFFCURVE",
"572 -243 CURVE SMOOTH",
"673 -243 OFFCURVE",
"766 -162 OFFCURVE",
"784 -63 CURVE",
"732 -63 LINE",
"718 -136 OFFCURVE",
"653 -195 OFFCURVE",
"581 -195 CURVE SMOOTH",
"570 -195 OFFCURVE",
"558 -193 OFFCURVE",
"547 -190 CURVE",
"563 -177 OFFCURVE",
"585 -155 OFFCURVE",
"585 -125 CURVE SMOOTH"
);
},
{
closed = 1;
nodes = (
"522 -77 OFFCURVE",
"545 -97 OFFCURVE",
"545 -125 CURVE SMOOTH",
"545 -150 OFFCURVE",
"523 -174 OFFCURVE",
"497 -174 CURVE SMOOTH",
"470 -174 OFFCURVE",
"448 -150 OFFCURVE",
"448 -125 CURVE SMOOTH",
"448 -99 OFFCURVE",
"470 -77 OFFCURVE",
"497 -77 CURVE SMOOTH"
);
}
);
width = 841;
}
);
note = uni0E0D;
unicode = 0E0D;
},
{
glyphname = "yoYing-thai.less";
lastChange = "2017-12-18 10:43:28 +0000";
layers = (
{
layerId = "0B1DFD06-3317-40CA-B510-4969A0718C16";
paths = (
{
closed = 1;
nodes = (
"174 305 LINE",
"172 342 OFFCURVE",
"161 382 OFFCURVE",
"121 413 CURVE",
"141 467 OFFCURVE",
"200 525 OFFCURVE",
"261 525 CURVE SMOOTH",
"354 525 LINE SMOOTH",
"396 525 OFFCURVE",
"436 480 OFFCURVE",
"436 436 CURVE SMOOTH",
"436 66 LINE",
"439 34 OFFCURVE",
"469 0 OFFCURVE",
"504 0 CURVE SMOOTH",
"617 0 LINE SMOOTH",
"698 0 OFFCURVE",
"765 72 OFFCURVE",
"765 150 CURVE SMOOTH",
"765 584 LINE",
"698 584 LINE",
"698 150 LINE SMOOTH",
"698 106 OFFCURVE",
"660 62 OFFCURVE",
"617 59 CURVE",
"502 59 LINE",
"502 436 LINE SMOOTH",
"502 513 OFFCURVE",
"429 584 OFFCURVE",
"354 584 CURVE SMOOTH",
"264 584 LINE SMOOTH",
"153 584 OFFCURVE",
"53 494 OFFCURVE",
"41 383 CURVE",
"77 379 OFFCURVE",
"108 340 OFFCURVE",
"108 305 CURVE SMOOTH",
"108 81 LINE SMOOTH",
"108 40 OFFCURVE",
"152 0 OFFCURVE",
"200 0 CURVE SMOOTH",
"250 0 OFFCURVE",
"295 44 OFFCURVE",
"295 96 CURVE SMOOTH",
"295 150 OFFCURVE",
"245 190 OFFCURVE",
"200 190 CURVE SMOOTH",
"192 190 OFFCURVE",
"183 189 OFFCURVE",
"174 186 CURVE"
);
},
{
closed = 1;
nodes = (
"227 149 OFFCURVE",
"252 124 OFFCURVE",
"252 97 CURVE SMOOTH",
"252 69 OFFCURVE",
"228 46 OFFCURVE",
"200 46 CURVE SMOOTH",
"174 46 OFFCURVE",
"152 69 OFFCURVE",
"152 97 CURVE SMOOTH",
"152 124 OFFCURVE",
"174 149 OFFCURVE",
"200 149 CURVE SMOOTH"
);
}
);
width = 822;
}
);
note = "yoYing-thai.less";
},
{
glyphname = "khoKhai-thai";
lastChange = "2017-12-18 10:38:17 +0000";
layers = (
{
layerId = "0B1DFD06-3317-40CA-B510-4969A0718C16";
paths = (
{
closed = 1;
nodes = (
"312 420 LINE SMOOTH",
"312 511 OFFCURVE",
"259 582 OFFCURVE",
"168 584 CURVE SMOOTH",
"113 584 OFFCURVE",
"69 554 OFFCURVE",
"43 507 CURVE",
"32 486 OFFCURVE",
"27 458 OFFCURVE",
"27 433 CURVE SMOOTH",
"27 377 OFFCURVE",
"63 320 OFFCURVE",
"127 320 CURVE SMOOTH",
"175 320 OFFCURVE",
"220 364 OFFCURVE",
"220 413 CURVE SMOOTH",
"220 463 OFFCURVE",
"175 505 OFFCURVE",
"127 505 CURVE SMOOTH",
"116 505 OFFCURVE",
"108 504 OFFCURVE",
"97 502 CURVE",
"113 526 OFFCURVE",
"137 538 OFFCURVE",
"161 538 CURVE SMOOTH",
"220 538 OFFCURVE",
"259 482 OFFCURVE",
"264 418 CURVE",
"264 362 OFFCURVE",
"246 342 OFFCURVE",
"246 301 CURVE SMOOTH",
"246 68 LINE SMOOTH",
"246 32 OFFCURVE",
"277 1 OFFCURVE",
"309 1 CURVE SMOOTH",
"334 1 LINE SMOOTH",
"408 1 OFFCURVE",
"474 75 OFFCURVE",
"474 149 CURVE SMOOTH",
"474 584 LINE",
"408 584 LINE",
"408 139 LINE SMOOTH",
"408 96 OFFCURVE",
"371 62 OFFCURVE",
"334 59 CURVE",
"312 59 LINE"
);
},
{
closed = 1;
nodes = (
"75 441 OFFCURVE",
"99 464 OFFCURVE",
"127 464 CURVE SMOOTH",
"153 464 OFFCURVE",
"177 441 OFFCURVE",
"177 413 CURVE SMOOTH",
"177 386 OFFCURVE",
"152 361 OFFCURVE",
"127 361 CURVE SMOOTH",
"99 361 OFFCURVE",
"75 385 OFFCURVE",
"75 413 CURVE SMOOTH"
);
}
);
width = 547;
}
);
note = uni0E02;
unicode = 0E02;
},
{
glyphname = "khoKhuat-thai";
lastChange = "2017-12-18 10:38:17 +0000";
layers = (
{
layerId = "0B1DFD06-3317-40CA-B510-4969A0718C16";
paths = (
{
closed = 1;
nodes = (
"485 584 LINE",
"418 584 LINE",
"418 139 LINE SMOOTH",
"418 96 OFFCURVE",
"382 62 OFFCURVE",
"345 59 CURVE",
"323 59 LINE",
"323 326 LINE SMOOTH",
"323 351 OFFCURVE",
"330 361 OFFCURVE",
"339 373 CURVE SMOOTH",
"358 399 OFFCURVE",
"370 433 OFFCURVE",
"370 467 CURVE SMOOTH",
"370 520 OFFCURVE",
"342 570 OFFCURVE",
"284 584 CURVE",
"228 502 LINE",
"175 584 LINE",
"88 584 OFFCURVE",
"13 514 OFFCURVE",
"13 426 CURVE SMOOTH",
"13 367 OFFCURVE",
"47 305 OFFCURVE",
"109 305 CURVE SMOOTH",
"153 305 OFFCURVE",
"197 343 OFFCURVE",
"197 389 CURVE SMOOTH",
"197 439 OFFCURVE",
"155 479 OFFCURVE",
"111 479 CURVE SMOOTH",
"96 479 OFFCURVE",
"81 474 OFFCURVE",
"66 464 CURVE",
"74 502 OFFCURVE",
"116 530 OFFCURVE",
"153 532 CURVE",
"228 424 LINE",
"298 529 LINE",
"314 513 OFFCURVE",
"321 495 OFFCURVE",
"321 476 CURVE SMOOTH",
"321 446 OFFCURVE",
"305 418 OFFCURVE",
"290 399 CURVE SMOOTH",
"273 377 OFFCURVE",
"256 360 OFFCURVE",
"256 339 CURVE SMOOTH",
"256 66 LINE SMOOTH",
"256 31 OFFCURVE",
"287 0 OFFCURVE",
"320 0 CURVE SMOOTH",
"345 0 LINE SMOOTH",
"418 0 OFFCURVE",
"485 74 OFFCURVE",
"485 149 CURVE SMOOTH"
);
},
{
closed = 1;
nodes = (
"136 442 OFFCURVE",
"159 420 OFFCURVE",
"159 393 CURVE SMOOTH",
"159 370 OFFCURVE",
"136 345 OFFCURVE",
"111 345 CURVE SMOOTH",
"84 345 OFFCURVE",
"62 368 OFFCURVE",
"62 393 CURVE SMOOTH",
"62 421 OFFCURVE",
"88 442 OFFCURVE",
"111 442 CURVE SMOOTH"
);
}
);
width = 563;
}
);
note = uni0E03;
unicode = 0E03;
},
{
glyphname = "choChang-thai";
lastChange = "2017-12-18 10:38:17 +0000";
layers = (
{
layerId = "0B1DFD06-3317-40CA-B510-4969A0718C16";
paths = (
{
closed = 1;
nodes = (
"75 441 OFFCURVE",
"99 464 OFFCURVE",
"127 464 CURVE SMOOTH",
"153 464 OFFCURVE",
"177 441 OFFCURVE",
"177 413 CURVE SMOOTH",
"177 386 OFFCURVE",
"152 361 OFFCURVE",
"127 361 CURVE SMOOTH",
"99 361 OFFCURVE",
"75 385 OFFCURVE",
"75 413 CURVE SMOOTH"
);
},
{
closed = 1;
nodes = (
"312 420 LINE SMOOTH",
"312 511 OFFCURVE",
"259 582 OFFCURVE",
"168 584 CURVE SMOOTH",
"113 584 OFFCURVE",
"69 554 OFFCURVE",
"43 507 CURVE",
"32 486 OFFCURVE",
"27 458 OFFCURVE",
"27 433 CURVE SMOOTH",
"27 377 OFFCURVE",
"63 320 OFFCURVE",
"127 320 CURVE SMOOTH",
"175 320 OFFCURVE",
"220 364 OFFCURVE",
"220 413 CURVE SMOOTH",
"220 463 OFFCURVE",
"175 505 OFFCURVE",
"127 505 CURVE SMOOTH",
"116 505 OFFCURVE",
"108 504 OFFCURVE",
"97 502 CURVE",
"113 526 OFFCURVE",
"137 538 OFFCURVE",
"161 538 CURVE SMOOTH",
"220 538 OFFCURVE",
"259 482 OFFCURVE",
"264 418 CURVE",
"264 362 OFFCURVE",
"246 342 OFFCURVE",
"246 301 CURVE SMOOTH",
"246 66 LINE SMOOTH",
"246 31 OFFCURVE",
"277 0 OFFCURVE",
"309 0 CURVE SMOOTH",
"334 0 LINE SMOOTH",
"408 0 OFFCURVE",
"474 74 OFFCURVE",
"474 149 CURVE SMOOTH",
"474 370 LINE",
"464 389 OFFCURVE",
"426 417 OFFCURVE",
"402 423 CURVE",
"508 461 OFFCURVE",
"520 566 OFFCURVE",
"535 669 CURVE",
"469 669 LINE",
"460 545 OFFCURVE",
"436 480 OFFCURVE",
"326 439 CURVE",
"326 410 LINE",
"352 410 OFFCURVE",
"408 385 OFFCURVE",
"408 361 CURVE SMOOTH",
"408 140 LINE SMOOTH",
"408 97 OFFCURVE",
"371 62 OFFCURVE",
"334 59 CURVE",
"312 59 LINE"
);
}
);
width = 551;
}
);
note = uni0E0A;
unicode = 0E0A;
},
{
glyphname = "soSo-thai";
lastChange = "2017-12-18 10:38:17 +0000";
layers = (
{
layerId = "0B1DFD06-3317-40CA-B510-4969A0718C16";
paths = (
{
closed = 1;
nodes = (
"255 66 LINE SMOOTH",
"255 31 OFFCURVE",
"286 0 OFFCURVE",
"318 0 CURVE SMOOTH",
"343 0 LINE SMOOTH",
"417 0 OFFCURVE",
"483 74 OFFCURVE",
"483 149 CURVE SMOOTH",
"483 377 LINE SMOOTH",
"483 395 OFFCURVE",
"463 414 OFFCURVE",
"423 436 CURVE",
"529 474 OFFCURVE",
"529 576 OFFCURVE",
"542 673 CURVE",
"477 673 LINE",
"469 563 OFFCURVE",
"466 519 OFFCURVE",
"380 470 CURVE",
"383 457 OFFCURVE",
"385 444 OFFCURVE",
"385 433 CURVE SMOOTH",
"385 421 OFFCURVE",
"383 413 OFFCURVE",
"380 402 CURVE",
"382 402 OFFCURVE",
"385 401 OFFCURVE",
"386 399 CURVE",
"402 389 OFFCURVE",
"414 379 OFFCURVE",
"417 365 CURVE",
"417 140 LINE SMOOTH",
"417 97 OFFCURVE",
"380 62 OFFCURVE",
"343 59 CURVE",
"321 59 LINE",
"321 326 LINE SMOOTH",
"321 351 OFFCURVE",
"329 361 OFFCURVE",
"337 373 CURVE SMOOTH",
"357 399 OFFCURVE",
"368 433 OFFCURVE",
"368 467 CURVE SMOOTH",
"368 520 OFFCURVE",
"340 570 OFFCURVE",
"283 584 CURVE",
"227 502 LINE",
"174 584 LINE",
"87 584 OFFCURVE",
"12 514 OFFCURVE",
"12 426 CURVE SMOOTH",
"12 367 OFFCURVE",
"46 305 OFFCURVE",
"108 305 CURVE SMOOTH",
"152 305 OFFCURVE",
"196 343 OFFCURVE",
"196 389 CURVE SMOOTH",
"196 439 OFFCURVE",
"153 479 OFFCURVE",
"109 479 CURVE SMOOTH",
"94 479 OFFCURVE",
"80 474 OFFCURVE",
"65 464 CURVE",
"72 502 OFFCURVE",
"115 530 OFFCURVE",
"152 532 CURVE",
"227 424 LINE",
"296 529 LINE",
"312 513 OFFCURVE",
"320 495 OFFCURVE",
"320 476 CURVE SMOOTH",
"320 446 OFFCURVE",
"304 418 OFFCURVE",
"289 399 CURVE SMOOTH",
"271 377 OFFCURVE",
"255 360 OFFCURVE",
"255 339 CURVE SMOOTH"
);
},
{
closed = 1;
nodes = (
"134 442 OFFCURVE",
"158 420 OFFCURVE",
"158 393 CURVE SMOOTH",
"158 370 OFFCURVE",
"134 345 OFFCURVE",
"109 345 CURVE SMOOTH",
"83 345 OFFCURVE",
"60 368 OFFCURVE",
"60 393 CURVE SMOOTH",
"60 421 OFFCURVE",
"87 442 OFFCURVE",
"109 442 CURVE SMOOTH"
);
}
);
width = 560;
}
);
note = uni0E0B;
unicode = 0E0B;
},
{
glyphname = "khoKhwai-thai";
lastChange = "2017-12-18 10:38:17 +0000";
layers = (
{
layerId = "0B1DFD06-3317-40CA-B510-4969A0718C16";
paths = (
{
closed = 1;
nodes = (
"290 584 LINE SMOOTH",
"183 582 OFFCURVE",
"80 474 OFFCURVE",
"80 367 CURVE SMOOTH",
"80 0 LINE",
"165 0 LINE",
"245 224 LINE",
"264 208 OFFCURVE",
"286 199 OFFCURVE",
"311 199 CURVE SMOOTH",
"360 199 OFFCURVE",
"405 240 OFFCURVE",
"405 292 CURVE SMOOTH",
"405 340 OFFCURVE",
"365 386 OFFCURVE",
"311 386 CURVE SMOOTH",
"270 386 OFFCURVE",
"234 358 OFFCURVE",
"221 320 CURVE SMOOTH",
"146 109 LINE",
"146 367 LINE SMOOTH",
"146 441 OFFCURVE",
"221 525 OFFCURVE",
"295 525 CURVE SMOOTH",
"396 525 LINE SMOOTH",
"441 525 OFFCURVE",
"479 479 OFFCURVE",
"479 436 CURVE SMOOTH",
"479 0 LINE",
"545 0 LINE",
"545 436 LINE SMOOTH",
"545 522 OFFCURVE",
"480 584 OFFCURVE",
"396 584 CURVE SMOOTH"
);
},
{
closed = 1;
nodes = (
"259 320 OFFCURVE",
"284 343 OFFCURVE",
"311 343 CURVE SMOOTH",
"337 343 OFFCURVE",
"362 320 OFFCURVE",
"362 292 CURVE SMOOTH",
"362 264 OFFCURVE",
"336 242 OFFCURVE",
"311 242 CURVE SMOOTH",
"283 242 OFFCURVE",
"259 262 OFFCURVE",
"259 292 CURVE SMOOTH"
);
}
);
width = 620;
}
);
note = uni0E04;
unicode = 0E04;
},
{
glyphname = "khoKhon-thai";
lastChange = "2017-12-18 10:38:17 +0000";
layers = (
{
layerId = "0B1DFD06-3317-40CA-B510-4969A0718C16";
paths = (
{
closed = 1;
nodes = (
"545 438 LINE",
"544 516 OFFCURVE",
"482 579 OFFCURVE",
"407 584 CURVE",
"349 513 LINE",
"280 584 LINE",
"175 576 OFFCURVE",
"80 473 OFFCURVE",
"80 368 CURVE SMOOTH",
"80 0 LINE",
"165 0 LINE",
"246 225 LINE",
"265 208 OFFCURVE",
"287 199 OFFCURVE",
"312 199 CURVE SMOOTH",
"361 199 OFFCURVE",
"407 243 OFFCURVE",
"407 293 CURVE SMOOTH",
"407 343 OFFCURVE",
"361 388 OFFCURVE",
"312 388 CURVE SMOOTH",
"271 388 OFFCURVE",
"236 358 OFFCURVE",
"222 321 CURVE SMOOTH",
"146 109 LINE",
"146 368 LINE SMOOTH",
"146 435 OFFCURVE",
"205 498 OFFCURVE",
"268 514 CURVE",
"349 430 LINE",
"417 517 LINE",
"452 507 OFFCURVE",
"479 474 OFFCURVE",
"479 438 CURVE SMOOTH",
"479 0 LINE",
"545 0 LINE"
);
},
{
closed = 1;
nodes = (
"261 321 OFFCURVE",
"284 345 OFFCURVE",
"312 345 CURVE SMOOTH",
"339 345 OFFCURVE",
"364 321 OFFCURVE",
"364 293 CURVE SMOOTH",
"364 265 OFFCURVE",
"337 242 OFFCURVE",
"312 242 CURVE SMOOTH",
"284 242 OFFCURVE",
"261 265 OFFCURVE",
"261 293 CURVE SMOOTH"
);
}
);
width = 625;
}
);
note = uni0E05;
unicode = 0E05;
},
{
glyphname = "soSala-thai";
lastChange = "2017-12-18 10:38:17 +0000";
layers = (
{
layerId = "0B1DFD06-3317-40CA-B510-4969A0718C16";
paths = (
{
closed = 1;
nodes = (
"301 584 LINE SMOOTH",
"187 582 OFFCURVE",
"78 479 OFFCURVE",
"78 364 CURVE SMOOTH",
"78 0 LINE",
"164 0 LINE",
"243 222 LINE",
"261 206 OFFCURVE",
"283 197 OFFCURVE",
"308 197 CURVE SMOOTH",
"358 197 OFFCURVE",
"401 240 OFFCURVE",
"401 290 CURVE SMOOTH",
"401 317 OFFCURVE",
"389 340 OFFCURVE",
"371 358 CURVE",
"413 380 OFFCURVE",
"448 413 OFFCURVE",
"476 451 CURVE",
"476 446 OFFCURVE",
"477 441 OFFCURVE",
"477 436 CURVE SMOOTH",
"477 0 LINE",
"544 0 LINE",
"544 436 LINE SMOOTH",
"544 469 OFFCURVE",
"533 500 OFFCURVE",
"517 523 CURVE",
"536 569 OFFCURVE",
"548 619 OFFCURVE",
"548 669 CURVE",
"485 669 LINE",
"485 634 OFFCURVE",
"477 598 OFFCURVE",
"467 566 CURVE",
"445 576 OFFCURVE",
"421 584 OFFCURVE",
"395 584 CURVE SMOOTH"
);
},
{
closed = 1;
nodes = (
"144 108 LINE",
"144 364 LINE",
"152 444 OFFCURVE",
"220 525 OFFCURVE",
"301 525 CURVE SMOOTH",
"395 525 LINE SMOOTH",
"411 525 OFFCURVE",
"427 517 OFFCURVE",
"441 507 CURVE",
"405 446 OFFCURVE",
"354 398 OFFCURVE",
"298 382 CURVE",
"261 379 OFFCURVE",
"230 352 OFFCURVE",
"218 318 CURVE SMOOTH"
);
},
{
closed = 1;
nodes = (
"256 317 OFFCURVE",
"281 340 OFFCURVE",
"308 340 CURVE SMOOTH",
"336 340 OFFCURVE",
"358 320 OFFCURVE",
"358 290 CURVE SMOOTH",
"358 262 OFFCURVE",
"333 240 OFFCURVE",
"308 240 CURVE SMOOTH",
"280 240 OFFCURVE",
"256 261 OFFCURVE",
"256 290 CURVE SMOOTH"
);
}
);
width = 620;
}
);
note = uni0E28;
unicode = 0E28;
},
{
glyphname = "doDek-thai";
lastChange = "2017-12-18 10:38:17 +0000";
layers = (
{
layerId = "0B1DFD06-3317-40CA-B510-4969A0718C16";
paths = (
{
closed = 1;
nodes = (
"283 172 OFFCURVE",
"259 196 OFFCURVE",
"259 224 CURVE SMOOTH",
"259 249 OFFCURVE",
"284 276 OFFCURVE",
"311 276 CURVE SMOOTH",
"339 276 OFFCURVE",
"362 250 OFFCURVE",
"362 222 CURVE SMOOTH",
"362 195 OFFCURVE",
"340 172 OFFCURVE",
"311 172 CURVE SMOOTH"
);
},
{
closed = 1;
nodes = (
"268 85 OFFCURVE",
"203 52 OFFCURVE",
"147 52 CURVE",
"147 358 LINE SMOOTH",
"147 438 OFFCURVE",
"220 525 OFFCURVE",
"301 525 CURVE SMOOTH",
"396 525 LINE SMOOTH",
"436 525 OFFCURVE",
"477 479 OFFCURVE",
"477 438 CURVE SMOOTH",
"477 0 LINE",
"545 0 LINE",
"545 433 LINE",
"544 516 OFFCURVE",
"474 584 OFFCURVE",
"396 584 CURVE SMOOTH",
"304 584 LINE SMOOTH",
"189 584 OFFCURVE",
"80 476 OFFCURVE",
"80 361 CURVE SMOOTH",
"80 0 LINE",
"147 0 LINE SMOOTH",
"261 0 OFFCURVE",
"401 113 OFFCURVE",
"401 224 CURVE SMOOTH",
"401 274 OFFCURVE",
"357 317 OFFCURVE",
"311 317 CURVE SMOOTH",
"262 317 OFFCURVE",
"218 273 OFFCURVE",
"218 224 CURVE SMOOTH",
"218 175 OFFCURVE",
"253 133 OFFCURVE",
"309 133 CURVE"
);
}
);
width = 625;
}
);
note = uni0E14;
unicode = 0E14;
},
{
glyphname = "toTao-thai";
lastChange = "2017-12-18 10:38:17 +0000";
layers = (
{
layerId = "0B1DFD06-3317-40CA-B510-4969A0718C16";
paths = (
{
closed = 1;
nodes = (
"479 0 LINE",
"545 0 LINE",
"545 435 LINE SMOOTH",
"545 510 OFFCURVE",
"476 572 OFFCURVE",
"405 585 CURVE",
"348 514 LINE",
"284 584 LINE",
"183 584 OFFCURVE",
"80 467 OFFCURVE",
"80 358 CURVE SMOOTH",
"80 0 LINE",
"146 0 LINE SMOOTH",
"262 0 OFFCURVE",
"401 108 OFFCURVE",
"401 224 CURVE SMOOTH",
"401 273 OFFCURVE",
"362 315 OFFCURVE",
"311 315 CURVE SMOOTH",
"261 315 OFFCURVE",
"218 273 OFFCURVE",
"218 222 CURVE SMOOTH",
"218 180 OFFCURVE",
"248 134 OFFCURVE",
"309 130 CURVE",
"274 85 OFFCURVE",
"199 52 OFFCURVE",
"146 52 CURVE",
"146 358 LINE SMOOTH",
"146 427 OFFCURVE",
"203 492 OFFCURVE",
"268 508 CURVE",
"348 424 LINE",
"416 510 LINE",
"454 501 OFFCURVE",
"479 469 OFFCURVE",
"479 435 CURVE SMOOTH"
);
},
{
closed = 1;
nodes = (
"261 249 OFFCURVE",
"284 274 OFFCURVE",
"311 274 CURVE SMOOTH",
"339 274 OFFCURVE",
"362 250 OFFCURVE",
"362 222 CURVE SMOOTH",
"362 196 OFFCURVE",
"339 172 OFFCURVE",
"311 172 CURVE SMOOTH",
"284 172 OFFCURVE",
"261 197 OFFCURVE",
"261 222 CURVE SMOOTH"
);
}
);
width = 623;
}
);
note = uni0E15;
unicode = 0E15;
},
{
glyphname = "thoThahan-thai";
lastChange = "2017-12-18 10:38:17 +0000";
layers = (
{
layerId = "0B1DFD06-3317-40CA-B510-4969A0718C16";
paths = (
{
closed = 1;
nodes = (
"221 146 LINE",
"221 492 LINE SMOOTH",
"221 541 OFFCURVE",
"178 581 OFFCURVE",
"131 581 CURVE SMOOTH",
"84 581 OFFCURVE",
"40 539 OFFCURVE",
"40 491 CURVE SMOOTH",
"40 441 OFFCURVE",
"84 399 OFFCURVE",
"131 399 CURVE SMOOTH",
"140 399 OFFCURVE",
"147 401 OFFCURVE",
"155 404 CURVE",
"155 0 LINE",
"221 0 LINE",
"442 511 LINE",
"480 504 OFFCURVE",
"516 469 OFFCURVE",
"516 433 CURVE SMOOTH",
"516 0 LINE",
"582 0 LINE",
"582 433 LINE SMOOTH",
"582 525 OFFCURVE",
"495 584 OFFCURVE",
"411 584 CURVE"
);
},
{
closed = 1;
nodes = (
"156 539 OFFCURVE",
"181 516 OFFCURVE",
"181 491 CURVE SMOOTH",
"181 463 OFFCURVE",
"159 441 OFFCURVE",
"131 441 CURVE SMOOTH",
"105 441 OFFCURVE",
"81 464 OFFCURVE",
"81 491 CURVE SMOOTH",
"81 517 OFFCURVE",
"106 539 OFFCURVE",
"131 539 CURVE SMOOTH"
);
}
);
width = 659;
}
);
note = uni0E17;
unicode = 0E17;
},
{
glyphname = "thoNangmontho-thai";
lastChange = "2017-12-18 10:38:17 +0000";
layers = (
{
layerId = "0B1DFD06-3317-40CA-B510-4969A0718C16";
paths = (
{
closed = 1;
nodes = (
"326 332 LINE SMOOTH",
"326 357 OFFCURVE",
"333 361 OFFCURVE",
"342 373 CURVE SMOOTH",
"361 399 OFFCURVE",
"373 433 OFFCURVE",
"373 467 CURVE SMOOTH",
"373 520 OFFCURVE",
"345 570 OFFCURVE",
"287 584 CURVE",
"231 502 LINE",
"178 584 LINE",
"91 584 OFFCURVE",
"16 514 OFFCURVE",
"16 426 CURVE SMOOTH",
"16 367 OFFCURVE",
"50 305 OFFCURVE",
"112 305 CURVE SMOOTH",
"156 305 OFFCURVE",
"200 343 OFFCURVE",
"200 389 CURVE SMOOTH",
"200 439 OFFCURVE",
"158 479 OFFCURVE",
"113 479 CURVE SMOOTH",
"99 479 OFFCURVE",
"84 474 OFFCURVE",
"69 464 CURVE",
"77 502 OFFCURVE",
"119 530 OFFCURVE",
"156 532 CURVE",
"231 424 LINE",
"301 529 LINE",
"317 513 OFFCURVE",
"324 495 OFFCURVE",
"324 476 CURVE SMOOTH",
"324 446 OFFCURVE",
"308 418 OFFCURVE",
"293 399 CURVE SMOOTH",
"276 377 OFFCURVE",
"259 360 OFFCURVE",
"259 339 CURVE SMOOTH",
"259 0 LINE",
"326 0 LINE",
"556 511 LINE",
"594 504 OFFCURVE",
"620 469 OFFCURVE",
"620 433 CURVE SMOOTH",
"620 0 LINE",
"687 0 LINE",
"687 433 LINE SMOOTH",
"687 525 OFFCURVE",
"597 584 OFFCURVE",
"513 584 CURVE",
"326 171 LINE"
);
},
{
closed = 1;
nodes = (
"139 442 OFFCURVE",
"162 420 OFFCURVE",
"162 393 CURVE SMOOTH",
"162 370 OFFCURVE",
"139 345 OFFCURVE",
"113 345 CURVE SMOOTH",
"87 345 OFFCURVE",
"65 368 OFFCURVE",
"65 393 CURVE SMOOTH",
"65 421 OFFCURVE",
"91 442 OFFCURVE",
"113 442 CURVE SMOOTH"
);
}
);
width = 763;
}
);
note = uni0E11;
unicode = 0E11;
},
{
glyphname = "noNu-thai";
lastChange = "2017-12-18 10:38:17 +0000";
layers = (
{
layerId = "0B1DFD06-3317-40CA-B510-4969A0718C16";
paths = (
{
closed = 1;
nodes = (
"84 584 OFFCURVE",
"40 544 OFFCURVE",
"40 494 CURVE SMOOTH",
"40 446 OFFCURVE",
"85 404 OFFCURVE",
"131 404 CURVE SMOOTH",
"140 404 OFFCURVE",
"147 404 OFFCURVE",
"155 407 CURVE",
"155 0 LINE",
"222 0 LINE",
"270 53 OFFCURVE",
"326 112 OFFCURVE",
"385 134 CURVE",
"383 125 OFFCURVE",
"382 113 OFFCURVE",
"382 105 CURVE SMOOTH",
"382 49 OFFCURVE",
"429 0 OFFCURVE",
"483 0 CURVE SMOOTH",
"538 0 OFFCURVE",
"586 47 OFFCURVE",
"586 105 CURVE SMOOTH",
"586 149 OFFCURVE",
"558 189 OFFCURVE",
"517 202 CURVE",
"517 584 LINE",
"449 584 LINE",
"449 209 LINE",
"362 200 OFFCURVE",
"273 139 OFFCURVE",
"222 83 CURVE",
"222 497 LINE SMOOTH",
"222 545 OFFCURVE",
"178 584 OFFCURVE",
"131 584 CURVE SMOOTH"
);
},
{
closed = 1;
nodes = (
"158 544 OFFCURVE",
"181 522 OFFCURVE",
"181 494 CURVE SMOOTH",
"181 467 OFFCURVE",
"158 445 OFFCURVE",
"131 445 CURVE SMOOTH",
"106 445 OFFCURVE",
"81 467 OFFCURVE",
"81 494 CURVE SMOOTH",
"81 522 OFFCURVE",
"105 544 OFFCURVE",
"131 544 CURVE SMOOTH"
);
},
{
closed = 1;
nodes = (
"514 159 OFFCURVE",
"539 137 OFFCURVE",
"539 105 CURVE SMOOTH",
"539 74 OFFCURVE",
"513 49 OFFCURVE",
"483 49 CURVE SMOOTH",
"452 49 OFFCURVE",
"427 75 OFFCURVE",
"427 105 CURVE SMOOTH",
"427 133 OFFCURVE",
"455 161 OFFCURVE",
"483 161 CURVE"
);
}
);
width = 598;
}
);
note = uni0E19;
unicode = 0E19;
},
{
glyphname = "moMa-thai";
lastChange = "2017-12-18 10:38:17 +0000";
layers = (
{
layerId = "0B1DFD06-3317-40CA-B510-4969A0718C16";
paths = (
{
closed = 1;
nodes = (
"467 584 LINE",
"467 75 LINE",
"421 131 OFFCURVE",
"345 172 OFFCURVE",
"237 200 CURVE",
"237 497 LINE SMOOTH",
"237 544 OFFCURVE",
"193 584 OFFCURVE",
"147 584 CURVE SMOOTH",
"97 584 OFFCURVE",
"56 542 OFFCURVE",
"56 494 CURVE SMOOTH",
"56 446 OFFCURVE",
"99 402 OFFCURVE",
"147 402 CURVE SMOOTH",
"155 402 OFFCURVE",
"164 404 OFFCURVE",
"171 407 CURVE",
"171 205 LINE",
"159 205 LINE SMOOTH",
"106 205 OFFCURVE",
"56 158 OFFCURVE",
"56 103 CURVE SMOOTH",
"56 49 OFFCURVE",
"106 0 OFFCURVE",
"159 0 CURVE SMOOTH",
"211 0 OFFCURVE",
"221 16 OFFCURVE",
"237 44 CURVE",
"237 152 LINE",
"327 131 OFFCURVE",
"410 81 OFFCURVE",
"467 0 CURVE",
"533 0 LINE",
"533 584 LINE"
);
},
{
closed = 1;
nodes = (
"171 158 LINE",
"171 44 LINE",
"139 44 OFFCURVE",
"102 69 OFFCURVE",
"102 103 CURVE SMOOTH",
"102 131 OFFCURVE",
"127 158 OFFCURVE",
"159 158 CURVE SMOOTH"
);
},
{
closed = 1;
nodes = (
"197 467 OFFCURVE",
"174 444 OFFCURVE",
"147 444 CURVE SMOOTH",
"121 444 OFFCURVE",
"97 469 OFFCURVE",
"97 494 CURVE SMOOTH",
"97 520 OFFCURVE",
"119 544 OFFCURVE",
"147 544 CURVE SMOOTH",
"174 544 OFFCURVE",
"197 520 OFFCURVE",
"197 494 CURVE SMOOTH"
);
}
);
width = 610;
}
);
note = uni0E21;
unicode = 0E21;
},
{
glyphname = "choChoe-thai";
lastChange = "2017-12-18 10:39:01 +0000";
layers = (
{
layerId = "0B1DFD06-3317-40CA-B510-4969A0718C16";
paths = (
{
closed = 1;
nodes = (
"754 584 LINE",
"690 584 LINE",
"690 71 LINE",
"639 127 OFFCURVE",
"569 168 OFFCURVE",
"497 192 CURVE",
"497 436 LINE SMOOTH",
"497 513 OFFCURVE",
"423 584 OFFCURVE",
"348 584 CURVE SMOOTH",
"258 584 LINE SMOOTH",
"147 584 OFFCURVE",
"47 494 OFFCURVE",
"35 383 CURVE",
"71 379 OFFCURVE",
"100 340 OFFCURVE",
"100 305 CURVE SMOOTH",
"100 78 LINE",
"106 35 OFFCURVE",
"149 1 OFFCURVE",
"193 1 CURVE SMOOTH",
"245 1 OFFCURVE",
"286 46 OFFCURVE",
"286 96 CURVE SMOOTH",
"286 144 OFFCURVE",
"242 187 OFFCURVE",
"193 187 CURVE SMOOTH",
"184 187 OFFCURVE",
"175 186 OFFCURVE",
"167 184 CURVE",
"167 305 LINE SMOOTH",
"167 342 OFFCURVE",
"155 382 OFFCURVE",
"115 413 CURVE",
"136 467 OFFCURVE",
"195 525 OFFCURVE",
"255 525 CURVE SMOOTH",
"348 525 LINE SMOOTH",
"390 525 OFFCURVE",
"429 480 OFFCURVE",
"429 436 CURVE SMOOTH",
"429 200 LINE",
"367 200 OFFCURVE",
"323 159 OFFCURVE",
"323 100 CURVE SMOOTH",
"323 46 OFFCURVE",
"370 1 OFFCURVE",
"429 1 CURVE SMOOTH",
"454 1 OFFCURVE",
"479 16 OFFCURVE",
"497 34 CURVE",
"497 137 LINE",
"570 113 OFFCURVE",
"631 60 OFFCURVE",
"690 0 CURVE",
"754 0 LINE"
);
},
{
closed = 1;
nodes = (
"141 119 OFFCURVE",
"167 144 OFFCURVE",
"193 144 CURVE SMOOTH",
"220 144 OFFCURVE",
"243 121 OFFCURVE",
"243 96 CURVE SMOOTH",
"243 68 OFFCURVE",
"221 44 OFFCURVE",
"193 44 CURVE SMOOTH",
"165 44 OFFCURVE",
"141 69 OFFCURVE",
"141 96 CURVE SMOOTH"
);
},
{
closed = 1;
nodes = (
"367 133 OFFCURVE",
"396 155 OFFCURVE",
"429 155 CURVE",
"429 47 LINE",
"396 47 OFFCURVE",
"367 68 OFFCURVE",
"367 100 CURVE SMOOTH"
);
}
);
width = 835;
}
);
note = uni0E0C;
unicode = 0E0C;
},
